<?xml version="1.0" encoding="utf-8"?>
<!-- Generator: Adobe Illustrator 21.0.2, SVG Export Plug-In . SVG Version: 6.00 Build 0)  -->
<svg version="1.1" id="Слой_1" xmlns="http://www.w3.org/2000/svg" xmlns:xlink="http://www.w3.org/1999/xlink" x="0px" y="0px"
	 viewBox="0 0 354.3 255.1" style="enable-background:new 0 0 354.3 255.1;" xml:space="preserve">
<style type="text/css">
	.st0{clip-path:url(#SVGID_2_);fill:url(#SVGID_3_);}
</style>
<path d="M254.9,73c2.3,1.8,5.7,1.8,8,0l-1.3-1.9c-1.7,1.2-3.8,1.2-5.5,0L254.9,73z M265.1,91.1V75.8H262l-6.3,10.4V75.8h-3.1v15.3
	h3.1h0l6.3-10.4v10.4H265.1z"/>
<path d="M161.3,86.4c0,1.3-1.3,2.1-2.5,2.1c-1,0-2.2-0.4-2.8-0.8v-8v-0.3c0.7-0.7,2.1-1.1,3-1.1c1.2,0,2.4,0.9,2.4,2.2V86.4z
	 M164.5,86.1v-5.3c0-3.3-1.8-5.2-5.1-5.2c-1.2,0-3.4,0.5-4.2,1.2c-0.3-0.5-0.6-1-1.2-1.2l-2,1.8c0.7,0.5,0.8,1.5,0.8,1.9V96h3.2
	v-5.3c1,0.5,2.5,0.7,3.2,0.7C162.2,91.4,164.5,89.5,164.5,86.1z"/>
<path d="M174.7,87.6c-0.8,1-2.1,1.3-3.2,1.1c-0.8-0.1-1.5-1-1.5-1.8c0-1.1,0.7-2.4,2.4-2.4l2.3,0V87.6z M193.2,91.1V75.8h-10.5v9.5
	c0,1.9-1.2,3.5-2.9,3.6c-0.8,0-2-0.5-2-1.7v-6.5c0-3.2-1.7-5.2-5.2-5.2c-2.4,0-4.3,1-5.3,2.1l1.7,2.1c1.1-1,2.6-1.4,3.4-1.4
	c1.1,0,2.4,0.5,2.4,1.9v1.6h-2.6c-3.7,0-5.3,2.4-5.3,4.8c0,2.4,1.3,4.7,5.1,4.7c1.1,0,2.6-0.6,3.5-1.5c1.5,1.4,2.9,1.6,4.5,1.6
	c3.6-0.1,5.9-2.1,5.8-6.3v-6.8h4.4l0,12.7H193.2z"/>
<polygon points="235.1,91.1 229.5,83.1 234.8,75.8 231.2,75.8 227.2,81.8 225.2,81.8 225.2,75.8 222.1,75.8 222.1,91.1 225.2,91.1 
	225.2,84.5 227.1,84.5 231.5,91.1 "/>
<path d="M199.6,88.5l2.7,0c1.4,0,2-1.5,2-2.6c0-1-0.6-2.3-2-2.3h-2.6V88.5z M196.4,91.2V75.8h3.2V81h2.2c3.7,0,5.7,2.3,5.7,4.9
	c0,2.6-1.9,5.3-5.6,5.3L196.4,91.2z"/>
<path d="M220.1,89.4l-1.3-2.3c-1.8,1.3-2.9,1.6-3.8,1.6c-1.3,0-2.5-0.7-2.5-2v-5.9c0-1.4,1.3-2.3,2.7-2.3c0.9,0,2.2,0.6,3.1,1.6
	L220,78c-1.1-1.4-2.7-2.4-5.2-2.4c-3.1,0-5.6,1.9-5.6,5.2v5.7c0,3.3,2.5,4.8,5.6,4.8C217.5,91.4,219.2,90.1,220.1,89.4"/>
<polygon points="249.4,91.1 249.4,75.8 246.3,75.8 240,86.3 240,75.8 236.9,75.8 236.9,91.1 240,91.1 240.1,91.1 246.3,80.8 
	246.3,91.1 "/>
<path d="M152,71.1h-3.6l-2.7,9.1c-0.1,0.2-0.1,0.4-0.2,0.5c0,0.2-0.1,0.3-0.1,0.5c0,0.1,0,0.2,0,0.2c0,0,0-0.1,0-0.2
	c0-0.1-0.1-0.3-0.1-0.4c0-0.2-0.1-0.4-0.2-0.5l-4.1-9.1h-3.6l6.5,14.3l-0.4,1c-0.5,1.1-1.9,2.4-4.3,2.5l0.4,2.5
	c3.6,0.1,6-1.5,6.9-4.2L152,71.1z"/>
<path d="M296.5,98.9c2.3,1.8,5.7,1.8,8,0l-1.3-1.9c-1.7,1.2-3.8,1.2-5.5,0L296.5,98.9z M306.8,117v-15.3h-3.1l-6.3,10.4v-10.4h-3.1
	V117h3.1h0l6.3-10.4V117H306.8z"/>
<rect x="288" y="101.8" width="3.1" height="15.3"/>
<path d="M278.3,114.5l2.7,0c1.4,0,2-1.5,2-2.6c0-1-0.6-2.3-2-2.3h-2.6V114.5z M275.2,117.1v-15.3h3.2l0,5.2h2.2
	c3.7,0,5.7,2.3,5.7,4.9c0,2.6-1.9,5.3-5.6,5.3H275.2z"/>
<path d="M152.2,112.3c0,1.3-1.1,2.1-2.3,2.1c-1,0-1.5-0.4-1.8-0.8v-8v0v0v0v0v0v0v0v0v0v0v0v0v0v0v0v0v0v0v0v0v0v0v0v0v0v0v0v0v0v0
	v0v0v0v0v0v0v0v0v0v0v0v0v0v0v0v0v0v0v0v0v0v0v0v0v0v0v0v0v0v0v0v0v0v0c0.3-0.5,1.2-0.9,2-0.9c1.2,0,2.1,0.9,2.1,2.2V112.3z
	 M144.9,105.2L144.9,105.2L144.9,105.2L144.9,105.2L144.9,105.2L144.9,105.2L144.9,105.2L144.9,105.2L144.9,105.2L144.9,105.2
	L144.9,105.2L144.9,105.2L144.9,105.2v0.1v0v0v0v0v0v0v0v0v0v0v0v0v0v0v0v0v0v0v0v0v0v0v0v0v0v0v0v0v0v0v0v0v0v0v0v0v0v0v0v0v0v0v0
	v0v0v0v0v0v0v0v0v8c-0.3,0.5-0.9,0.8-1.8,0.8c-1.2,0-2.3-0.8-2.3-2.1v-5.8c0-1.3,0.9-2.2,2.1-2.2
	C143.7,104.3,144.7,104.7,144.9,105.2z M155.4,112v-5.3c0-3.3-1.5-5.2-4.8-5.2c-0.9,0-1.9,0.3-2.5,0.7v-2.9h-3.2v2.9
	c-0.7-0.4-1.6-0.7-2.5-0.7c-3.3,0-4.8,1.9-4.8,5.2v5.3c0,3.4,2.1,5.3,5.1,5.3c0.7,0,1.9-0.4,2.3-0.7v5.3h3.2v-5.3
	c0.3,0.3,1.5,0.7,2.3,0.7C153.3,117.3,155.4,115.4,155.4,112z"/>
<path d="M166.1,106.1v1.9h-4.7v-1.7c0-1.4,1.2-2.1,2.5-2.1C164.8,104.2,166.1,104.7,166.1,106.1 M169.7,115.3l-1.3-2.4
	c-1.5,1.2-3,1.6-4.2,1.6c-1.5,0-2.7-0.8-2.7-2.5v-1.4h7.9v-3.7c0-3.9-2.5-5.4-5.4-5.4c-3.4,0-5.7,1.7-5.7,5.6v5.1
	c0,3.4,2.2,5.1,5.7,5.1C166.3,117.3,167.9,116.5,169.7,115.3z"/>
<path d="M175.9,114.5c0.8-0.9,1.3-2.5,1.2-4.1v-5.9h4.4l0,10.1H175.9z M184.6,114.5v-12.7h-10.5v8.4c0,1.9-1.1,4.2-2.8,4.3H171v6.3
	h3v-3.7h9.2v3.7h3.1v-6.3H184.6z"/>
<polygon points="272,117 272,101.8 268.8,101.8 268.8,107.7 262.5,107.7 262.5,101.8 259.5,101.8 259.5,117 262.5,117 262.5,110.3 
	268.8,110.3 268.8,117 "/>
<path d="M211,112.3c0,1.3-1.3,2.1-2.5,2.1c-1,0-2.2-0.4-2.8-0.8v-8v-0.3c0.7-0.7,2.1-1.1,3-1.1c1.2,0,2.4,0.9,2.4,2.2V112.3z
	 M214.2,112v-5.3c0-3.3-1.8-5.2-5.1-5.2c-1.2,0-3.4,0.5-4.2,1.2c-0.3-0.5-0.6-1-1.2-1.2l-2,1.8c0.7,0.5,0.8,1.5,0.8,1.9V122h3.2
	v-5.3c1,0.5,2.5,0.7,3.2,0.7C211.9,117.3,214.2,115.4,214.2,112z"/>
<path d="M224.3,113.6c-1.2,1.5-4.6,1.7-4.7-0.8c0-1.1,0.7-2.4,2.4-2.4l2.3,0V113.6z M242.8,117.1v-15.3h-10.5v9.5
	c0,1.9-1.2,3.5-2.9,3.6c-0.8,0-2-0.5-2-1.7v-6.5c0-3.2-1.7-5.2-5.2-5.2c-2.4,0-4.3,1-5.3,2.1l1.7,2.1c1.1-1,2.6-1.4,3.3-1.4
	c1.1,0,2.4,0.5,2.4,1.9v1.6h-2.6c-3.7,0-5.3,2.4-5.3,4.8c0,2.4,1.3,4.7,5.1,4.7c1.1,0,2.6-0.6,3.5-1.5c1.5,1.4,2.9,1.6,4.5,1.6
	c3.6-0.1,5.9-2.1,5.8-6.3v-6.8h4.4l0,12.7H242.8z"/>
<path d="M249.2,114.5l2.7,0c1.4,0,2-1.5,2-2.6c0-1-0.6-2.3-2-2.3h-2.6V114.5z M246.1,117.1v-15.3h3.2l0,5.2h2.2
	c3.7,0,5.7,2.3,5.7,4.9c0,2.6-1.9,5.3-5.6,5.3H246.1z"/>
<path d="M196.3,106.1v1.9h-4.7v-1.7c0-1.4,1.2-2.1,2.5-2.1C194.9,104.2,196.3,104.7,196.3,106.1 M199.8,115.3l-1.3-2.4
	c-1.5,1.2-3,1.6-4.2,1.6c-1.5,0-2.7-0.8-2.7-2.5v-1.4h7.9v-3.7c0-3.9-2.5-5.4-5.4-5.4c-3.4,0-5.7,1.7-5.7,5.6v5.1
	c0,3.4,2.2,5.1,5.7,5.1C196.5,117.3,198,116.5,199.8,115.3z"/>
<path d="M150.7,127.7h-3.5l-3.1,11.9c0,0,0-0.9-0.3-2.2l-2.7-9.7l-3.5,0c0,0,4.1,12.9,5.1,15.2c-0.5,2-1.6,3.3-3.9,3.6l0.3,2.3
	c3.5,0,5.5-1.9,6.2-4.2L150.7,127.7z"/>
<polygon points="165.1,143 165.1,127.7 162,127.7 162,133.7 155.7,133.7 155.7,127.7 152.7,127.7 152.7,143 155.7,143 155.7,136.3 
	162,136.3 162,143 "/>
<polygon points="180.9,143 180.9,127.7 177.7,127.7 171.4,138.1 171.4,127.7 168.4,127.7 168.4,143 171.4,143 171.5,143 
	177.7,132.6 177.7,143 "/>
<path d="M187.2,140.3l2.7,0c1.4,0,2-1.1,2-2.1c0-1-0.6-1.9-2-1.9h-2.6V140.3z M187.2,130.4v3.3h2.3c1.3,0,1.6-0.9,1.6-1.6
	c0-0.8-0.5-1.7-1.6-1.7L187.2,130.4z M184.1,143v-15.3h5.5c3.8,0,4.9,2.3,4.9,4c-0.1,1.7-1,2.6-1.9,3.1c0.9,0.3,2.6,1.4,2.6,3.6
	c0,2.2-1.6,4.5-5.4,4.5H184.1z"/>
<polygon points="253.6,127.7 253.6,130.3 257.4,130.3 257.4,143 257.6,143 260.5,143 260.8,143 260.7,130.3 264.6,130.3 
	264.6,127.7 "/>
<polygon points="279,127.7 279,130.3 282.8,130.3 282.8,143 283,143 285.9,143 286.1,143 286.1,130.3 290,130.3 290,127.7 "/>
<polygon points="251.3,143 251.3,127.7 248.2,127.7 241.9,138.1 241.9,127.7 238.8,127.7 238.8,143 241.9,143 241.9,143 
	248.2,132.6 248.2,143 "/>
<path d="M220,138.2c0,1.3-1.3,2.1-2.5,2.1c-1,0-2.2-0.4-2.8-0.8v-8v-0.3c0.7-0.7,2.1-1.1,3-1.1c1.2,0,2.4,0.9,2.4,2.2V138.2z
	 M223.2,137.9v-5.3c0-3.3-1.8-5.2-5.1-5.2c-1.2,0-3.4,0.5-4.2,1.2c-0.3-0.5-0.6-1-1.2-1.2l-2,1.8c0.7,0.5,0.8,1.5,0.8,1.9v16.8h3.2
	v-5.3c1,0.5,2.5,0.7,3.2,0.7C220.9,143.2,223.2,141.4,223.2,137.9z"/>
<path d="M236.8,141.2l-1.3-2.3c-1.8,1.3-2.9,1.6-3.8,1.6c-1.3,0-2.5-0.7-2.5-2v-5.9c0-1.4,1.3-2.3,2.7-2.3c0.9,0,2.2,0.6,3.1,1.6
	l1.6-2.1c-1.1-1.4-2.7-2.4-5.1-2.4c-3.1,0-5.6,1.9-5.6,5.2v5.7c0,3.3,2.5,4.8,5.6,4.8C234.1,143.2,235.9,142,236.8,141.2"/>
<path d="M274.2,132v1.9h-4.7v-1.7c0-1.4,1.2-2.1,2.5-2.1C272.8,130.1,274.2,130.6,274.2,132 M277.7,141.2l-1.3-2.4
	c-1.5,1.2-3,1.6-4.2,1.6c-1.5,0-2.7-0.8-2.7-2.5v-1.4h7.9v-3.7c0-3.9-2.5-5.4-5.4-5.4c-3.4,0-5.7,1.7-5.7,5.6v5.1
	c0,3.4,2.2,5.1,5.6,5.1C274.4,143.2,275.9,142.4,277.7,141.2z"/>
<path d="M205.3,132v1.9h-4.7v-1.7c0-1.4,1.2-2.1,2.5-2.1C204,130.1,205.3,130.6,205.3,132 M208.9,141.2l-1.3-2.4
	c-1.5,1.2-3,1.6-4.2,1.6c-1.5,0-2.7-0.8-2.7-2.5v-1.4h7.9v-3.7c0-3.9-2.5-5.4-5.4-5.4c-3.4,0-5.7,1.7-5.7,5.6v5.1
	c0,3.4,2.2,5.1,5.6,5.1C205.5,143.2,207.1,142.4,208.9,141.2z"/>
<path d="M253.9,178.1h-3.4v3.6h-1.3v-7.9h1.3v3.3h3.4v-3.3h1.3v7.9h-1.3V178.1z M246.4,175.8l-0.7,1.3l-2.6,4.5h-1.2v-7.9h1.2v5.8
	l0.1,0l0.8-1.4l2.6-4.4h1.2v7.9h-1.2L246.4,175.8L246.4,175.8z M235.3,180.5h3.3v-6.8h1.3v6.8l0.9,0l0,3.4h-1.1l0-2.4h-5.5v-7.9h1.3
	V180.5z M226.8,173.7h1.2v3.2h2c0.3,0,0.5,0,0.8,0.1c0.3,0.1,0.6,0.2,0.8,0.3c0.3,0.2,0.5,0.4,0.6,0.7c0.2,0.3,0.2,0.7,0.2,1.2
	c0,0.4-0.1,0.8-0.3,1.1c-0.2,0.3-0.4,0.6-0.6,0.7c-0.3,0.2-0.5,0.3-0.8,0.4c-0.3,0.1-0.6,0.1-0.8,0.1h-3.2V173.7z M230,180.5
	c0.1,0,0.3,0,0.5-0.1c0.2,0,0.3-0.1,0.5-0.2c0.1-0.1,0.3-0.2,0.4-0.4c0.1-0.2,0.1-0.4,0.1-0.6c0-0.2,0-0.4-0.1-0.6
	c-0.1-0.2-0.2-0.3-0.3-0.4c-0.1-0.1-0.3-0.2-0.5-0.2c-0.2,0-0.4-0.1-0.6-0.1h-1.8v2.5H230z M221.3,174.8v1.8c0,0.8,0,1.5-0.1,2.1
	c-0.1,0.6-0.2,1.1-0.4,1.5c-0.2,0.4-0.4,0.8-0.7,1c-0.3,0.3-0.6,0.5-1.1,0.8l-0.5-0.9c0.3-0.3,0.6-0.5,0.8-0.8
	c0.2-0.2,0.4-0.5,0.5-0.8c0.1-0.3,0.2-0.7,0.2-1.1c0-0.4,0.1-1,0.1-1.6v-3.1h4.9v7.9h-1.3v-6.8H221.3z M212.3,170.3h5.8v1.2h-4.5
	v3.6h3.9v1.2h-3.9v4.1h4.5v1.2h-5.8V170.3z M208.3,181.8c-0.3,0-0.5-0.1-0.7-0.3c-0.2-0.2-0.3-0.4-0.3-0.7c0-0.3,0.1-0.5,0.3-0.7
	c0.2-0.2,0.4-0.3,0.7-0.3c0.3,0,0.5,0.1,0.7,0.3c0.2,0.2,0.3,0.4,0.3,0.7c0,0.3-0.1,0.5-0.3,0.7
	C208.9,181.7,208.6,181.8,208.3,181.8z M204.3,176.4H200v5.3h-1.4v-11.3h1.4v4.8h4.3v-4.8h1.4v11.3h-1.4V176.4z M194.7,181.8
	c-0.3,0-0.5-0.1-0.7-0.3c-0.2-0.2-0.3-0.4-0.3-0.7c0-0.3,0.1-0.5,0.3-0.7c0.2-0.2,0.4-0.3,0.7-0.3c0.3,0,0.5,0.1,0.7,0.3
	c0.2,0.2,0.3,0.4,0.3,0.7c0,0.3-0.1,0.5-0.3,0.7C195.2,181.7,195,181.8,194.7,181.8z M188.6,180.5c0.2,0,0.5,0,0.8-0.1
	c0.3-0.1,0.5-0.2,0.7-0.4c0.2-0.2,0.4-0.4,0.6-0.7c0.1-0.3,0.2-0.6,0.2-1c0-0.4-0.1-0.7-0.2-1c-0.1-0.3-0.3-0.5-0.6-0.6
	c-0.2-0.1-0.5-0.3-0.8-0.3c-0.3-0.1-0.6-0.1-0.9-0.1h-1.7v4.2H188.6z M185.4,170.3h5.8v1.2h-4.4v3.5h2.1c0.3,0,0.7,0,1.1,0.1
	c0.4,0.1,0.8,0.2,1.1,0.5c0.4,0.2,0.6,0.6,0.9,1c0.2,0.4,0.4,1,0.4,1.7c0,0.7-0.1,1.2-0.4,1.7c-0.3,0.4-0.6,0.8-0.9,1
	c-0.4,0.2-0.8,0.4-1.2,0.5c-0.4,0.1-0.8,0.1-1.1,0.1h-3.3V170.3z M178.4,175.8l-0.7,1.3l-2.6,4.5h-1.2v-7.9h1.2v5.8l0.1,0l0.8-1.4
	l2.6-4.4h1.2v7.9h-1.2L178.4,175.8L178.4,175.8z M171.1,175.8l-0.7,1.3l-2.6,4.5h-1.2v-7.9h1.2v5.8l0.1,0l0.8-1.4l2.6-4.4h1.2v7.9
	h-1.2L171.1,175.8L171.1,175.8z M163,181.9c-1,0-1.8-0.4-2.3-1.1c-0.5-0.7-0.8-1.7-0.8-2.9c0-0.7,0.1-1.3,0.2-1.8
	c0.2-0.6,0.4-1,0.7-1.4c0.3-0.4,0.6-0.7,1-0.9c0.4-0.2,0.9-0.3,1.4-0.3c0.5,0,0.9,0,1.4,0.1c0.4,0.1,0.8,0.2,1.1,0.4l-0.3,0.9
	c-0.3-0.1-0.6-0.2-0.9-0.3c-0.4-0.1-0.7-0.1-1.1-0.1c-0.7,0-1.2,0.3-1.5,0.8c-0.3,0.6-0.5,1.3-0.5,2.2c0,0.4,0,0.7,0.1,1.1
	c0,0.4,0.1,0.7,0.3,1c0.1,0.3,0.3,0.5,0.6,0.7c0.2,0.2,0.6,0.3,1,0.3c0.4,0,0.8,0,1.2-0.1c0.4-0.1,0.7-0.2,1-0.3l0.3,1
	c-0.3,0.2-0.7,0.3-1.1,0.4C164.2,181.8,163.6,181.9,163,181.9z M156.5,181.9c-1,0-1.8-0.4-2.3-1.1c-0.6-0.7-0.8-1.7-0.8-2.9
	c0-0.7,0.1-1.3,0.2-1.8c0.2-0.6,0.4-1,0.7-1.4c0.3-0.4,0.6-0.7,1-0.9c0.4-0.2,0.9-0.3,1.4-0.3c0.5,0,0.9,0,1.4,0.1
	c0.4,0.1,0.8,0.2,1.1,0.4l-0.3,0.9c-0.3-0.1-0.6-0.2-0.9-0.3c-0.4-0.1-0.7-0.1-1.1-0.1c-0.7,0-1.2,0.3-1.5,0.8
	c-0.3,0.6-0.5,1.3-0.5,2.2c0,0.4,0,0.7,0.1,1.1c0,0.4,0.1,0.7,0.3,1c0.1,0.3,0.3,0.5,0.6,0.7c0.2,0.2,0.6,0.3,1,0.3
	c0.4,0,0.8,0,1.2-0.1c0.4-0.1,0.7-0.2,1-0.3l0.3,1c-0.3,0.2-0.7,0.3-1.1,0.4C157.6,181.8,157.1,181.9,156.5,181.9z M148.9,174.5
	c-0.4,0-0.7,0.1-0.9,0.2c-0.2,0.2-0.4,0.4-0.6,0.7c-0.1,0.3-0.2,0.6-0.3,1c-0.1,0.4-0.1,0.8-0.1,1.2c0,0.5,0,0.9,0.1,1.3
	c0.1,0.4,0.2,0.7,0.3,1c0.1,0.3,0.3,0.5,0.6,0.7c0.2,0.2,0.5,0.2,0.9,0.2c0.4,0,0.7-0.1,0.9-0.2c0.2-0.2,0.4-0.4,0.6-0.7
	c0.1-0.3,0.2-0.6,0.3-1c0.1-0.4,0.1-0.8,0.1-1.3c0-0.4,0-0.8-0.1-1.2c-0.1-0.4-0.2-0.7-0.3-1c-0.1-0.3-0.3-0.5-0.6-0.7
	C149.5,174.6,149.2,174.5,148.9,174.5z M148.8,181.9c-0.6,0-1.1-0.1-1.5-0.3c-0.4-0.2-0.7-0.5-1-0.9c-0.3-0.4-0.4-0.8-0.6-1.3
	c-0.1-0.5-0.2-1-0.2-1.6c0-0.5,0.1-1.1,0.2-1.6c0.1-0.5,0.3-1,0.6-1.4c0.3-0.4,0.6-0.7,1-0.9c0.4-0.2,0.9-0.3,1.5-0.3
	c0.6,0,1.1,0.1,1.5,0.3c0.4,0.2,0.7,0.5,1,0.9c0.3,0.4,0.4,0.8,0.6,1.3c0.1,0.5,0.2,1,0.2,1.6c0,0.6-0.1,1.1-0.2,1.6
	c-0.1,0.5-0.3,1-0.6,1.4c-0.3,0.4-0.6,0.7-1,0.9C149.9,181.8,149.4,181.9,148.8,181.9z M140.2,171.5v4.2h1.2c0.3,0,0.6,0,0.9-0.1
	c0.3,0,0.5-0.1,0.7-0.3c0.2-0.1,0.4-0.4,0.5-0.7c0.1-0.3,0.2-0.7,0.2-1.2c0-0.5-0.1-0.8-0.2-1.1c-0.1-0.3-0.3-0.5-0.5-0.6
	c-0.2-0.1-0.4-0.2-0.7-0.2c-0.2,0-0.5,0-0.7,0H140.2z M140.2,176.9v4.7h-1.4v-11.3h2.8c0.3,0,0.7,0,1.1,0.1c0.4,0.1,0.8,0.2,1.1,0.4
	c0.4,0.2,0.6,0.5,0.9,0.9c0.2,0.4,0.4,1,0.4,1.7c0,0.7-0.1,1.3-0.3,1.7c-0.2,0.4-0.5,0.8-0.9,1c-0.3,0.3-0.7,0.4-1.2,0.5
	c-0.4,0.1-0.9,0.1-1.3,0.1H140.2z M305.4,162.2c-0.3,0-0.6,0-0.9,0.1c-0.4,0-0.7,0.1-1,0.2c-0.3,0.1-0.6,0.3-0.8,0.5
	c-0.2,0.2-0.3,0.5-0.3,0.9c0,0.4,0.1,0.7,0.2,1c0.2,0.2,0.4,0.3,0.9,0.3c0.1,0,0.3,0,0.5-0.1c0.2-0.1,0.4-0.1,0.6-0.2
	c0.2-0.1,0.4-0.2,0.5-0.3c0.2-0.1,0.3-0.2,0.4-0.3V162.2z M307.5,166.1c-0.2,0.1-0.4,0.1-0.6,0.2c-0.2,0-0.4,0.1-0.6,0.1
	c-0.2,0-0.4,0-0.5-0.1c-0.1-0.1-0.2-0.3-0.3-0.6l-0.1-0.3l-0.9,0.6c-0.3,0.2-0.5,0.3-0.7,0.4c-0.2,0.1-0.4,0.1-0.5,0.1
	c-0.5,0-0.9-0.1-1.2-0.2c-0.3-0.2-0.5-0.4-0.7-0.6c-0.2-0.2-0.3-0.5-0.3-0.8c0-0.3-0.1-0.5-0.1-0.7c0-0.5,0.1-0.9,0.3-1.3
	c0.2-0.3,0.5-0.6,0.9-0.8c0.4-0.2,0.8-0.4,1.4-0.5c0.5-0.1,1.1-0.2,1.7-0.2v-0.6c0-0.5-0.1-0.8-0.3-1.1c-0.2-0.3-0.6-0.4-1.2-0.4
	c-0.4,0-0.8,0-1.1,0.1c-0.3,0.1-0.7,0.2-0.9,0.3l-0.3-0.9c0.4-0.2,0.8-0.4,1.2-0.5c0.4-0.1,0.9-0.2,1.3-0.2c0.9,0,1.6,0.2,2,0.6
	c0.4,0.4,0.6,1,0.6,1.7v4.9h0.8V166.1z M298.3,166.2H297v-6.8h-2.1v-1.1h5.6v1.1h-2.2V166.2z M292.6,162.6h-3.4v3.6H288v-7.9h1.3
	v3.3h3.4v-3.3h1.3v7.9h-1.3V162.6z M283.7,159.1c-0.3,0-0.6,0.1-0.8,0.2c-0.2,0.1-0.4,0.3-0.5,0.6c-0.1,0.2-0.2,0.5-0.3,0.8
	c-0.1,0.3-0.1,0.5-0.1,0.8h3.4c0-0.3,0-0.7-0.1-0.9c0-0.3-0.1-0.5-0.3-0.7c-0.1-0.2-0.3-0.4-0.5-0.5
	C284.3,159.2,284,159.1,283.7,159.1z M282,162.5c0,0.3,0,0.7,0.1,1c0,0.3,0.1,0.6,0.3,0.9c0.1,0.3,0.4,0.5,0.6,0.7
	c0.3,0.2,0.7,0.3,1.2,0.3c0.3,0,0.7,0,1.1-0.1c0.4-0.1,0.8-0.2,1.2-0.3l0.4,0.9c-0.4,0.2-0.8,0.3-1.2,0.4c-0.4,0.1-0.9,0.2-1.5,0.2
	c-0.7,0-1.3-0.1-1.7-0.3c-0.4-0.2-0.8-0.5-1.1-0.9c-0.3-0.4-0.4-0.8-0.5-1.3c-0.1-0.5-0.1-1.1-0.1-1.6c0-0.4,0-0.8,0.1-1.3
	c0.1-0.5,0.2-1,0.4-1.4c0.2-0.4,0.5-0.8,0.9-1.1c0.4-0.3,1-0.5,1.6-0.5c0.7,0,1.3,0.1,1.7,0.4c0.4,0.2,0.7,0.6,0.9,1
	c0.2,0.4,0.3,0.9,0.4,1.4c0,0.5,0.1,1.1,0.1,1.7H282z M273.2,168.6H272l0-3.5l0.7,0c0.1-0.1,0.3-0.3,0.4-0.5
	c0.1-0.2,0.2-0.4,0.3-0.7c0.1-0.3,0.1-0.6,0.2-0.9c0-0.4,0.1-0.8,0.1-1.3l0.2-3.4h5.1v6.8l0.8,0l0,3.4h-1.2l0-2.4h-5.3L273.2,168.6z
	 M275,159.4l-0.1,2.2c0,0.4,0,0.8-0.1,1.2c0,0.3-0.1,0.7-0.1,0.9c-0.1,0.3-0.1,0.5-0.2,0.8c-0.1,0.2-0.2,0.4-0.3,0.6h3.6v-5.7H275z
	 M269.8,160.4l-0.7,1.3l-2.6,4.5h-1.2v-7.9h1.2v5.8l0.1,0l0.8-1.5l2.6-4.4h1.2v7.9h-1.2L269.8,160.4L269.8,160.4z M260.7,166.4
	c-0.6,0-1.1-0.1-1.5-0.2c-0.4-0.1-0.8-0.3-1.1-0.5l0.5-0.8c0.3,0.1,0.6,0.3,1,0.4c0.4,0.1,0.7,0.1,1.1,0.1c0.5,0,1-0.1,1.3-0.3
	c0.3-0.2,0.5-0.6,0.5-1.1c0-0.1,0-0.3-0.1-0.4c0-0.2-0.1-0.3-0.2-0.4c-0.1-0.1-0.3-0.3-0.5-0.3c-0.2-0.1-0.5-0.1-0.8-0.1h-1.1v-1
	h1.2c0.9,0,1.4-0.4,1.4-1.3c0-0.1,0-0.3-0.1-0.4c0-0.1-0.1-0.3-0.2-0.4c-0.1-0.1-0.3-0.2-0.5-0.3c-0.2-0.1-0.5-0.1-0.8-0.1
	c-0.1,0-0.2,0-0.4,0c-0.2,0-0.3,0.1-0.5,0.1c-0.2,0-0.3,0.1-0.5,0.2c-0.2,0.1-0.3,0.1-0.5,0.2l-0.5-0.9c0.5-0.3,1-0.5,1.4-0.6
	c0.4-0.1,0.9-0.1,1.3-0.1c0.5,0,0.9,0.1,1.2,0.2c0.3,0.1,0.6,0.3,0.8,0.5c0.2,0.2,0.3,0.4,0.4,0.7c0.1,0.3,0.1,0.5,0.1,0.8
	c0,0.5-0.1,0.8-0.3,1.1c-0.2,0.3-0.5,0.5-0.8,0.6c0.5,0.2,0.8,0.4,1,0.7c0.2,0.3,0.3,0.7,0.3,1.2c0,0.4-0.1,0.8-0.2,1.1
	c-0.2,0.3-0.4,0.6-0.6,0.8c-0.3,0.2-0.6,0.4-1,0.5C261.6,166.3,261.2,166.4,260.7,166.4z M254.5,159.1c-0.3,0-0.6,0.1-0.8,0.2
	c-0.2,0.1-0.4,0.3-0.5,0.6c-0.1,0.2-0.2,0.5-0.3,0.8c-0.1,0.3-0.1,0.5-0.1,0.8h3.4c0-0.3,0-0.7-0.1-0.9c0-0.3-0.1-0.5-0.3-0.7
	c-0.1-0.2-0.3-0.4-0.5-0.5C255.1,159.2,254.8,159.1,254.5,159.1z M252.8,162.5c0,0.3,0,0.7,0,1c0,0.3,0.1,0.6,0.3,0.9
	c0.1,0.3,0.4,0.5,0.6,0.7c0.3,0.2,0.7,0.3,1.2,0.3c0.3,0,0.7,0,1.1-0.1c0.4-0.1,0.8-0.2,1.2-0.3l0.4,0.9c-0.4,0.2-0.8,0.3-1.2,0.4
	c-0.4,0.1-0.9,0.2-1.5,0.2c-0.7,0-1.3-0.1-1.7-0.3c-0.4-0.2-0.8-0.5-1.1-0.9c-0.3-0.4-0.4-0.8-0.5-1.3c-0.1-0.5-0.1-1.1-0.1-1.6
	c0-0.4,0-0.8,0.1-1.3c0.1-0.5,0.2-1,0.4-1.4c0.2-0.4,0.5-0.8,0.9-1.1c0.4-0.3,1-0.5,1.7-0.5c0.7,0,1.3,0.1,1.7,0.4
	c0.4,0.2,0.7,0.6,0.9,1c0.2,0.4,0.3,0.9,0.4,1.4c0,0.5,0.1,1.1,0.1,1.7H252.8z M245.4,164.7c0.3,0.2,0.5,0.3,0.9,0.5
	c0.3,0.2,0.7,0.2,1,0.2c0.4,0,0.6-0.1,0.9-0.3c0.2-0.2,0.4-0.5,0.4-0.8c0.1-0.3,0.1-0.7,0.2-1c0-0.4,0-0.7,0-0.9
	c0-0.5,0-0.9-0.1-1.3c0-0.4-0.1-0.7-0.2-0.9c-0.1-0.3-0.3-0.4-0.5-0.6c-0.2-0.1-0.5-0.2-0.8-0.2c-0.2,0-0.3,0-0.5,0.1
	c-0.2,0.1-0.3,0.1-0.5,0.2c-0.2,0.1-0.3,0.2-0.5,0.3c-0.1,0.1-0.3,0.2-0.4,0.3V164.7z M245.1,158.3l0.3,0.8l0.8-0.5
	c0.5-0.4,1-0.5,1.3-0.5c0.5,0,1,0.1,1.3,0.4c0.3,0.2,0.6,0.6,0.8,1c0.2,0.4,0.3,0.8,0.4,1.4c0.1,0.5,0.1,1,0.1,1.6
	c0,0.5,0,0.9-0.1,1.4c-0.1,0.5-0.2,0.9-0.4,1.3c-0.2,0.4-0.5,0.7-0.9,1c-0.4,0.3-0.8,0.4-1.4,0.4c-0.3,0-0.6-0.1-0.9-0.2
	c-0.4-0.1-0.7-0.3-1-0.6v3.8h-1.3v-11.2H245.1z M241,156.1h-4.2v10.1h-1.4v-11.3h6.9v11.3H241V156.1z M226.7,159.1
	c-0.4,0-0.7,0.1-0.9,0.2c-0.2,0.2-0.4,0.4-0.6,0.7c-0.1,0.3-0.2,0.6-0.3,1c-0.1,0.4-0.1,0.8-0.1,1.2c0,0.5,0,0.9,0.1,1.3
	c0.1,0.4,0.2,0.7,0.3,1c0.1,0.3,0.3,0.5,0.6,0.7c0.2,0.2,0.5,0.2,0.9,0.2c0.4,0,0.7-0.1,0.9-0.2c0.2-0.2,0.4-0.4,0.6-0.7
	c0.1-0.3,0.2-0.6,0.3-1c0.1-0.4,0.1-0.8,0.1-1.3c0-0.4,0-0.8-0.1-1.2c-0.1-0.4-0.2-0.7-0.3-1c-0.1-0.3-0.3-0.5-0.6-0.7
	C227.4,159.2,227.1,159.1,226.7,159.1z M226.6,166.4c-0.6,0-1.1-0.1-1.5-0.3c-0.4-0.2-0.7-0.5-1-0.9c-0.3-0.4-0.4-0.8-0.6-1.3
	c-0.1-0.5-0.2-1.1-0.2-1.6c0-0.6,0.1-1.1,0.2-1.6c0.1-0.5,0.3-1,0.6-1.4c0.3-0.4,0.6-0.7,1-0.9c0.4-0.2,0.9-0.3,1.5-0.3
	c0.6,0,1.1,0.1,1.5,0.3c0.4,0.2,0.7,0.5,1,0.9c0.3,0.4,0.4,0.8,0.6,1.3c0.1,0.5,0.2,1,0.2,1.6c0,0.6-0.1,1.1-0.2,1.6
	c-0.1,0.5-0.3,1-0.6,1.4c-0.3,0.4-0.6,0.7-1,0.9C227.8,166.3,227.2,166.4,226.6,166.4z M219.2,166.2h-1.3v-7.9h4.9v1.1h-3.6V166.2z
	 M213.3,159.1c-0.4,0-0.7,0.1-0.9,0.2c-0.2,0.2-0.4,0.4-0.6,0.7c-0.1,0.3-0.2,0.6-0.3,1c-0.1,0.4-0.1,0.8-0.1,1.2
	c0,0.5,0,0.9,0.1,1.3c0.1,0.4,0.2,0.7,0.3,1c0.1,0.3,0.3,0.5,0.6,0.7c0.2,0.2,0.5,0.2,0.9,0.2c0.4,0,0.7-0.1,0.9-0.2
	c0.2-0.2,0.4-0.4,0.6-0.7c0.1-0.3,0.2-0.6,0.3-1c0.1-0.4,0.1-0.8,0.1-1.3c0-0.4,0-0.8-0.1-1.2c-0.1-0.4-0.2-0.7-0.3-1
	c-0.1-0.3-0.3-0.5-0.6-0.7C214,159.2,213.7,159.1,213.3,159.1z M213.2,166.4c-0.6,0-1.1-0.1-1.5-0.3c-0.4-0.2-0.7-0.5-1-0.9
	c-0.3-0.4-0.4-0.8-0.6-1.3c-0.1-0.5-0.2-1.1-0.2-1.6c0-0.6,0.1-1.1,0.2-1.6c0.1-0.5,0.3-1,0.6-1.4c0.3-0.4,0.6-0.7,1-0.9
	c0.4-0.2,0.9-0.3,1.5-0.3c0.6,0,1.1,0.1,1.5,0.3c0.4,0.2,0.7,0.5,1,0.9c0.3,0.4,0.4,0.8,0.6,1.3c0.1,0.5,0.2,1,0.2,1.6
	c0,0.6-0.1,1.1-0.2,1.6c-0.1,0.5-0.3,1-0.6,1.4c-0.3,0.4-0.6,0.7-1,0.9C214.3,166.3,213.8,166.4,213.2,166.4z M207.3,160.3
	c0-0.2,0-0.4-0.1-0.5c-0.1-0.1-0.2-0.2-0.3-0.3c-0.1-0.1-0.2-0.1-0.4-0.1c-0.1,0-0.2,0-0.3,0h-1.9v2.1h1.8
	C206.9,161.5,207.3,161.1,207.3,160.3z M207.6,163.9c0-0.5-0.1-0.8-0.4-1c-0.3-0.2-0.6-0.3-1.1-0.3h-1.9v2.6h2c0.2,0,0.3,0,0.5-0.1
	c0.2,0,0.3-0.1,0.4-0.2c0.1-0.1,0.2-0.2,0.3-0.4C207.6,164.3,207.6,164.1,207.6,163.9z M208.9,163.9c0,0.7-0.2,1.2-0.7,1.7
	c-0.4,0.4-1.1,0.7-1.9,0.7H203v-7.9h3.2c0.7,0,1.3,0.2,1.7,0.5c0.4,0.3,0.7,0.8,0.7,1.5c0,0.4-0.1,0.7-0.3,1
	c-0.2,0.3-0.5,0.6-0.8,0.7c0.5,0.1,0.9,0.3,1.1,0.7C208.8,163,208.9,163.4,208.9,163.9z M196.8,164.7c0.3,0.2,0.5,0.3,0.9,0.5
	c0.3,0.2,0.7,0.2,1,0.2c0.4,0,0.6-0.1,0.8-0.3c0.2-0.2,0.4-0.5,0.4-0.8c0.1-0.3,0.1-0.7,0.2-1c0-0.4,0-0.7,0-0.9
	c0-0.5,0-0.9-0.1-1.3c0-0.4-0.1-0.7-0.2-0.9c-0.1-0.3-0.3-0.4-0.5-0.6c-0.2-0.1-0.5-0.2-0.8-0.2c-0.2,0-0.3,0-0.5,0.1
	c-0.2,0.1-0.3,0.1-0.5,0.2c-0.2,0.1-0.3,0.2-0.5,0.3c-0.1,0.1-0.3,0.2-0.4,0.3V164.7z M196.4,158.3l0.3,0.8l0.8-0.5
	c0.5-0.4,1-0.5,1.3-0.5c0.5,0,1,0.1,1.3,0.4c0.3,0.2,0.6,0.6,0.8,1c0.2,0.4,0.3,0.8,0.4,1.4c0.1,0.5,0.1,1,0.1,1.6
	c0,0.5,0,0.9-0.1,1.4c-0.1,0.5-0.2,0.9-0.4,1.3c-0.2,0.4-0.5,0.7-0.9,1c-0.4,0.3-0.8,0.4-1.4,0.4c-0.3,0-0.6-0.1-0.9-0.2
	c-0.4-0.1-0.7-0.3-1-0.6v3.8h-1.3v-11.2H196.4z M191,159.1c-0.3,0-0.6,0.1-0.8,0.2c-0.2,0.1-0.4,0.3-0.5,0.6
	c-0.1,0.2-0.2,0.5-0.3,0.8c-0.1,0.3-0.1,0.5-0.1,0.8h3.4c0-0.3,0-0.7-0.1-0.9c0-0.3-0.1-0.5-0.3-0.7c-0.1-0.2-0.3-0.4-0.5-0.5
	C191.7,159.2,191.4,159.1,191,159.1z M189.3,162.5c0,0.3,0,0.7,0.1,1c0,0.3,0.1,0.6,0.3,0.9c0.1,0.3,0.4,0.5,0.6,0.7
	c0.3,0.2,0.7,0.3,1.2,0.3c0.3,0,0.7,0,1.1-0.1c0.4-0.1,0.8-0.2,1.2-0.3l0.4,0.9c-0.4,0.2-0.8,0.3-1.2,0.4c-0.4,0.1-0.9,0.2-1.5,0.2
	c-0.7,0-1.3-0.1-1.7-0.3c-0.4-0.2-0.8-0.5-1.1-0.9c-0.3-0.4-0.4-0.8-0.5-1.3c-0.1-0.5-0.1-1.1-0.1-1.6c0-0.4,0-0.8,0.1-1.3
	c0.1-0.5,0.2-1,0.4-1.4c0.2-0.4,0.5-0.8,0.9-1.1c0.4-0.3,1-0.5,1.6-0.5c0.7,0,1.3,0.1,1.7,0.4c0.4,0.2,0.7,0.6,0.9,1
	c0.2,0.4,0.3,0.9,0.4,1.4c0,0.5,0.1,1.1,0.1,1.7H189.3z M185.2,159.3H182v6.8h-1.3v-7.9h5.8v7.9h-1.3V159.3z M174.1,160.4l-0.7,1.3
	l-2.6,4.5h-1.2v-7.9h1.2v5.8l0.1,0l0.8-1.5l2.6-4.4h1.2v7.9h-1.2L174.1,160.4L174.1,160.4z M166.8,162.6h-3.4v3.6h-1.3v-7.9h1.3v3.3
	h3.4v-3.3h1.3v7.9h-1.3V162.6z M157.9,159.1c-0.3,0-0.6,0.1-0.8,0.2c-0.2,0.1-0.4,0.3-0.5,0.6c-0.1,0.2-0.2,0.5-0.3,0.8
	c-0.1,0.3-0.1,0.5-0.1,0.8h3.4c0-0.3,0-0.7-0.1-0.9c0-0.3-0.1-0.5-0.3-0.7c-0.1-0.2-0.3-0.4-0.5-0.5
	C158.5,159.2,158.2,159.1,157.9,159.1z M156.1,162.5c0,0.3,0,0.7,0,1c0,0.3,0.1,0.6,0.3,0.9c0.1,0.3,0.4,0.5,0.6,0.7
	c0.3,0.2,0.7,0.3,1.2,0.3c0.3,0,0.7,0,1.1-0.1c0.4-0.1,0.8-0.2,1.2-0.3l0.4,0.9c-0.4,0.2-0.8,0.3-1.2,0.4c-0.4,0.1-0.9,0.2-1.5,0.2
	c-0.7,0-1.3-0.1-1.7-0.3c-0.4-0.2-0.8-0.5-1.1-0.9c-0.3-0.4-0.4-0.8-0.5-1.3c-0.1-0.5-0.1-1.1-0.1-1.6c0-0.4,0-0.8,0.1-1.3
	c0.1-0.5,0.2-1,0.4-1.4c0.2-0.4,0.5-0.8,0.9-1.1c0.4-0.3,1-0.5,1.7-0.5c0.7,0,1.3,0.1,1.7,0.4c0.4,0.2,0.7,0.6,0.9,1
	c0.2,0.4,0.3,0.9,0.4,1.4c0,0.5,0.1,1.1,0.1,1.7H156.1z M147.4,166.2h-1.2v-7.9h1.6l1.7,3.9l0.3,0.6l0.3-0.6l1.7-3.9h1.6v7.9h-1.2
	v-6.1l-0.1,0.3l-1.9,4h-0.8l-1.9-4l-0.1-0.3V166.2z M143.4,160.4l-0.7,1.3l-2.6,4.5h-1.2v-7.9h1.2v5.8l0.1,0l0.8-1.5l2.6-4.4h1.2
	v7.9h-1.2L143.4,160.4L143.4,160.4z"/>
<path d="M260.7,177.7c-0.3,0-0.6,0-0.9,0.1c-0.4,0-0.7,0.1-1,0.2c-0.3,0.1-0.6,0.3-0.8,0.5c-0.2,0.2-0.3,0.5-0.3,0.9
	c0,0.4,0.1,0.7,0.2,1c0.2,0.2,0.4,0.3,0.9,0.3c0.1,0,0.3,0,0.5-0.1c0.2-0.1,0.4-0.1,0.6-0.2c0.2-0.1,0.4-0.2,0.5-0.3
	c0.2-0.1,0.3-0.2,0.4-0.3V177.7z M262.8,181.6c-0.2,0.1-0.4,0.1-0.6,0.2c-0.2,0-0.4,0.1-0.6,0.1c-0.2,0-0.4,0-0.5-0.1
	c-0.1-0.1-0.2-0.3-0.3-0.5l-0.1-0.3l-0.9,0.6c-0.3,0.2-0.5,0.3-0.7,0.4c-0.2,0.1-0.4,0.1-0.5,0.1c-0.5,0-0.9-0.1-1.2-0.2
	c-0.3-0.2-0.5-0.4-0.7-0.6c-0.2-0.2-0.3-0.5-0.3-0.8c0-0.3-0.1-0.5-0.1-0.7c0-0.5,0.1-0.9,0.3-1.3c0.2-0.3,0.5-0.6,0.9-0.8
	c0.4-0.2,0.8-0.4,1.4-0.5c0.5-0.1,1.1-0.2,1.7-0.2v-0.6c0-0.5-0.1-0.8-0.3-1.1c-0.2-0.3-0.6-0.4-1.2-0.4c-0.4,0-0.8,0-1.1,0.1
	c-0.3,0.1-0.7,0.2-0.9,0.3l-0.3-0.9c0.4-0.2,0.8-0.4,1.2-0.5c0.4-0.1,0.9-0.2,1.3-0.2c0.9,0,1.6,0.2,2,0.6c0.4,0.4,0.6,1,0.6,1.7
	v4.9h0.8V181.6z"/>
<g>
	<defs>
		<path id="SVGID_1_" d="M46.9,75.7L46.9,75.7c9.2,0,13.1,6.4,17.2,13.3l33.8,58c1.6,2.9,3.2,6.4,3.1,9.7
			c-0.1,8.5-11.2,11.7-17.8,12c-4.8,0.2-9.6-0.9-14-2.8l-2.7,3.5c1.6,6.7,7.8,14.8,16.3,14.8c14.8-0.1,22.5-13.6,28.5-24.6l11-20.4
			l-32-54.8c-3-4.9,1.9-8.5,7-8.5l1.2-4.5H48.1L46.9,75.7z"/>
	</defs>
	<clipPath id="SVGID_2_">
		<use xlink:href="#SVGID_1_"  style="overflow:visible;"/>
	</clipPath>
	
		<linearGradient id="SVGID_3_" gradientUnits="userSpaceOnUse" x1="5.404878e-06" y1="254.6181" x2="1" y2="254.6181" gradientTransform="matrix(0 112.926 -75.4413 0 19293.3086 71.1224)">
		<stop  offset="0" style="stop-color:#C00F82"/>
		<stop  offset="0.24" style="stop-color:#C40B4F"/>
		<stop  offset="0.48" style="stop-color:#BE2E21"/>
		<stop  offset="0.74" style="stop-color:#DE9223"/>
		<stop  offset="1" style="stop-color:#F3E03A"/>
	</linearGradient>
	<rect x="46.9" y="71.1" class="st0" width="75.4" height="112.9"/>
</g>
</svg>
