<svg id="Слой_1" data-name="Слой 1" xmlns="http://www.w3.org/2000/svg" viewBox="0 0 54 54"><defs><style>.cls-1{fill:#fff;}.cls-2{fill:none;}</style></defs><title>Безымянный-2</title><path d="M45.92,40.16a46.91,46.91,0,0,1-11.7-1.48,46.86,46.86,0,0,1-14.95-6.81L20,30.81a45.57,45.57,0,0,0,14.54,6.62A45.6,45.6,0,0,0,50,38.7L50.1,40Q48,40.16,45.92,40.16Z"/><path d="M2.93,45.62A1.28,1.28,0,0,1,1.71,44l7-23.66a1.28,1.28,0,0,1,.91-.88l9.27-2.34a1.28,1.28,0,0,1,1.57,1.45l-3.84,22.7a1.28,1.28,0,0,1-.93,1L3.26,45.58A1.27,1.27,0,0,1,2.93,45.62ZM11,21.75,4.81,42.53,14.28,40l3.37-20Z"/><path d="M27.55,45.62a1.28,1.28,0,0,1-.34,0l-12.15-3.3a1.28,1.28,0,0,1-.93-1.45L18,18.13a1.28,1.28,0,0,1,1.67-1L28.08,20a1.28,1.28,0,0,1,.87,1.22l-.11,23.13a1.28,1.28,0,0,1-1.28,1.27Zm-10.7-5.51,9.42,2.56.09-20.54L20.25,20Z"/><path d="M27.66,45.62a1.28,1.28,0,0,1-1.28-1.28V21.22a1.28,1.28,0,0,1,.8-1.19l8.15-3.3a1.28,1.28,0,0,1,1.75,1.05L39.56,41.4a1.28,1.28,0,0,1-.94,1.37L28,45.58A1.28,1.28,0,0,1,27.66,45.62Zm1.28-23.55v20.6l8-2.11L34.72,19.74Z"/><path d="M51.07,45.81a1.3,1.3,0,0,1-.29,0L38,42.78a1.28,1.28,0,0,1-1-1.11L34.54,18a1.28,1.28,0,0,1,1.64-1.36l8.9,2.66a1.28,1.28,0,0,1,.87.9l6.35,24a1.28,1.28,0,0,1-1.24,1.61Zm-11.6-5.32,9.82,2.31L43.66,21.6l-6.38-1.91Z"/><path d="M3.1,44.55l-1-.83A48.19,48.19,0,0,1,16.06,32.38a50.56,50.56,0,0,1,30.45-5.29l-.17,1.27a49.3,49.3,0,0,0-29.67,5.15A46.92,46.92,0,0,0,3.1,44.55Z"/><path class="cls-1" d="M20.06,30.16l-.64-1.45c-.58-1.32-5.69-13-5.69-16.12a6.32,6.32,0,0,1,12.65,0c0,3.16-5.1,14.81-5.69,16.12Zm0-22.5a4.93,4.93,0,0,0-4.93,4.93c0,2.14,3.13,9.89,4.93,14.09C21.86,22.47,25,14.73,25,12.59A4.93,4.93,0,0,0,20.06,7.66Z"/><path d="M20.06,7a5.63,5.63,0,0,0-5.63,5.63c0,3.11,5.63,15.84,5.63,15.84s5.63-12.73,5.63-15.84A5.63,5.63,0,0,0,20.06,7Zm0,8.81a3.55,3.55,0,1,1,3.55-3.55A3.55,3.55,0,0,1,20.06,15.77Z"/><line class="cls-2" x1="19.66" y1="40.87" x2="18.75" y2="43.38"/></svg>