<svg id="Слой_1" data-name="Слой 1" xmlns="http://www.w3.org/2000/svg" viewBox="0 0 54 54"><defs><style>.cls-1{fill:#333;}</style></defs><title>Иконки</title><path class="cls-1" d="M6.91,28.94A1.33,1.33,0,0,1,6,26.67L26.06,6.58a1.37,1.37,0,0,1,1.88,0L48,26.67a1.33,1.33,0,0,1-1.88,1.88L27,9.4,7.85,28.56A1.33,1.33,0,0,1,6.91,28.94Z"/><rect class="cls-1" x="19.62" y="35.21" width="14.76" height="8.97" rx="0.3" ry="0.3" transform="translate(66.69 12.69) rotate(90)"/><line class="cls-1" x1="35.88" y1="14.35" x2="36.02" y2="14.48"/><path class="cls-1" d="M41.81,11a.37.37,0,0,1,.37.37v.73a.37.37,0,0,1-.37.37h-.91v5.9l-5-5v-.9H35a.37.37,0,0,1-.37-.37v-.73A.37.37,0,0,1,35,11Z"/><path class="cls-1" d="M44.18,27.58v19.9a1.34,1.34,0,0,1-1.33,1.33H11.15a1.34,1.34,0,0,1-1.33-1.33V27.73L12.48,25V46.15h29V24.94Z"/><line class="cls-1" x1="9.82" y1="26.73" x2="9.56" y2="27"/><line class="cls-1" x1="12.56" y1="23.88" x2="12.48" y2="23.96"/><line class="cls-1" x1="41.52" y1="23.94" x2="41" y2="23.42"/><line class="cls-1" x1="44.36" y1="26.76" x2="44.18" y2="26.58"/></svg>