<svg id="Слой_1" data-name="Слой 1" xmlns="http://www.w3.org/2000/svg" viewBox="0 0 54 54"><defs><style>.cls-1{fill:#333;}</style></defs><title>Иконки</title><path class="cls-1" d="M27.87,9A.87.87,0,0,1,27,8.17V2.39a.87.87,0,0,1,1.75,0V8.17A.87.87,0,0,1,27.87,9Z"/><path class="cls-1" d="M14.32,13.28A.87.87,0,0,1,13.7,13L9.49,8.81a.87.87,0,0,1,1.24-1.24l4.21,4.21a.87.87,0,0,1-.62,1.49Z"/><path class="cls-1" d="M11.34,24.22H5a.87.87,0,1,1,0-1.75h6.34a.87.87,0,0,1,0,1.75Z"/><path class="cls-1" d="M49.89,24.17H43.33a.82.82,0,1,1,0-1.64h6.56a.82.82,0,1,1,0,1.64Z"/><path class="cls-1" d="M40.1,13.49A.87.87,0,0,1,39.51,12l5.07-4.64a.87.87,0,0,1,1.18,1.29l-5.07,4.64A.87.87,0,0,1,40.1,13.49Z"/><path class="cls-1" d="M40.1,24.24a12.78,12.78,0,0,1-7.29,11.53l0-2.87a10.27,10.27,0,1,0-11.18-.08l.1,2.91A12.76,12.76,0,1,1,40.1,24.24Z"/><path class="cls-1" d="M23.76,40.22h-.12a1.24,1.24,0,0,1-1.12-1.36c.08-.78-.62-3-3.27-4.77A1.24,1.24,0,0,1,20.65,32c3.24,2.2,4.52,5.21,4.34,7.07A1.24,1.24,0,0,1,23.76,40.22Z"/><path class="cls-1" d="M30.54,41.1h0a1.24,1.24,0,0,1-1.24-1.25A10.07,10.07,0,0,1,34,32.08a1.24,1.24,0,0,1,1.27,2.13,7.73,7.73,0,0,0-3.48,5.64A1.24,1.24,0,0,1,30.54,41.1Z"/><path class="cls-1" d="M23.61,43.37a.93.93,0,0,1-.26-1.83l7.22-2.1a.93.93,0,1,1,.52,1.79l-7.22,2.1A.93.93,0,0,1,23.61,43.37Z"/><path class="cls-1" d="M23.61,46.73a.93.93,0,0,1-.26-1.83l7.22-2.1a.93.93,0,1,1,.52,1.79l-7.22,2.1A.93.93,0,0,1,23.61,46.73Z"/><path class="cls-1" d="M23.61,43.37a.93.93,0,0,1-.26-1.83l7.22-2.1a.93.93,0,1,1,.52,1.79l-7.22,2.1A.93.93,0,0,1,23.61,43.37Z"/><path class="cls-1" d="M23.61,50.1a.93.93,0,0,1-.26-1.83l7.22-2.1A.93.93,0,1,1,31.09,48l-7.22,2.1A.93.93,0,0,1,23.61,50.1Z"/><path class="cls-1" d="M27.26,52.82H27.2a5.14,5.14,0,0,1-2.84-.91.75.75,0,1,1,.86-1.23,3.63,3.63,0,0,0,2,.65,3.84,3.84,0,0,0,2.21-.73.75.75,0,0,1,.9,1.2A5.14,5.14,0,0,1,27.26,52.82Z"/><path class="cls-1" d="M26,36.38h-.11a.61.61,0,0,1-.49-.71c.31-1.67-.27-5.93-1.54-7.83A.85.85,0,0,1,24,26.73a1,1,0,0,1,1.28-.15L27.36,28l1.88-1.22a1,1,0,0,1,1.48,1.07,17.64,17.64,0,0,1-.8,2.25A9.78,9.78,0,0,0,29,35.43a.61.61,0,1,1-1.22.11,11.07,11.07,0,0,1,1-5.93c.19-.47.39-.95.56-1.47l-1.45.94a1,1,0,0,1-1.07,0l-1.41-.93a16.27,16.27,0,0,1,1.17,7.72A.61.61,0,0,1,26,36.38Z"/></svg>