<svg id="Слой_1" data-name="Слой 1" xmlns="http://www.w3.org/2000/svg" viewBox="0 0 54 54"><defs><style>.cls-1{fill:#333;}</style></defs><title>Иконки</title><path class="cls-1" d="M7.46,5.11q10.42-.73,20.85-1.3c4.45-.24,8.91-.48,13.36-.52a21.49,21.49,0,0,1,3.13.11c.39.05.25,2,.25,2.43.2,10.19,0,20.39.36,30.58a79.16,79.16,0,0,0,1,12.39c.1.53,1,.16.29.2l-1.19.07-4.95.29c-7.81.45-15.62.91-23.43,1.29-2.22.11-4.48.34-6.7.25-.3,0-.78-4.54-.85-5.11C8.7,38,8.28,30.12,7.92,22.28c-.18-3.93-.33-7.86-.35-11.79,0-1.08-.51-4.68.3-5.57.37-.41-.48-.48-.72-.22-1,1.1-.47,4.55-.47,5.87,0,4.39.2,8.79.42,13.18.41,8.6.61,17.5,2.16,26,.3,1.66.56,1.79,2.13,1.75,3.71-.1,7.41-.33,11.11-.53q12.07-.64,24.14-1.37l.33,0c.18,0,.55-.17.49-.42a61.06,61.06,0,0,1-1.11-11.54c-.23-5.27-.28-10.55-.32-15.82,0-4.55,0-9.11-.06-13.66,0-.73.46-4.74-.36-5.19-1.43-.79-4.23-.24-5.77-.2-4.42.1-8.83.34-13.25.59q-9.52.53-19,1.2C7.08,4.55,6.86,5.15,7.46,5.11Z"/><path class="cls-1" d="M11.08,52.24c-1.62,0-2.2-.4-2.56-2.37-1.34-7.32-1.68-15-2-22.37q-.08-1.87-.17-3.72c-.2-4.24-.4-8.75-.42-13.21,0-.28,0-.65-.05-1.08-.15-2.3-.21-4.29.72-5.3A1.1,1.1,0,0,1,6.9,4a1.3,1.3,0,0,1,.6-.2c6.51-.46,12.92-.86,19-1.2,4.33-.24,8.8-.49,13.27-.59.37,0,.82,0,1.3-.09,1.6-.14,3.58-.32,4.86.39.9.5,1,2.12.78,5.12,0,.33,0,.58,0,.72q0,3.3,0,6.59c0,2.36,0,4.71,0,7.07,0,5.08.1,10.49.32,15.8L47.15,39a52.24,52.24,0,0,0,1,10,1,1,0,0,1-.17.82,1.41,1.41,0,0,1-1,.52l-.33,0c-6.58.39-15.27.9-24.15,1.37l-2.24.12c-2.91.16-5.92.33-8.89.41ZM11,50.17c1.43,0,2.91-.07,4.33-.16l1.82-.11c7.55-.38,15.08-.81,23.43-1.29l5-.29a78.34,78.34,0,0,1-.9-11l0-.87c-.21-5.92-.23-11.93-.25-17.75,0-4.21,0-8.56-.11-12.84,0-.08,0-.21,0-.38a12.55,12.55,0,0,0,0-1.37A21.79,21.79,0,0,0,41.94,4h-.26c-4.41,0-8.89.28-13.23.52h-.1C21.79,4.91,15,5.33,8.27,5.81a17.15,17.15,0,0,0,0,3.6c0,.45.06.82.06,1.07,0,3.43.13,7.05.35,11.76.36,7.57.78,15.62,1.69,23.46l0,.22C10.68,48.54,10.87,49.68,11,50.17Z"/><path class="cls-1" d="M17.56,17.14h-6l.27.22V11.24l-.61.33h6L17,11.34v6.13c0,.4.88.22.88-.1V11.24c0-.16-.13-.22-.27-.22h-6c-.16,0-.61.08-.61.33v6.13c0,.16.13.22.27.22h6C17.58,17.69,18.16,17.14,17.56,17.14Z"/><path class="cls-1" d="M21.83,14.62c5.73,0,11.48-.18,17.21,0,.35,0,.93-.52.33-.54-5.73-.17-11.48,0-17.21,0-.35,0-.93.55-.33.54Z"/><path class="cls-1" d="M39.05,15.12h0c-4.26-.13-8.6-.08-12.81,0l-4.39,0h0c-.59,0-.75-.39-.75-.62,0-.52.66-.92,1.09-.92l4.39,0c4.21,0,8.57-.09,12.85,0,.6,0,.75.42.74.66A1.11,1.11,0,0,1,39.05,15.12Zm-17.25-1,0,.5v-.49Z"/><path class="cls-1" d="M18.41,29.5l-5.95.29c.29,0,.25.16.23-.12l0-.75-.1-2.1-.14-3.06-.62.33,5.95-.29c-.29,0-.25-.16-.23.12l0,.75.1,2.1.14,3.06c0,.2.89,0,.88-.24l-.29-6.12c0-.09-.21-.09-.26-.09l-6,.3c-.15,0-.63.09-.62.33l.29,6.12c0,.09.21.09.26.09l6-.3C18.31,29.9,19,29.47,18.41,29.5Z"/><path class="cls-1" d="M22.65,26.77c5.72-.32,11.46-.74,17.19-.85.52,0,.66-.72.07-.71-5.73.11-11.47.54-17.19.85-.51,0-.66.74-.07.71Z"/><path class="cls-1" d="M22.61,27.27a.79.79,0,0,1-.85-.74,1,1,0,0,1,.92-1l4.37-.26c4.21-.25,8.56-.52,12.84-.6a.87.87,0,0,1,.79.39.82.82,0,0,1,0,.83,1,1,0,0,1-.83.49c-4.26.08-8.6.34-12.79.6l-4.38.26h-.07Z"/><path class="cls-1" d="M20.85,42.21l-5.94.29c.29,0,.24.14.23-.13l0-.75-.1-2.1-.14-3.06-.63.32,5.95-.29c-.29,0-.24-.14-.23.13l0,.75.1,2.1.14,3.06c0,.19.89,0,.88-.24l-.29-6.12c0-.09-.21-.08-.25-.07l-6,.3c-.15,0-.64.09-.63.32l.29,6.12c0,.09.21.08.25.07l6-.3C20.72,42.59,21.43,42.18,20.85,42.21Z"/><path class="cls-1" d="M25.07,39.43c5.72-.32,11.46-.74,17.19-.85.49,0,.69-.64.09-.63-5.73.11-11.47.54-17.19.85-.48,0-.69.66-.09.63Z"/><path class="cls-1" d="M25,39.93a.8.8,0,0,1-.71-.34.74.74,0,0,1,0-.75,1,1,0,0,1,.84-.53l4.37-.26c4.21-.25,8.56-.51,12.84-.6a.77.77,0,0,1,.88.73.94.94,0,0,1-.95.89c-4.27.08-8.61.34-12.81.6l-4.37.26H25Zm0-1,.06.5,0-.49Z"/><path class="cls-1" d="M10.13,26c1.23.74,3.13,1.64,3.84,3,.22.41,1,.08,1.2-.17,2.76-2.81,3.74-7.59,7.52-9.4.64-.3-.33-.38-.63-.24-3,1.41-4.79,5-6.48,7.65-.33.52-.65,1-1,1.55-.57.83.12-.27.33.11a2.61,2.61,0,0,0-.5-.55,17.87,17.87,0,0,0-3.3-2.31c-.29-.18-1.21.27-1,.4Z"/><path class="cls-1" d="M9.65,13.56c1.23.74,3.13,1.64,3.84,3,.22.41,1,.08,1.2-.17,2.76-2.81,3.74-7.59,7.52-9.4.64-.3-.33-.38-.63-.24-3,1.41-4.79,5-6.48,7.65-.33.52-.65,1-1,1.55-.57.83.12-.27.33.11a2.61,2.61,0,0,0-.5-.55,17.87,17.87,0,0,0-3.3-2.31c-.29-.18-1.21.27-1,.4Z"/></svg>