<svg id="Слой_1" data-name="Слой 1" xmlns="http://www.w3.org/2000/svg" viewBox="0 0 54 54"><defs><style>.cls-1{fill:#333;}</style></defs><title>Иконки</title><path class="cls-1" d="M42.94,19.82H41.49l.72,1.79h1.45Zm-15.28,1v.81h0v-.86Zm-1.14-1,.09,0,0,0Zm27.17,15.3-5.14-14.7a.9.9,0,0,0-.84-.6H43.58l.7,1.79h2.8l4.52,12.91H28.1l-.44.34v-.34H26.33v.36l-.09-.07-.37-.29H2.47L7.63,21.61H9.71l.7-1.79H7a.89.89,0,0,0-.83.56L.32,35.08a.91.91,0,0,0,0,.55,1.16,1.16,0,0,0,.13.29.92.92,0,0,0,.74.39h51.7a.9.9,0,0,0,.73-.38,1.56,1.56,0,0,0,.13-.24A.93.93,0,0,0,53.69,35.12ZM12.48,19.82l-.72,1.79h0Zm-.72,1.79h0l.72-1.79Z"/><path class="cls-1" d="M.28,35.41v1.18a.72.72,0,0,0,.72.72H24.82c0,.59,1,1.06,2.18,1.06s2.18-.48,2.18-1.06H53a.72.72,0,0,0,.72-.72V35.41Z"/><path class="cls-1" d="M11.76,21.61h0l.72-1.79Zm.72-1.79h0l.21-.53Zm14.88,16s-.16-.17-.41-.38-.37-.32-.63-.53h0l-.09-.07-.37-.29H23.56c-.44-.3-.91-.59-1.44-.88a40.54,40.54,0,0,0-4.85-.91,35.24,35.24,0,0,0-4.53-.27A58,58,0,0,0,5.22,33L9.71,21.61l.7-1.79.06-.15.69-.14.45-1.1.14-.36a18.38,18.38,0,0,0-1.93.38.64.64,0,0,0-.47.4l-.38,1-.71,1.79-4.72,12a.68.68,0,0,0,.11.67.66.66,0,0,0,.63.23,50.55,50.55,0,0,1,12.81-.44c1,.13,2,.29,2.81.46a28.92,28.92,0,0,1,3.49.89,16.63,16.63,0,0,1,2.22.89,9.52,9.52,0,0,1,.87.49l0,0h0a.67.67,0,0,0,.37.11.67.67,0,0,0,.52-.24.72.72,0,0,0,.15-.39A.71.71,0,0,0,27.36,35.8Zm-5.24-2.16a40.54,40.54,0,0,0-4.85-.91,35.24,35.24,0,0,0-4.53-.27A58,58,0,0,0,5.22,33L9.71,21.61H8.26l-4.72,12a.68.68,0,0,0,.11.67.66.66,0,0,0,.63.23,50.55,50.55,0,0,1,12.81-.44c1,.13,2,.29,2.81.46h3.66C23.12,34.23,22.65,33.93,22.12,33.65Z"/><path class="cls-1" d="M50.44,33.6l-4.72-12L45,19.82l-.38-1a.68.68,0,0,0-.47-.4c-.07,0-.8-.21-1.93-.38-.45-.08-1-.15-1.54-.21l.58,1.44c.61.07,1.13.16,1.55.23l.69.14.06.15.7,1.79L48.76,33a48.75,48.75,0,0,0-12.05-.28,39.53,39.53,0,0,0-4.86.93h0a23.34,23.34,0,0,0-2.7.86c-.61.24-1.09.47-1.47.65v-14h0v-.43l0,0V34.52H26.33v1.84a.78.78,0,0,0,0,.14.15.15,0,0,0,0,.09.48.48,0,0,0,0,.1s0,0,0,0h0l0,0,0,0,0,0v0h0l0,0,0,0,.05,0,.06,0h.05l.11,0L27,37h.21l.11-.05,0,0h0l0,0h0l0,0,0,0h0a7.76,7.76,0,0,1,.92-.52,16.35,16.35,0,0,1,2.23-.89,29.17,29.17,0,0,1,3.48-.89c.83-.17,1.75-.32,2.77-.46a50.56,50.56,0,0,1,12.82.44.66.66,0,0,0,.63-.23A.68.68,0,0,0,50.44,33.6Z"/><path class="cls-1" d="M26.32,21.61v0Zm.21-1.79.09,0,0,0Zm1.14,1V34.52H26.33v1.84a.78.78,0,0,0,0,.14.15.15,0,0,0,0,.09.48.48,0,0,0,0,.1s0,0,0,0h0l0,0,0,0,0,0s0,0,0,0h0l0,0,0,0,.05,0,.06,0h.05l.11,0L27,37h.21l.11-.05,0,0h0l0,0h0s0,0,0,0l0,0h0l0,0a.56.56,0,0,0,.09-.14,0,0,0,0,0,0,0,.25.25,0,0,0,0-.12.69.69,0,0,0,0-.13V20.75Z"/><path class="cls-1" d="M27.66,21.61V34.52H26.33v.37l-.09-.08-.37-.29H23.56c.48.31.91.62,1.28.89s.84.66,1.1.89.45.41.47.44l.06.05,0,0h0l0,0,0,0,.05,0,.06,0h.05l.11,0L27,37h.26a.1.1,0,0,0,.06,0l0,0h0l0,0h0s0,0,0,0l0,0h0l0,0,.05-.05a.93.93,0,0,0,0-.09,0,0,0,0,0,0,0,.25.25,0,0,0,0-.12.69.69,0,0,0,0-.13V21.61Zm-1.34,0v0Z"/><path class="cls-1" d="M42.23,18.07c-.45-.08-1-.15-1.54-.21L40.35,17a31.17,31.17,0,0,0-8.76,1.08,7,7,0,0,0-2.9,1.33h0a2.71,2.71,0,0,0-.43.41,2.49,2.49,0,0,0-.57.93l0,0V34.52H26.33V21.61h0v-.89a.59.59,0,0,1,0-.13A1.49,1.49,0,0,0,26,20a3.07,3.07,0,0,0-.69-.62,7.51,7.51,0,0,0-2.92-1.34A31.11,31.11,0,0,0,13.63,17l-.36.89-.42,1.06-.14.36h0l-.21.53-.72,1.79-3.63,9,.27-.05L9,30.43l.66-.12c.57-.1,1.21-.19,1.88-.26l.81-.08h0l.83,0,.87,0a13.64,13.64,0,0,1,3.67.45c.37.11.72.21,1.06.34s.55.2.82.3.79.31,1.15.48.62.28.9.42l.7.36c.41.22.8.45,1.17.67s.8.49,1.14.73l.3.21.35.26.55.4H23.56c-.44-.3-.91-.59-1.44-.88-.35-.2-.72-.38-1.1-.58l-.79-.37c-.49-.21-1-.43-1.56-.62l-.55-.19-.8-.25c-3.93-1.14-10.08.55-10.14.56a.68.68,0,0,1-.8-.9l3.93-9.69L11,19.82l.12-.3.45-1.1.14-.36.79-2a.68.68,0,0,1,.53-.41c.13,0,3.31-.45,9.65,1.07A7.2,7.2,0,0,1,27,19.25a7.14,7.14,0,0,1,4.27-2.49c6.33-1.52,9.51-1.09,9.64-1.07a.66.66,0,0,1,.53.41Z"/><path class="cls-1" d="M47.59,31.3l-3.93-9.69H42.22l3.64,9c-2.12-.47-6.41-1.16-9.59-.25a24.39,24.39,0,0,0-8.16,4.17h1a23.34,23.34,0,0,1,2.7-.86h0a22.42,22.42,0,0,1,4.8-2c3.92-1.13,10.08.55,10.14.56a.67.67,0,0,0,.68-.21A.68.68,0,0,0,47.59,31.3ZM26.32,21.61v0ZM47.59,31.3l-3.93-9.69-.72-1.79-.12-.3-.59-1.46c-.45-.08-1-.15-1.54-.21l.58,1.44.21.53.72,1.79,3.64,9c-2.12-.47-6.41-1.16-9.59-.25a24.39,24.39,0,0,0-8.16,4.17l-.44.34h0v-.35H26.33v1.84a.78.78,0,0,0,0,.14.15.15,0,0,0,0,.09.48.48,0,0,0,0,.1s0,0,0,0l0,0,0,0,0,0s0,0,0,0h0l0,0,0,0,.05,0,.06,0h.05l.11,0L27,37h.21l.11-.05,0,0h0l0,0h0l0,0,0,0h0l0,0,.05-.05.47-.42c.28-.24.64-.55,1.11-.89s.8-.58,1.28-.89.9-.57,1.41-.86h0a22.42,22.42,0,0,1,4.8-2c3.92-1.13,10.08.55,10.14.56a.67.67,0,0,0,.68-.21A.68.68,0,0,0,47.59,31.3Zm0,0-3.93-9.69H42.22l3.64,9c-2.12-.47-6.41-1.16-9.59-.25a24.39,24.39,0,0,0-8.16,4.17h1a23.34,23.34,0,0,1,2.7-.86h0a22.42,22.42,0,0,1,4.8-2c3.92-1.13,10.08.55,10.14.56a.67.67,0,0,0,.68-.21A.68.68,0,0,0,47.59,31.3Z"/></svg>