<svg id="Слой_1" data-name="Слой 1" xmlns="http://www.w3.org/2000/svg" viewBox="0 0 54 54"><defs><style>.cls-1{fill:#333;}</style></defs><title>excursion_icon</title><path class="cls-1" d="M11.24,38.1H8.89a.5.5,0,0,1-.5-.52l.56-14.12a.5.5,0,0,1,.5-.48h1.21a.5.5,0,0,1,.5.48l.58,14.11A.5.5,0,0,1,11.24,38.1Z"/><path class="cls-1" d="M19.71,38.1H17.36a.5.5,0,0,1-.5-.52l.56-14.12a.5.5,0,0,1,.5-.48h1.21a.5.5,0,0,1,.5.48l.58,14.11A.5.5,0,0,1,19.71,38.1Z"/><path class="cls-1" d="M36.65,38.1H34.29a.5.5,0,0,1-.5-.52l.56-14.12a.5.5,0,0,1,.5-.48h1.21a.5.5,0,0,1,.5.48l.58,14.11A.5.5,0,0,1,36.65,38.1Z"/><path class="cls-1" d="M28.18,38.1H25.83a.5.5,0,0,1-.5-.52l.56-14.12a.5.5,0,0,1,.5-.48h1.21a.5.5,0,0,1,.5.48l.58,14.11A.5.5,0,0,1,28.18,38.1Z"/><path class="cls-1" d="M45.12,38.1H42.76a.5.5,0,0,1-.5-.52l.56-14.12a.5.5,0,0,1,.5-.48h1.21a.5.5,0,0,1,.5.48l.58,14.11A.5.5,0,0,1,45.12,38.1Z"/><polyline class="cls-1" points="2.94 17.01 27 8.88 51.06 17.01"/><path class="cls-1" d="M47.6,41.13H6.4a.9.9,0,0,1,0-1.8H47.6a.9.9,0,0,1,0,1.8Z"/><path class="cls-1" d="M49.43,43.58H4.57a.9.9,0,0,1,0-1.8H49.43a.9.9,0,0,1,0,1.8Z"/><path class="cls-1" d="M51.44,46H2.56a.9.9,0,0,1,0-1.8H51.44a.9.9,0,0,1,0,1.8Z"/><path class="cls-1" d="M47.6,21.77H6.4a.9.9,0,0,1,0-1.8H47.6a.9.9,0,0,1,0,1.8Z"/><path class="cls-1" d="M49.43,19.52H4.57a.9.9,0,0,1,0-1.8H49.43a.9.9,0,0,1,0,1.8Z"/></svg>