<svg id="Слой_1" data-name="Слой 1" xmlns="http://www.w3.org/2000/svg" viewBox="0 0 54 54"><defs><style>.cls-1{fill:#333;}</style></defs><title>Иконки</title><path class="cls-1" d="M49.35,47.59H7a1.33,1.33,0,0,1,0-2.66H49.35a1.33,1.33,0,1,1,0,2.66Z"/><path class="cls-1" d="M48,43H8.38l0-1.36a19.9,19.9,0,0,1,19.78-19.3A19.66,19.66,0,0,1,48,41.64ZM11.16,40.35H45.22A17,17,0,0,0,28.19,25,17.24,17.24,0,0,0,11.16,40.35Z"/><circle class="cls-1" cx="28.19" cy="20.15" r="2.52"/><path class="cls-1" d="M22.65,21.1a.75.75,0,0,1-.58-.28c-1.41-1.74-2-3.36-1.65-4.8a4.73,4.73,0,0,1,1.18-2.1,2.21,2.21,0,0,0,.72-1.28c0-.76-.6-1.66-1.87-2.61a.75.75,0,0,1,.9-1.2c1.71,1.28,2.54,2.59,2.47,3.89a3.58,3.58,0,0,1-1.07,2.17,3.31,3.31,0,0,0-.86,1.45c-.21,1,.24,2.16,1.35,3.53a.75.75,0,0,1-.58,1.22Z"/><path class="cls-1" d="M34.48,21.1a.75.75,0,0,1-.58-.28c-1.42-1.74-2-3.36-1.65-4.8a4.74,4.74,0,0,1,1.18-2.1,2.21,2.21,0,0,0,.72-1.28c0-.76-.6-1.66-1.87-2.61a.75.75,0,1,1,.9-1.2c1.71,1.28,2.54,2.59,2.47,3.89a3.58,3.58,0,0,1-1.07,2.17,3.3,3.3,0,0,0-.86,1.45c-.22,1,.24,2.16,1.35,3.53a.75.75,0,0,1-.58,1.22Z"/><path class="cls-1" d="M28.33,15.51a.75.75,0,0,1-.58-.28,4,4,0,0,1-1.12-3.32,3.28,3.28,0,0,1,.82-1.47c.25-.3.39-.46.4-.67,0-.39-.37-.9-1.09-1.45a.75.75,0,1,1,.9-1.2,3.35,3.35,0,0,1,1.69,2.74,2.55,2.55,0,0,1-.75,1.55,1.9,1.9,0,0,0-.5.82,2.62,2.62,0,0,0,.81,2,.75.75,0,0,1-.58,1.22Z"/><path class="cls-1" d="M16.86,35.88l-.2,0a1,1,0,0,1-.78-1.18,7.91,7.91,0,0,1,6.82-6.3,1,1,0,0,1,.24,2,5.91,5.91,0,0,0-5.1,4.7A1,1,0,0,1,16.86,35.88Z"/></svg>