<svg id="Слой_1" data-name="Слой 1" xmlns="http://www.w3.org/2000/svg" viewBox="0 0 54 54"><defs><style>.cls-1{fill:#333;}</style></defs><title>Иконки</title><path class="cls-1" d="M25.32,47.58a1.75,1.75,0,0,1-1.75-1.75V7.59a1.75,1.75,0,0,1,3.5,0V45.83A1.75,1.75,0,0,1,25.32,47.58Z"/><polygon class="cls-1" points="22.51 20.59 12.56 20.59 9.42 17.63 12.56 14.67 22.51 14.67 22.51 20.59"/><polygon class="cls-1" points="28.12 24.29 36.07 24.29 38.58 21.34 36.07 18.38 28.12 18.38 28.12 24.29"/><path class="cls-1" d="M35.4,48.16H15.23a1.33,1.33,0,1,1,0-2.66H35.4a1.33,1.33,0,1,1,0,2.66Z"/><polygon class="cls-1" points="28.12 16.71 41.18 16.71 44.58 13.75 41.18 10.79 28.12 10.79 28.12 16.71"/></svg>