<?xml version="1.0" encoding="utf-8"?>
<!-- Generator: Adobe Illustrator 21.0.2, SVG Export Plug-In . SVG Version: 6.00 Build 0)  -->
<svg version="1.1" id="Слой_1" xmlns="http://www.w3.org/2000/svg" xmlns:xlink="http://www.w3.org/1999/xlink" x="0px" y="0px"
	 viewBox="0 0 54 54" style="enable-background:new 0 0 54 54;" xml:space="preserve">
<style type="text/css">
	.st0{fill:#333333;}
	.st1{fill:none;stroke:#000000;stroke-width:1.5;stroke-linecap:round;stroke-miterlimit:10;}
	.st2{fill:none;stroke:#000000;stroke-linecap:round;stroke-miterlimit:10;}
</style>
<g>
	<g>
		<g>
			<title>Иконки</title>
			<path class="st0" d="M41,22.2c-1.4-0.7-2.9-0.9-4.4-0.7c0.1,0.5,0.1,0.9,0.1,1.4c2.3-0.4,4.7,0.6,6,2.7c1.7,2.8,0.9,6.4-1.9,8.2
				l0,1.7c2.6-1.2,4.2-3.8,4.3-6.6C45.1,26.1,43.5,23.5,41,22.2z"/>
			<path class="st0" d="M35.6,38L35.6,38c-0.5,0-0.7-0.4-0.7-0.8c0,0,0,0,0,0c0.1-0.4-0.3-1.7-1.9-2.8c-0.3-0.2-0.4-0.7-0.2-1
				c0.2-0.3,0.7-0.4,1-0.2c1.9,1.3,2.6,3,2.5,4.1C36.2,37.7,35.9,38,35.6,38z"/>
			<path class="st0" d="M39.5,38.5L39.5,38.5c-0.4,0-0.7-0.3-0.7-0.7c0,0,0,0,0,0c0.2-1.8,1.2-3.5,2.8-4.4c0.3-0.2,0.8-0.1,1,0.3
				c0.2,0.3,0.1,0.8-0.3,1c-1.1,0.7-1.9,1.9-2,3.2C40.2,38.2,39.9,38.5,39.5,38.5C39.5,38.5,39.5,38.5,39.5,38.5z"/>
			<path class="st0" d="M35.4,39.8c-0.3,0-0.5-0.2-0.5-0.5c0-0.3,0.2-0.5,0.4-0.5l4.2-1.2c0.3-0.1,0.6,0.1,0.7,0.4
				c0.1,0.3-0.1,0.6-0.4,0.7l0,0l-4.2,1.2C35.5,39.8,35.5,39.8,35.4,39.8z"/>
			<path class="st0" d="M35.4,41.7c-0.3,0-0.5-0.2-0.5-0.5c0-0.3,0.2-0.5,0.4-0.5l4.2-1.2c0.3-0.1,0.6,0.1,0.7,0.4
				c0.1,0.3-0.1,0.6-0.4,0.7l0,0l-4.2,1.2C35.5,41.7,35.5,41.7,35.4,41.7z"/>
			<path class="st0" d="M35.4,39.8c-0.3,0-0.5-0.2-0.5-0.5c0-0.3,0.2-0.5,0.4-0.5l4.2-1.2c0.3-0.1,0.6,0.1,0.7,0.4
				c0.1,0.3-0.1,0.6-0.4,0.7l0,0l-4.2,1.2C35.5,39.8,35.5,39.8,35.4,39.8z"/>
			<path class="st0" d="M35.4,43.7c-0.3,0-0.5-0.2-0.5-0.5c0-0.3,0.2-0.5,0.4-0.5l4.2-1.2c0.3-0.1,0.6,0.1,0.7,0.4
				c0.1,0.3-0.1,0.6-0.4,0.7l0,0l-4.2,1.2C35.5,43.7,35.5,43.7,35.4,43.7z"/>
			<path class="st0" d="M37.5,45.3L37.5,45.3c-0.6,0-1.2-0.2-1.7-0.5c-0.2-0.1-0.2-0.4-0.1-0.6c0.1-0.2,0.4-0.2,0.6-0.1
				c0.3,0.2,0.7,0.4,1.1,0.4c0.5,0,0.9-0.1,1.3-0.4c0.2-0.1,0.5-0.1,0.6,0.1c0.1,0.2,0.1,0.5-0.1,0.6C38.8,45.1,38.1,45.3,37.5,45.3
				z"/>
			<path class="st0" d="M36.9,35.8L36.9,35.8c-0.3,0-0.4-0.2-0.3-0.4c0.2-1-0.1-3.4-0.8-4.5c-0.1-0.2-0.1-0.5,0.1-0.6
				c0.2-0.2,0.5-0.2,0.7-0.1l1.2,0.8l1.1-0.7c0.3-0.2,0.6-0.1,0.8,0.2c0.1,0.1,0.1,0.3,0.1,0.4c-0.1,0.4-0.3,0.9-0.5,1.3
				c-0.5,0.9-0.7,2-0.6,3.1c0,0.2-0.1,0.4-0.3,0.4c-0.2,0-0.4-0.1-0.4-0.3l0,0c-0.1-1.2,0.1-2.4,0.6-3.4c0.1-0.3,0.2-0.5,0.3-0.8
				L38,31.6c-0.2,0.1-0.4,0.1-0.6,0L36.6,31c0.6,1.4,0.8,2.9,0.6,4.5C37.2,35.6,37,35.8,36.9,35.8z"/>
		</g>
		<g>
			<title>Иконки</title>
			<path class="st0" d="M21.8,32.5c0,0.1,0,0-0.1-0.2c0,0,0,0,0,0c0,0,0,0,0,0c-0.2-0.3-0.4-0.5-0.7-0.8c-0.5,0.8-1.1,1.6-2,2.1
				l0,1.7c1.2-0.6,2.2-1.4,2.9-2.5C21.9,32.7,21.9,32.6,21.8,32.5z"/>
			<path class="st0" d="M18.8,21.9c-3.5-1.5-7.7,0-9.4,3.5c-1.8,3.6-0.4,8,3.3,9.9l0-1.7c-0.7-0.5-1.3-1.1-1.7-1.8
				c-1.7-2.8-0.9-6.4,1.9-8.2c1.7-1.1,3.8-1.2,5.6-0.4C18.4,22.8,18.6,22.3,18.8,21.9z"/>
			<path class="st0" d="M13.8,37.8L13.8,37.8c-0.5,0-0.7-0.4-0.7-0.8c0,0,0,0,0,0c0.1-0.4-0.3-1.7-1.9-2.8c-0.3-0.2-0.4-0.7-0.2-1
				c0.2-0.3,0.7-0.4,1-0.2c1.9,1.3,2.6,3,2.5,4.1C14.4,37.5,14.1,37.8,13.8,37.8z"/>
			<path class="st0" d="M17.7,38.4L17.7,38.4c-0.4,0-0.7-0.3-0.7-0.7c0,0,0,0,0,0c0.2-1.8,1.2-3.5,2.8-4.4c0.3-0.2,0.8-0.1,1,0.3
				c0.2,0.3,0.1,0.8-0.3,1c-1.1,0.7-1.9,1.9-2,3.2C18.4,38,18.1,38.4,17.7,38.4C17.7,38.4,17.7,38.4,17.7,38.4z"/>
			<path class="st0" d="M13.7,39.6c-0.3,0-0.5-0.2-0.5-0.5c0-0.3,0.2-0.5,0.4-0.5l4.2-1.2c0.3-0.1,0.6,0.1,0.7,0.4s-0.1,0.6-0.4,0.7
				l0,0l-4.2,1.2C13.8,39.6,13.7,39.6,13.7,39.6z"/>
			<path class="st0" d="M13.6,41.6c-0.3,0-0.5-0.2-0.5-0.5c0-0.3,0.2-0.5,0.4-0.5l4.2-1.2c0.3-0.1,0.6,0.1,0.7,0.4
				c0.1,0.3-0.1,0.6-0.4,0.7l0,0l-4.2,1.2C13.7,41.6,13.7,41.6,13.6,41.6z"/>
			<path class="st0" d="M13.7,39.6c-0.3,0-0.5-0.2-0.5-0.5c0-0.3,0.2-0.5,0.4-0.5l4.2-1.2c0.3-0.1,0.6,0.1,0.7,0.4s-0.1,0.6-0.4,0.7
				l0,0l-4.2,1.2C13.8,39.6,13.7,39.6,13.7,39.6z"/>
			<path class="st0" d="M13.6,43.5c-0.3,0-0.5-0.2-0.5-0.5c0-0.3,0.2-0.5,0.4-0.5l4.2-1.2c0.3-0.1,0.6,0.1,0.7,0.4
				c0.1,0.3-0.1,0.6-0.4,0.7l0,0l-4.2,1.2C13.7,43.5,13.7,43.5,13.6,43.5z"/>
			<path class="st0" d="M15.7,45.1L15.7,45.1c-0.6,0-1.2-0.2-1.7-0.5c-0.2-0.1-0.2-0.4-0.1-0.6c0.1-0.2,0.4-0.2,0.6-0.1
				c0.3,0.2,0.7,0.4,1.1,0.4c0.5,0,0.9-0.1,1.3-0.4c0.2-0.1,0.5-0.1,0.6,0.1s0.1,0.5-0.1,0.6C17,44.9,16.3,45.1,15.7,45.1z"/>
			<path class="st0" d="M15.1,35.6L15.1,35.6c-0.3,0-0.4-0.2-0.3-0.4c0.2-1-0.1-3.4-0.8-4.5c-0.1-0.2-0.1-0.5,0.1-0.6
				c0.2-0.2,0.5-0.2,0.7-0.1l1.2,0.8l1.1-0.7c0.3-0.2,0.6-0.1,0.8,0.2c0.1,0.1,0.1,0.3,0.1,0.4c-0.1,0.4-0.3,0.9-0.5,1.3
				c-0.5,0.9-0.7,2-0.6,3.1c0,0.2-0.1,0.4-0.3,0.4c-0.2,0-0.4-0.1-0.4-0.3l0,0c-0.1-1.2,0.1-2.4,0.6-3.4c0.1-0.3,0.2-0.5,0.3-0.8
				l-0.8,0.5c-0.2,0.1-0.4,0.1-0.6,0l-0.8-0.5c0.6,1.4,0.8,2.9,0.6,4.5C15.4,35.5,15.2,35.6,15.1,35.6z"/>
		</g>
	</g>
	<g>
		<title>Иконки</title>
		<path class="st0" d="M37,25.6c-0.1,3.7-2.4,7.1-5.8,8.6l0.1-2.2c3.7-2.2,4.9-7,2.8-10.7s-7-4.9-10.7-2.8s-4.9,7-2.8,10.7
			c0.6,0.9,1.3,1.8,2.2,2.4l0,2.2c-4.7-2.5-6.5-8.4-4-13.1s8.4-6.5,13.1-4C35.2,18.4,37.2,21.9,37,25.6z"/>
		<path class="st0" d="M24.2,37.3L24.2,37.3c-0.6-0.1-1-0.5-0.9-1.1c0,0,0,0,0,0c0.1-0.6-0.4-2.3-2.4-3.7c-0.4-0.3-0.5-0.9-0.2-1.3
			c0.3-0.4,0.9-0.5,1.3-0.2c2.4,1.8,3.3,4.1,3.1,5.5C25.1,36.9,24.7,37.3,24.2,37.3z"/>
		<path class="st0" d="M29.3,38.1L29.3,38.1c-0.5,0-0.9-0.5-0.9-1c0,0,0,0,0,0c0.3-2.4,1.7-4.6,3.8-5.8c0.5-0.2,1-0.1,1.3,0.4
			c0.2,0.5,0.1,1-0.4,1.3c-1.5,0.9-2.5,2.5-2.8,4.2C30.3,37.7,29.9,38.2,29.3,38.1C29.3,38.1,29.3,38.1,29.3,38.1z"/>
		<path class="st0" d="M24,39.7c-0.4,0-0.7-0.3-0.7-0.7c0-0.3,0.2-0.6,0.6-0.7l5.5-1.4c0.4-0.1,0.8,0.1,0.9,0.5
			c0.1,0.4-0.1,0.8-0.5,0.9l0,0l-5.5,1.4C24.1,39.7,24.1,39.7,24,39.7z"/>
		<path class="st0" d="M23.9,42.2c-0.4,0-0.7-0.3-0.7-0.7c0-0.3,0.2-0.6,0.6-0.7l5.5-1.4c0.4-0.1,0.8,0.1,0.9,0.5s-0.1,0.8-0.5,0.9
			l0,0l-5.5,1.4C24,42.2,24,42.2,23.9,42.2z"/>
		<path class="st0" d="M24,39.7c-0.4,0-0.7-0.3-0.7-0.7c0-0.3,0.2-0.6,0.6-0.7l5.5-1.4c0.4-0.1,0.8,0.1,0.9,0.5
			c0.1,0.4-0.1,0.8-0.5,0.9l0,0l-5.5,1.4C24.1,39.7,24.1,39.7,24,39.7z"/>
		<path class="st0" d="M23.8,44.8c-0.4,0-0.7-0.3-0.7-0.7c0-0.3,0.2-0.6,0.6-0.7l5.5-1.4c0.4-0.1,0.8,0.1,0.9,0.5
			c0.1,0.4-0.1,0.8-0.5,0.9l0,0L24,44.8C24,44.8,23.9,44.8,23.8,44.8z"/>
		<path class="st0" d="M26.5,47L26.5,47c-0.8,0-1.6-0.3-2.2-0.8c-0.3-0.2-0.3-0.5-0.1-0.8s0.5-0.3,0.8-0.1c0.4,0.3,1,0.5,1.5,0.5
			c0.6,0,1.2-0.2,1.7-0.5c0.3-0.2,0.6-0.1,0.8,0.1s0.1,0.6-0.1,0.8C28.2,46.8,27.4,47,26.5,47z"/>
		<path class="st0" d="M26,34.4L26,34.4c-0.3-0.1-0.5-0.3-0.4-0.6c0.3-1.3,0-4.5-1-6c-0.2-0.3-0.1-0.6,0.1-0.8
			c0.3-0.3,0.7-0.3,1-0.1l1.5,1.1l1.5-0.9c0.4-0.2,0.8-0.1,1,0.3c0.1,0.2,0.1,0.4,0.1,0.5c-0.2,0.6-0.4,1.1-0.7,1.7
			c-0.7,1.2-0.9,2.6-0.8,4c0,0.3-0.2,0.5-0.4,0.5c-0.3,0-0.5-0.2-0.5-0.4l0,0c-0.1-1.6,0.2-3.1,0.9-4.5c0.2-0.4,0.3-0.7,0.5-1.1
			l-1.1,0.7c-0.3,0.1-0.6,0.1-0.8,0l-1-0.7c0.7,1.9,0.9,3.9,0.7,5.9C26.4,34.3,26.2,34.4,26,34.4z"/>
	</g>
	<line class="st1" x1="27.3" y1="12.5" x2="27.3" y2="6.4"/>
	<line class="st1" x1="21.3" y1="13.8" x2="18.3" y2="8.5"/>
	<line class="st2" x1="8.7" y1="22.1" x2="5" y2="18.4"/>
	<line class="st2" x1="6.1" y1="27.2" x2="1.1" y2="26.3"/>
	<line class="st2" x1="7.4" y1="32" x2="2.5" y2="33.4"/>
	<line class="st1" x1="16.7" y1="17.6" x2="11.9" y2="13.8"/>
	<line class="st1" x1="33.4" y1="13.8" x2="36.3" y2="8.5"/>
	<line class="st2" x1="46" y1="22.1" x2="49.6" y2="18.4"/>
	<line class="st2" x1="48.5" y1="27.2" x2="53.6" y2="26.3"/>
	<line class="st2" x1="47.2" y1="32" x2="52.2" y2="33.4"/>
	<line class="st1" x1="38" y1="17.6" x2="42.8" y2="13.8"/>
</g>
</svg>
