<svg id="Слой_1" data-name="Слой 1" xmlns="http://www.w3.org/2000/svg" viewBox="0 0 54 54"><defs><style>.cls-1{fill:#333;}</style></defs><title>Иконки</title><circle class="cls-1" cx="40.33" cy="32.36" r="5.26"/><path class="cls-1" d="M47.53,41.81v5H33.13v-5a4.2,4.2,0,0,1,4.2-4.2h6A4.2,4.2,0,0,1,47.53,41.81Z"/><circle class="cls-1" cx="13.67" cy="32.36" r="5.26"/><path class="cls-1" d="M20.87,41.81v5H6.47v-5a4.2,4.2,0,0,1,4.2-4.2h6A4.2,4.2,0,0,1,20.87,41.81Z"/><path class="cls-1" d="M29.9,7.17c-6.61,0-12,3.76-12,8.38s5.39,8.37,12,8.37a16.35,16.35,0,0,0,5.15-.81l-.51-.89a15.3,15.3,0,0,1-4.64.7c-6.06,0-11-3.31-11-7.37s4.94-7.38,11-7.38,11,3.31,11,7.38c0,2.24-1.5,4.25-3.86,5.6l.52.84c2.65-1.54,4.34-3.85,4.34-6.44C41.9,10.93,36.52,7.17,29.9,7.17Z"/><path class="cls-1" d="M38.12,25.42a.5.5,0,0,1-.27-.08l-3.47-2.19a.5.5,0,0,1,.54-.85l3.47,2.19a.5.5,0,0,1-.27.92Z"/><path class="cls-1" d="M38.12,25.42a.5.5,0,0,1-.49-.39l-.76-3.37a.5.5,0,0,1,1-.22l.76,3.37a.5.5,0,0,1-.38.6Z"/><ellipse class="cls-1" cx="26.34" cy="29.41" rx="6.56" ry="4.49"/><polygon class="cls-1" points="21.65 34.75 23.72 33.29 22.18 32.62 21.65 34.75"/><path class="cls-1" d="M21.65,35a.25.25,0,0,1-.24-.31l.52-2.12a.25.25,0,0,1,.34-.17l1.54.67a.25.25,0,0,1,0,.43L21.8,35A.25.25,0,0,1,21.65,35Zm.69-2-.29,1.19,1.15-.81Z"/><path class="cls-1" d="M36.39,14.28H23.57a.5.5,0,0,1,0-1H36.39a.5.5,0,0,1,0,1Z"/><path class="cls-1" d="M36.39,17.82H23.57a.5.5,0,0,1,0-1H36.39a.5.5,0,0,1,0,1Z"/></svg>