<svg id="Слой_1" data-name="Слой 1" xmlns="http://www.w3.org/2000/svg" viewBox="0 0 54 54"><defs><style>.cls-1{fill:#333;}</style></defs><title>Иконки</title><rect class="cls-1" x="27.38" y="27.96" width="16.67" height="19.5"/><path class="cls-1" d="M46,29H24.63a1,1,0,0,1,0-2H46a1,1,0,0,1,0,2Z"/><path class="cls-1" d="M46,48.46H8a1,1,0,1,1,0-2H46a1,1,0,0,1,0,2Z"/><ellipse class="cls-1" cx="15.04" cy="11.21" rx="4.08" ry="4.67"/><path class="cls-1" d="M14.08,15.87h.48a4.1,4.1,0,0,1,4.1,4.1v8.48a3,3,0,0,1-3,3h-2a2.33,2.33,0,0,1-2.33-2.33V18.58A2.71,2.71,0,0,1,14.08,15.87Z"/><path class="cls-1" d="M12.46,29.87h4.67a0,0,0,0,1,0,0V45a1.52,1.52,0,0,1-1.52,1.52H14A1.52,1.52,0,0,1,12.46,45V29.87a0,0,0,0,1,0,0Z"/><path class="cls-1" d="M34.63,28.71a.75.75,0,0,1-.75-.75V21.21a.75.75,0,0,1,1.5,0V28A.75.75,0,0,1,34.63,28.71Z"/><path class="cls-1" d="M34.62,22a.75.75,0,0,1-.44-.14l-5.83-4.17a.75.75,0,0,1,.87-1.22l5.83,4.17A.75.75,0,0,1,34.62,22Z"/><circle class="cls-1" cx="28.76" cy="16.81" r="1.89"/><path class="cls-1" d="M27.2,27.83l-.2,0-3.44-.56-9.17-8.64a1.25,1.25,0,0,1,1.71-1.82l8.61,8.11,2.69.44a1.25,1.25,0,0,1-.2,2.48Z"/></svg>