<svg id="Слой_1" data-name="Слой 1" xmlns="http://www.w3.org/2000/svg" viewBox="0 0 54 54"><defs><style>.cls-1{fill:#333;}</style></defs><title>Иконки</title><circle class="cls-1" cx="27" cy="11.05" r="3.8"/><path class="cls-1" d="M33.17,17.68v3.37H20.83V17.68c0-1.56,1.61-2.82,3.6-2.82h5.15C31.56,14.86,33.17,16.12,33.17,17.68Z"/><circle class="cls-1" cx="43.08" cy="20.26" r="5.22"/><path class="cls-1" d="M51.54,29.35V33H34.61V29.35c0-2.14,2.21-3.87,4.94-3.87H46.6C49.33,25.48,51.54,27.21,51.54,29.35Z"/><circle class="cls-1" cx="10.92" cy="20.26" r="5.22"/><path class="cls-1" d="M19.39,29.35V33H2.46V29.35c0-2.14,2.21-3.87,4.94-3.87h7.06C17.18,25.48,19.39,27.21,19.39,29.35Z"/><circle class="cls-1" cx="27" cy="30.91" r="6.4"/><path class="cls-1" d="M37.38,42.05v4.7H16.62v-4.7c0-2.62,2.71-4.75,6.05-4.75h8.65C34.67,37.3,37.38,39.43,37.38,42.05Z"/></svg>