<svg id="Слой_1" data-name="Слой 1" xmlns="http://www.w3.org/2000/svg" viewBox="0 0 54 54"><defs><style>.cls-1{fill:#333;}</style></defs><title>Иконки</title><ellipse class="cls-1" cx="12.83" cy="19.55" rx="3.07" ry="3.04"/><path class="cls-1" d="M17,24.65a15.16,15.16,0,0,0-3.23,3.27H8.63V25a2.44,2.44,0,0,1,2.45-2.42h3.49A2.44,2.44,0,0,1,17,24.65Z"/><ellipse class="cls-1" cx="41.17" cy="19.55" rx="3.07" ry="3.04"/><path class="cls-1" d="M45.37,25v2.9H40.23A15.13,15.13,0,0,0,37,24.66a2.44,2.44,0,0,1,2.42-2.07h3.5A2.43,2.43,0,0,1,45.37,25Z"/><ellipse class="cls-1" cx="27" cy="13.91" rx="2.66" ry="2.64"/><path class="cls-1" d="M30.63,18.65v2.51H23.37V18.65a2.11,2.11,0,0,1,2.12-2.1h3A2.11,2.11,0,0,1,30.63,18.65Z"/><path class="cls-1" d="M42.24,36.74a14.86,14.86,0,0,1-1.24,6H13a15,15,0,0,1,1.63-14.8,15.31,15.31,0,0,1,24.74,0A15,15,0,0,1,42.24,36.74Z"/><ellipse class="cls-1" cx="47.29" cy="32.16" rx="3.49" ry="3.46"/><path class="cls-1" d="M52.06,38.38v3.3H42.52v-3.3a2.77,2.77,0,0,1,2.78-2.76h4A2.77,2.77,0,0,1,52.06,38.38Z"/><ellipse class="cls-1" cx="6.71" cy="32.16" rx="3.49" ry="3.46"/><path class="cls-1" d="M11.48,38.38v3.3H1.94v-3.3a2.77,2.77,0,0,1,2.78-2.76h4A2.77,2.77,0,0,1,11.48,38.38Z"/></svg>