<svg id="Слой_1" data-name="Слой 1" xmlns="http://www.w3.org/2000/svg" viewBox="0 0 54 54"><defs><style>.cls-1{fill:#333;}.cls-2{fill:#fff;}</style></defs><title>Иконки</title><path class="cls-1" d="M45.92,41.12a46.91,46.91,0,0,1-11.7-1.48,46.86,46.86,0,0,1-14.95-6.81L20,31.78A45.57,45.57,0,0,0,34.54,38.4,45.6,45.6,0,0,0,50,39.66l.11,1.27Q48,41.12,45.92,41.12Z"/><path class="cls-1" d="M2.93,46.59a1.28,1.28,0,0,1-1.23-1.64l7-23.66a1.28,1.28,0,0,1,.91-.88l9.27-2.34a1.28,1.28,0,0,1,1.57,1.45l-3.84,22.7a1.28,1.28,0,0,1-.93,1L3.26,46.54A1.27,1.27,0,0,1,2.93,46.59ZM11,22.71,4.81,43.49,14.28,41l3.37-20Z"/><path class="cls-1" d="M27.55,46.59a1.28,1.28,0,0,1-.34,0l-12.15-3.3a1.28,1.28,0,0,1-.93-1.45L18,19.09a1.28,1.28,0,0,1,1.67-1L28.08,21a1.28,1.28,0,0,1,.87,1.22l-.11,23.13a1.28,1.28,0,0,1-1.28,1.27Zm-10.7-5.51,9.42,2.56.09-20.54L20.25,21Z"/><path class="cls-1" d="M27.66,46.59a1.28,1.28,0,0,1-1.28-1.28V22.18a1.28,1.28,0,0,1,.8-1.19l8.15-3.3a1.28,1.28,0,0,1,1.75,1.05l2.47,23.62a1.28,1.28,0,0,1-.94,1.37L28,46.54A1.28,1.28,0,0,1,27.66,46.59ZM28.94,23v20.6l8-2.11L34.72,20.7Z"/><path class="cls-1" d="M51.07,46.78a1.3,1.3,0,0,1-.29,0L38,43.74a1.28,1.28,0,0,1-1-1.11L34.54,19a1.28,1.28,0,0,1,1.64-1.36l8.9,2.66a1.28,1.28,0,0,1,.87.9l6.35,24a1.28,1.28,0,0,1-1.24,1.61Zm-11.6-5.32,9.82,2.31-5.62-21.2-6.38-1.91Z"/><path class="cls-1" d="M3.1,45.51l-1-.83A48.19,48.19,0,0,1,16.06,33.34,50.56,50.56,0,0,1,46.51,28l-.17,1.27a49.3,49.3,0,0,0-29.67,5.15A46.92,46.92,0,0,0,3.1,45.51Z"/><path class="cls-2" d="M20.06,31.12l-.64-1.45c-.58-1.32-5.69-13-5.69-16.12a6.32,6.32,0,0,1,12.65,0c0,3.16-5.1,14.81-5.69,16.12Zm0-22.5a4.93,4.93,0,0,0-4.93,4.93c0,2.14,3.13,9.89,4.93,14.09C21.86,23.44,25,15.69,25,13.55A4.93,4.93,0,0,0,20.06,8.62Z"/><path class="cls-1" d="M20.06,7.92a5.63,5.63,0,0,0-5.63,5.63c0,3.11,5.63,15.84,5.63,15.84s5.63-12.73,5.63-15.84A5.63,5.63,0,0,0,20.06,7.92Zm0,8.81a3.55,3.55,0,1,1,3.55-3.55A3.55,3.55,0,0,1,20.06,16.73Z"/><line class="cls-1" x1="19.66" y1="41.84" x2="18.75" y2="44.34"/></svg>