<svg id="Слой_1" data-name="Слой 1" xmlns="http://www.w3.org/2000/svg" viewBox="0 0 54 54"><defs><style>.cls-1{fill:#333;}.cls-2{fill:none;stroke:#333;stroke-miterlimit:10;}</style></defs><title>Иконки</title><ellipse class="cls-1" cx="27" cy="5.68" rx="2.54" ry="2.68"/><path class="cls-1" d="M30.48,10.49V13h-7V10.49a2.09,2.09,0,0,1,2-2.14h2.9A2.09,2.09,0,0,1,30.48,10.49Z"/><ellipse class="cls-1" cx="46.43" cy="25.53" rx="3.34" ry="3.52"/><path class="cls-1" d="M51,31.84v3.35H41.86V31.84A2.74,2.74,0,0,1,44.53,29h3.81A2.74,2.74,0,0,1,51,31.84Z"/><ellipse class="cls-1" cx="7.57" cy="25.53" rx="3.34" ry="3.52"/><path class="cls-1" d="M12.14,31.84v3.35H3V31.84A2.74,2.74,0,0,1,5.66,29H9.47A2.74,2.74,0,0,1,12.14,31.84Z"/><ellipse class="cls-1" cx="13.77" cy="40.72" rx="3.52" ry="3.61"/><path class="cls-1" d="M18.59,47.21v3.44H9V47.21a2.85,2.85,0,0,1,2.81-2.88h4A2.85,2.85,0,0,1,18.59,47.21Z"/><path class="cls-2" d="M41.6,30.62c0,9.27-6.53,16.8-14.59,16.8s-14.59-7.52-14.59-16.8a18.18,18.18,0,0,1,4-11.56,14.12,14.12,0,0,1,2.16-2.14,13,13,0,0,1,16.47-.3,14.86,14.86,0,0,1,2.53,2.44A18.18,18.18,0,0,1,41.6,30.62Z"/><path class="cls-1" d="M42,11.11a3,3,0,0,1-2.79,3.09h-.3a3,3,0,0,1-2.8-3.09,2.94,2.94,0,1,1,5.88,0Z"/><path class="cls-1" d="M43.09,16.67v2.95H37.58a15.66,15.66,0,0,0-2.53-2.7v-.24a2.41,2.41,0,0,1,2.34-2.47h3.35A2.41,2.41,0,0,1,43.09,16.67Z"/><path class="cls-1" d="M39.22,14.2h0Z"/><path class="cls-1" d="M17.51,11.11a3,3,0,0,1-2.79,3.09h-.3a3,3,0,0,1-2.8-3.09A3,3,0,0,1,14.57,8,3,3,0,0,1,17.51,11.11Z"/><path class="cls-1" d="M18.59,16.67v.58a15,15,0,0,0-2.16,2.37H10.54V16.67a2.41,2.41,0,0,1,2.35-2.47h3.35A2.41,2.41,0,0,1,18.59,16.67Z"/><path class="cls-1" d="M14.42,14.2h0Z"/><ellipse class="cls-1" cx="39.87" cy="40.72" rx="3.52" ry="3.61"/><path class="cls-1" d="M44.69,47.21v3.44H35.05V47.21a2.85,2.85,0,0,1,2.81-2.88h4A2.85,2.85,0,0,1,44.69,47.21Z"/></svg>