<?xml version="1.0" encoding="UTF-8" standalone="no"?>
<!-- Created with Inkscape (http://www.inkscape.org/) -->

<svg
  xmlns:dc="http://purl.org/dc/elements/1.1/"
  xmlns:cc="http://creativecommons.org/ns#"
  xmlns:rdf="http://www.w3.org/1999/02/22-rdf-syntax-ns#"
  xmlns:sodipodi="http://sodipodi.sourceforge.net/DTD/sodipodi-0.dtd"
  xmlns:inkscape="http://www.inkscape.org/namespaces/inkscape"
  xmlns="http://www.w3.org/2000/svg"
  width="509"
  height="220"
  viewBox="0 0 134.67291 58.208335"
  version="1.1"
  id="svg6375"
  inkscape:version="0.92.4 (33fec40, 2019-01-16)"
  sodipodi:docname="1-06_en.svg"
  inkscape:export-filename="/home/gowen/Projects/notv-app/src/assets/images/banner/1-06_en_2019.png"
  inkscape:export-xdpi="131"
  inkscape:export-ydpi="131">
  <defs
    id="defs6369">
    <linearGradient
      id="linearGradient6279"
      spreadMethod="pad"
      gradientTransform="matrix(0,-112.92605,75.44126,0,37.2186,183.9917)"
      gradientUnits="userSpaceOnUse"
      y2="0"
      x2="1"
      y1="0"
      x1="0">
      <stop
        id="stop6269"
        offset="0"
        style="stop-opacity:1;stop-color:#e5007d"/>
      <stop
        id="stop6271"
        offset="0.24"
        style="stop-opacity:1;stop-color:#e5004f"/>
      <stop
        id="stop6273"
        offset="0.48"
        style="stop-opacity:1;stop-color:#e3000f"/>
      <stop
        id="stop6275"
        offset="0.74"
        style="stop-opacity:1;stop-color:#f39100"/>
      <stop
        id="stop6277"
        offset="1"
        style="stop-opacity:1;stop-color:#ffed00"/>
    </linearGradient>
  </defs>
  <sodipodi:namedview
    id="base"
    pagecolor="#ffffff"
    bordercolor="#666666"
    borderopacity="1.0"
    inkscape:pageopacity="0.0"
    inkscape:pageshadow="2"
    inkscape:zoom="1.979899"
    inkscape:cx="313.82881"
    inkscape:cy="7.7796327"
    inkscape:document-units="mm"
    inkscape:current-layer="layer1"
    showgrid="false"
    units="px"
    inkscape:window-width="2493"
    inkscape:window-height="1376"
    inkscape:window-x="2627"
    inkscape:window-y="27"
    inkscape:window-maximized="1"/>
  <metadata
    id="metadata6372">
    <rdf:RDF>
      <cc:Work
        rdf:about="">
        <dc:format>image/svg+xml</dc:format>
        <dc:type
          rdf:resource="http://purl.org/dc/dcmitype/StillImage"/>
        <dc:title></dc:title>
      </cc:Work>
    </rdf:RDF>
  </metadata>
  <g
    inkscape:label="Layer 1"
    inkscape:groupmode="layer"
    id="layer1"
    transform="translate(0,-238.79165)">
    <g
      transform="matrix(0.47070796,0,0,-0.47070796,-15.996702,327.75441)"
      inkscape:label="LOGO_C_YELTSINIM_ENG"
      id="g6257">
      <g
        id="g6259">
        <g
          id="g6261">
          <g
            id="g6267">
            <path
              inkscape:connector-curvature="0"
              id="path6281"
              style="fill:url(#linearGradient6279);fill-rule:evenodd;stroke:none"
              d="m 37.2189,179.4362 v -0.001 c 9.186,-0.0108 13.0757,-6.4078 17.2054,-13.2818 v 0 l 33.8196,-57.9943 c 1.5945,-2.8947 3.1663,-6.3915 3.1187,-9.6687 v 0 C 91.2379,89.9609 80.1621,86.8377 73.5358,86.5103 v 0 c -4.8501,-0.239 -9.642,0.8977 -13.9558,2.8369 v 0 l -2.6926,-3.4665 c 1.5687,-6.6912 7.7624,-14.815 16.2737,-14.7535 v 0 c 14.7824,0.1043 22.5467,13.6239 28.4896,24.6319 v 0 l 11.0092,20.3979 -31.9553,54.7957 c -2.954,4.9039 1.8927,8.4685 7.0421,8.4977 v 0 l 1.1744,4.5408 H 38.3975 Z"/>
          </g>
        </g>
      </g>
      <path
        inkscape:connector-curvature="0"
        id="path6283"
        style="fill:#1a1a18;fill-opacity:1;fill-rule:nonzero;stroke:none"
        d="m 132.9554,89.6374 v 5.0718 c 0,0.25 -0.0128,0.489 -0.0408,0.7138 -0.027,0.2239 -0.0874,0.4189 -0.1806,0.5825 -0.0927,0.1635 -0.2274,0.2939 -0.4017,0.3855 -0.1746,0.0916 -0.4059,0.1397 -0.6891,0.1397 -0.2185,0 -0.4317,-0.034 -0.633,-0.0978 -0.2004,-0.0646 -0.392,-0.1454 -0.5655,-0.2301 -0.1732,-0.0865 -0.3356,-0.1854 -0.4756,-0.2875 -0.1398,-0.1034 -0.2628,-0.195 -0.3606,-0.2712 v -6.0067 h -1.2801 v 7.8775 h 0.9516 l 0.3112,-0.8203 1.2467,0.7064 c 0.1542,0.0859 0.3328,0.1647 0.534,0.229 0.2002,0.0635 0.3799,0.0992 0.533,0.0992 0.5479,0 0.9785,-0.1 1.2886,-0.2951 0.3101,-0.1958 0.5468,-0.449 0.6984,-0.7472 0.15,-0.2993 0.2501,-0.6284 0.2866,-0.9765 0.0355,-0.3495 0.0559,-0.6815 0.0559,-0.9859 v -5.0871 z m 9.0422,0.082 c -0.174,-0.0655 -0.3614,-0.1248 -0.5564,-0.1721 -0.1948,-0.0485 -0.3887,-0.0734 -0.5749,-0.0734 -0.2293,0 -0.409,0.0419 -0.5329,0.1227 -0.125,0.0797 -0.2293,0.2637 -0.3036,0.5502 l -0.0828,0.311 -0.8526,-0.5576 c -0.262,-0.1712 -0.4876,-0.2971 -0.673,-0.3614 -0.184,-0.0638 -0.362,-0.0981 -0.5264,-0.0981 -0.5136,0 -0.9187,0.0819 -1.2146,0.2464 -0.2948,0.1638 -0.5199,0.3662 -0.673,0.5986 -0.1502,0.2336 -0.2528,0.4899 -0.2948,0.7549 -0.0419,0.267 -0.0655,0.5057 -0.0655,0.7138 0,0.4926 0.1086,0.9105 0.3283,1.2551 0.2194,0.3445 0.521,0.6285 0.9023,0.8451 0.3821,0.2174 0.8396,0.3823 1.3629,0.4852 0.5232,0.1027 1.0936,0.1619 1.7064,0.1704 v 0.6095 c 0,0.4694 -0.1015,0.8331 -0.3027,1.0904 -0.2033,0.2571 -0.5888,0.3867 -1.1585,0.3867 -0.4045,0 -0.7773,-0.0465 -1.1152,-0.1315 -0.337,-0.0862 -0.6514,-0.1809 -0.9354,-0.2787 l -0.2951,0.8867 c 0.3713,0.2069 0.775,0.3719 1.2059,0.4912 0.4314,0.1182 0.873,0.1798 1.322,0.1798 0.9397,0 1.6019,-0.2101 1.984,-0.631 0.3832,-0.4218 0.576,-0.9851 0.576,-1.6816 v -4.892 h 0.7696 z m -2.0506,3.8565 c -0.2735,0 -0.5848,-0.0196 -0.9346,-0.0584 -0.3486,-0.0354 -0.6825,-0.1205 -0.9938,-0.2452 -0.3101,-0.1241 -0.576,-0.3024 -0.788,-0.5255 -0.212,-0.2217 -0.3198,-0.5276 -0.3198,-0.9108 0,-0.4144 0.0817,-0.7376 0.239,-0.9604 0.1562,-0.2219 0.4459,-0.3359 0.8603,-0.3359 0.1315,0 0.2894,0.0315 0.4672,0.0907 0.1797,0.059 0.3662,0.1409 0.551,0.2376 0.1846,0.0972 0.3628,0.2049 0.5256,0.3123 0.1627,0.1066 0.295,0.2132 0.3931,0.3121 z m 11.7182,-3.9385 v 5.2356 c 0,0.5134 -0.0817,0.9193 -0.2461,1.2144 -0.1641,0.2959 -0.4589,0.4433 -0.8864,0.4433 -0.1851,0 -0.3713,-0.0311 -0.5576,-0.0912 -0.1859,-0.0593 -0.3605,-0.1367 -0.5255,-0.2294 -0.1636,-0.0924 -0.3121,-0.1927 -0.4425,-0.2948 -0.1298,-0.1034 -0.2409,-0.195 -0.3291,-0.2712 v -6.0067 h -1.279 v 5.2356 c 0,0.2518 -0.0127,0.4845 -0.0334,0.6889 -0.0204,0.2058 -0.0732,0.3832 -0.1477,0.5255 -0.0754,0.1409 -0.186,0.252 -0.3283,0.3283 -0.142,0.0754 -0.3336,0.115 -0.5737,0.115 -0.1746,0 -0.3521,-0.0297 -0.5264,-0.0827 -0.1735,-0.0539 -0.3424,-0.1259 -0.4995,-0.2121 -0.1593,-0.0881 -0.3089,-0.1851 -0.4512,-0.2885 -0.1432,-0.1032 -0.269,-0.2047 -0.3776,-0.3033 v -6.0067 h -1.2813 v 7.8775 h 0.9528 l 0.3109,-0.8203 0.7722,0.4759 c 0.0754,0.0474 0.1732,0.1001 0.2871,0.1636 0.1131,0.0655 0.2381,0.127 0.377,0.1808 0.1367,0.0539 0.2756,0.1035 0.4102,0.1474 0.1378,0.0443 0.2605,0.0669 0.3702,0.0669 0.2948,0 0.5448,-0.0323 0.745,-0.0893 0.2015,-0.0592 0.3747,-0.1454 0.5093,-0.2477 0.137,-0.1035 0.2574,-0.2259 0.3541,-0.3617 0.0969,-0.1355 0.1854,-0.2767 0.2628,-0.4176 l 0.8858,0.5576 c 0.2211,0.1401 0.4677,0.2724 0.739,0.3852 0.2713,0.1143 0.5187,0.1735 0.7373,0.1735 0.4705,0 0.8441,-0.0839 1.1163,-0.2455 0.2724,-0.1638 0.479,-0.3866 0.6156,-0.6664 0.1358,-0.2789 0.2243,-0.6072 0.2628,-0.9842 0.0388,-0.3778 0.0593,-0.7835 0.0593,-1.2055 v -4.9902 z m 4.1686,3.6596 c 0,-0.3286 0.0196,-0.6611 0.0496,-0.9927 0.0323,-0.3317 0.1227,-0.6353 0.2628,-0.9023 0.1409,-0.2656 0.352,-0.4864 0.6242,-0.6576 0.2727,-0.169 0.6559,-0.2543 1.1488,-0.2543 0.3382,0 0.6945,0.0326 1.0667,0.0904 0.3694,0.0604 0.7659,0.1724 1.1812,0.3359 l 0.362,-0.9181 c -0.3501,-0.1636 -0.7495,-0.3044 -1.19,-0.4187 -0.4422,-0.1131 -0.9331,-0.1723 -1.4703,-0.1723 -0.7002,0 -1.2739,0.1063 -1.715,0.3121 -0.4405,0.2069 -0.7925,0.494 -1.0485,0.8611 -0.2585,0.3671 -0.4351,0.8034 -0.5267,1.3051 -0.0913,0.5015 -0.1386,1.0463 -0.1386,1.6254 0,0.3501 0.034,0.7699 0.0978,1.2566 0.0643,0.4841 0.2075,0.9519 0.4187,1.3941 0.2109,0.4402 0.5221,0.8203 0.9269,1.1316 0.4059,0.3121 0.9519,0.4682 1.643,0.4682 0.731,0 1.3047,-0.1216 1.7214,-0.3693 0.4153,-0.2455 0.7277,-0.5749 0.9366,-0.9851 0.2067,-0.4101 0.3348,-0.8849 0.3855,-1.4286 0.0482,-0.5414 0.072,-1.1013 0.072,-1.6815 z m 1.7067,3.3976 c -0.2951,0 -0.5493,-0.0743 -0.7636,-0.2206 -0.2129,-0.1476 -0.3906,-0.3401 -0.5329,-0.5674 -0.1409,-0.2285 -0.2466,-0.4822 -0.3121,-0.7549 -0.0635,-0.2721 -0.0981,-0.5426 -0.0981,-0.8051 h 3.4311 c 0,0.3399 -0.0247,0.6514 -0.074,0.9366 -0.0499,0.284 -0.1401,0.5295 -0.2713,0.7396 -0.1315,0.2069 -0.3101,0.3713 -0.5332,0.4921 -0.2228,0.1173 -0.5068,0.1797 -0.8459,0.1797 z m 9.2574,-7.0572 -0.3112,0.8204 -0.8065,-0.5088 c -0.5371,-0.3396 -0.9785,-0.5244 -1.3283,-0.5244 -0.5349,0 -0.9745,0.1162 -1.3124,0.3532 -0.3402,0.2347 -0.6072,0.5434 -0.8051,0.9258 -0.195,0.3841 -0.3328,0.8288 -0.4008,1.3305 -0.07,0.5004 -0.1086,1.0163 -0.1086,1.5418 0,0.4487 0.0409,0.9204 0.1225,1.4122 0.0853,0.4933 0.2296,0.9442 0.4371,1.3544 0.2078,0.4093 0.4944,0.7484 0.8614,1.0174 0.366,0.2681 0.8346,0.4016 1.404,0.4016 0.2509,0 0.5545,-0.0592 0.902,-0.1723 0.3487,-0.1142 0.6891,-0.3152 1.0174,-0.5984 v 4.2661 h 1.2812 V 89.6374 Z m -0.3285,6.3508 c -0.2509,0.1647 -0.5233,0.3263 -0.813,0.4858 -0.2871,0.156 -0.6145,0.2379 -0.9762,0.2379 -0.3402,0 -0.6137,-0.1208 -0.8204,-0.3532 -0.2078,-0.2347 -0.3691,-0.5168 -0.4844,-0.845 -0.1143,-0.3283 -0.1905,-0.673 -0.2294,-1.0358 -0.0385,-0.3606 -0.0581,-0.6664 -0.0581,-0.9182 0,-1.0057 0.1112,-1.7475 0.3283,-2.2246 0.2197,-0.4745 0.6245,-0.7135 1.2155,-0.7135 0.1423,0 0.3016,0.0292 0.4748,0.082 0.1735,0.0535 0.3475,0.1278 0.5091,0.2128 0.1638,0.0885 0.3212,0.1854 0.4671,0.2878 0.1457,0.1034 0.2781,0.2055 0.3867,0.3035 z m 13.1148,-6.2688 c -0.1775,-0.0655 -0.3649,-0.1248 -0.561,-0.1721 -0.1945,-0.0485 -0.3875,-0.0734 -0.5735,-0.0734 -0.2293,0 -0.4101,0.0419 -0.5329,0.1227 -0.1261,0.0797 -0.2296,0.2637 -0.305,0.5502 l -0.0816,0.311 -0.8535,-0.5576 c -0.2608,-0.1712 -0.487,-0.2971 -0.673,-0.3614 -0.1831,-0.0638 -0.3594,-0.0981 -0.5255,-0.0981 -0.5134,0 -0.9185,0.0819 -1.2133,0.2464 -0.2962,0.1638 -0.521,0.3662 -0.6726,0.5986 -0.1531,0.2336 -0.2532,0.4899 -0.2962,0.7549 -0.0409,0.267 -0.0658,0.5057 -0.0658,0.7138 0,0.4926 0.1111,0.9105 0.3283,1.2551 0.2196,0.3445 0.5235,0.6285 0.9045,0.8451 0.3812,0.2174 0.8365,0.3823 1.3595,0.4852 0.5264,0.1027 1.0961,0.1619 1.7076,0.1704 v 0.6095 c 0,0.4694 -0.1001,0.8331 -0.3033,1.0904 -0.2016,0.2571 -0.5891,0.3867 -1.1577,0.3867 -0.4025,0 -0.7773,-0.0465 -1.114,-0.1315 -0.3382,-0.0862 -0.6514,-0.1809 -0.9357,-0.2787 l -0.2971,0.8867 c 0.3736,0.2069 0.7773,0.3719 1.2059,0.4912 0.4325,0.1182 0.873,0.1798 1.322,0.1798 0.9408,0 1.6039,-0.2101 1.9871,-0.631 0.3813,-0.4218 0.5752,-0.9851 0.5752,-1.6816 v -4.892 h 0.7716 z m -2.054,3.8565 c -0.2724,0 -0.5857,-0.0196 -0.9355,-0.0584 -0.3466,-0.0354 -0.6825,-0.1205 -0.9915,-0.2452 -0.3113,-0.1241 -0.576,-0.3024 -0.7883,-0.5255 -0.2121,-0.2217 -0.3206,-0.5276 -0.3206,-0.9108 0,-0.4144 0.0816,-0.7376 0.2389,-0.9604 0.1562,-0.2219 0.4459,-0.3359 0.8603,-0.3359 0.1333,0 0.2895,0.0315 0.468,0.0907 0.1789,0.059 0.3651,0.1409 0.5502,0.2376 0.1843,0.0972 0.3617,0.2049 0.5256,0.3123 0.1616,0.1066 0.2948,0.2132 0.3929,0.3121 z m 7.1733,6.4174 c -0.1839,0.043 -0.3897,0.0785 -0.6074,0.098 -0.2163,0.0204 -0.4218,0.0332 -0.6081,0.0332 -0.3832,0 -0.6556,-0.0904 -0.8195,-0.2713 -0.1644,-0.1805 -0.2463,-0.4694 -0.2463,-0.8611 v -1.4772 h 1.9678 v -1 h -1.9678 v -6.8775 h -1.2801 v 6.8775 h -1.1001 v 0.6726 l 1.1001,0.3274 v 1.4437 c 0,0.7226 0.1882,1.294 0.5663,1.717 0.3768,0.4212 0.9213,0.6312 1.6331,0.6312 0.2296,0 0.4805,-0.028 0.7546,-0.0819 0.2727,-0.055 0.5524,-0.155 0.8365,-0.2962 z m 3.3795,-10.586 c -0.379,0 -0.699,0.0493 -0.9434,0.14 -0.2432,0.0916 -0.4382,0.2347 -0.5737,0.4187 -0.1347,0.1851 -0.2313,0.4136 -0.2798,0.6814 -0.0485,0.2682 -0.0723,0.5826 -0.0723,0.942 v 4.892 h -1.3799 v 0.6891 l 1.3799,0.3283 0.3274,2.1004 h 0.9678 v -2.0843 h 2.0197 V 96.4814 H 187.509 V 91.853 c 0,-0.4884 0.07,-0.8385 0.2046,-1.0344 0.1355,-0.1947 0.3651,-0.295 0.6804,-0.295 0.1981,0 0.4254,0.0153 0.6834,0.0411 0.2574,0.0269 0.4847,0.0677 0.6806,0.1236 l 0.1811,-0.9034 c -0.1993,-0.0978 -0.3943,-0.1721 -0.5924,-0.2214 -0.1948,-0.0485 -0.379,-0.0865 -0.5392,-0.1058 -0.1635,-0.0224 -0.3112,-0.0354 -0.4371,-0.0419 -0.1261,-0.0054 -0.2188,-0.0085 -0.2704,-0.0085 z m 3.6592,3.8897 c 0,-0.3286 0.0193,-0.6611 0.0505,-0.9927 0.0323,-0.3317 0.1239,-0.6353 0.2628,-0.9023 0.14,-0.2656 0.35,-0.4864 0.6233,-0.6576 0.2735,-0.169 0.6576,-0.2543 1.1497,-0.2543 0.3371,0 0.6965,0.0326 1.0659,0.0904 0.3713,0.0604 0.7676,0.1724 1.182,0.3359 l 0.3617,-0.9181 c -0.3487,-0.1636 -0.7495,-0.3044 -1.192,-0.4187 -0.441,-0.1131 -0.9309,-0.1723 -1.468,-0.1723 -0.6988,0 -1.2716,0.1063 -1.715,0.3121 -0.4416,0.2069 -0.7914,0.494 -1.0488,0.8611 -0.2594,0.3671 -0.4348,0.8034 -0.5264,1.3051 -0.0927,0.5015 -0.1386,1.0463 -0.1386,1.6254 0,0.3501 0.0351,0.7699 0.0978,1.2566 0.0658,0.4841 0.2075,0.9519 0.4195,1.3941 0.2092,0.4402 0.5202,0.8203 0.9261,1.1316 0.4048,0.3121 0.9527,0.4682 1.643,0.4682 0.7299,0 1.3079,-0.1216 1.7214,-0.3693 0.4153,-0.2455 0.7288,-0.5749 0.9355,-0.9851 0.2089,-0.4101 0.3359,-0.8849 0.3866,-1.4286 0.0485,-0.5414 0.072,-1.1013 0.072,-1.6815 z m 1.7076,3.3976 c -0.2939,0 -0.5493,-0.0743 -0.7625,-0.2206 -0.212,-0.1476 -0.3929,-0.3401 -0.5326,-0.5674 -0.1423,-0.2285 -0.2481,-0.4822 -0.3135,-0.7549 -0.0627,-0.2721 -0.099,-0.5426 -0.099,-0.8051 h 3.4319 c 0,0.3399 -0.0238,0.6514 -0.0739,0.9366 -0.0485,0.284 -0.1401,0.5295 -0.2705,0.7396 -0.1323,0.2069 -0.3109,0.3713 -0.5329,0.4921 -0.2239,0.1173 -0.5071,0.1797 -0.847,0.1797 z m 5.5162,0.8538 0.2951,-1.0831 c 0.3714,0.3509 0.7824,0.6468 1.2314,0.8861 0.4459,0.2389 0.9343,0.3832 1.4598,0.4272 l 0.2294,-1.4942 c -0.6781,-0.0658 -1.2405,-0.1358 -1.6815,-0.2055 -0.4414,-0.0689 -0.8516,-0.1616 -1.2232,-0.2704 v -6.1711 h -1.2983 v 7.911 z m 10.3556,-8.1411 c -0.3802,0 -0.701,0.0493 -0.9431,0.14 -0.2446,0.0916 -0.4405,0.2347 -0.5752,0.4187 -0.1355,0.1851 -0.2313,0.4136 -0.2797,0.6814 -0.0474,0.2682 -0.072,0.5826 -0.072,0.942 v 4.892 h -1.3802 v 0.6891 l 1.3802,0.3283 0.3285,2.1004 h 0.9666 v -2.0843 h 2.0186 v -1.0335 h -2.0186 V 91.853 c 0,-0.4884 0.07,-0.8385 0.2058,-1.0344 0.1346,-0.1947 0.3637,-0.295 0.68,-0.295 0.1973,0 0.4235,0.0153 0.6815,0.0411 0.2565,0.0269 0.4856,0.0677 0.6806,0.1236 l 0.1808,-0.9034 c -0.1947,-0.0978 -0.3928,-0.1721 -0.591,-0.2214 -0.195,-0.0485 -0.3781,-0.0865 -0.5403,-0.1058 -0.1635,-0.0224 -0.3112,-0.0354 -0.4362,-0.0419 -0.1259,-0.0054 -0.2197,-0.0085 -0.2702,-0.0085 z m 7.2884,0.2301 v 5.0718 c 0,0.25 -0.013,0.489 -0.0408,0.7138 -0.0272,0.2239 -0.0873,0.4189 -0.1789,0.5825 -0.0966,0.1635 -0.2313,0.2939 -0.4059,0.3855 -0.1732,0.0916 -0.4045,0.1397 -0.6899,0.1397 -0.2197,0 -0.4306,-0.034 -0.631,-0.0978 -0.2002,-0.0646 -0.3941,-0.1454 -0.5675,-0.2301 -0.1732,-0.0865 -0.3348,-0.1854 -0.4746,-0.2875 -0.14,-0.1034 -0.2627,-0.195 -0.3617,-0.2712 v -6.0067 h -1.2789 v 11.6195 h 1.2617 v -4.5623 l 1.2489,0.7064 c 0.1528,0.0859 0.3379,0.1647 0.5479,0.229 0.2121,0.0635 0.3983,0.0992 0.55,0.0992 0.5502,0 0.9765,-0.1 1.2832,-0.2951 0.3036,-0.1958 0.5375,-0.449 0.6902,-0.7472 0.1497,-0.2993 0.2455,-0.6276 0.2778,-0.9765 0.0332,-0.3509 0.0508,-0.6815 0.0508,-0.9859 v -5.0871 z m 4.0198,3.6596 c 0,-0.3286 0.0173,-0.6611 0.0485,-0.9927 0.0346,-0.3317 0.1239,-0.6353 0.2636,-0.9023 0.1415,-0.2656 0.3501,-0.4864 0.6248,-0.6576 0.2721,-0.169 0.6556,-0.2543 1.1474,-0.2543 0.3402,0 0.6968,0.0326 1.0662,0.0904 0.3713,0.0604 0.7673,0.1724 1.1817,0.3359 l 0.362,-0.9181 c -0.3489,-0.1636 -0.7475,-0.3044 -1.19,-0.4187 -0.4402,-0.1131 -0.9323,-0.1723 -1.4683,-0.1723 -0.7008,0 -1.2736,0.1063 -1.7147,0.3121 -0.4416,0.2069 -0.7937,0.494 -1.0508,0.8611 -0.2563,0.3671 -0.4351,0.8034 -0.5244,1.3051 -0.0927,0.5015 -0.1412,1.0463 -0.1412,1.6254 0,0.3501 0.0357,0.7699 0.0978,1.2566 0.0661,0.4841 0.2081,0.9519 0.4201,1.3941 0.212,0.4402 0.5199,0.8203 0.9258,1.1316 0.4051,0.3121 0.9527,0.4682 1.643,0.4682 0.733,0 1.3081,-0.1216 1.7212,-0.3693 0.4178,-0.2455 0.729,-0.5749 0.9368,-0.9851 0.2101,-0.4101 0.3379,-0.8849 0.3855,-1.4286 0.0482,-0.5414 0.0754,-1.1013 0.0754,-1.6815 z m 1.7053,3.3976 c -0.2939,0 -0.549,-0.0743 -0.7619,-0.2206 -0.2123,-0.1476 -0.3932,-0.3401 -0.5332,-0.5674 -0.1397,-0.2285 -0.2475,-0.4822 -0.311,-0.7549 -0.0646,-0.2721 -0.0992,-0.5426 -0.0992,-0.8051 h 3.4302 c 0,0.3399 -0.0238,0.6514 -0.0745,0.9366 -0.0482,0.284 -0.1375,0.5295 -0.2702,0.7396 -0.1301,0.2069 -0.3112,0.3713 -0.5298,0.4921 -0.2247,0.1173 -0.5102,0.1797 -0.8504,0.1797 z m 12.2602,3.2987 c -0.1851,0.043 -0.3875,0.0785 -0.6049,0.098 -0.2175,0.0204 -0.4221,0.0332 -0.6084,0.0332 -0.3821,0 -0.6556,-0.0904 -0.8203,-0.2713 -0.1636,-0.1805 -0.2458,-0.4694 -0.2458,-0.8611 v -1.4772 h 1.9681 v -1 h -1.9681 v -6.8775 h -1.2798 v 6.8775 h -1.1001 v 0.6726 l 1.1001,0.3274 v 1.4437 c 0,0.7226 0.1874,1.294 0.5664,1.717 0.3778,0.4212 0.9215,0.6312 1.6321,0.6312 0.2294,0 0.4814,-0.028 0.7558,-0.0819 0.2732,-0.055 0.5522,-0.155 0.8376,-0.2962 z m 1.8723,-0.4919 c -0.2413,0 -0.4445,0.084 -0.6084,0.2537 -0.1635,0.1704 -0.2466,0.3802 -0.2466,0.6322 0,0.2401 0.0831,0.4447 0.2466,0.6157 0.1639,0.1692 0.3671,0.2539 0.6084,0.2539 0.2508,0 0.4606,-0.087 0.6244,-0.2624 0.1644,-0.1744 0.2466,-0.3782 0.2466,-0.6072 0,-0.2401 -0.0853,-0.451 -0.2466,-0.6236 -0.1638,-0.1732 -0.3736,-0.2623 -0.6244,-0.2623 z m -0.4748,-3.0038 -0.8723,0.2304 v 0.8039 h 2.1521 v -7.8945 h -1.2798 z m 4.4804,1.0508 0.2951,-1.0831 c 0.3736,0.3509 0.7838,0.6468 1.2297,0.8861 0.449,0.2389 0.9354,0.3832 1.4618,0.4272 l 0.2282,-1.4942 c -0.6761,-0.0658 -1.2391,-0.1358 -1.6807,-0.2055 -0.4433,-0.0689 -0.8512,-0.1616 -1.2226,-0.2704 v -6.1711 h -1.2974 v 7.911 z m 5.5287,-8.1411 c -0.4147,0 -0.8303,0.0428 -1.2373,0.1224 -0.4088,0.0831 -0.7407,0.1846 -0.9936,0.305 l 0.3271,0.9678 c 0.2985,-0.1205 0.6115,-0.2143 0.9358,-0.2789 0.3282,-0.0635 0.6468,-0.099 0.9538,-0.099 0.5244,0 0.9397,0.0967 1.2467,0.2875 0.3067,0.1916 0.4586,0.5391 0.4586,1.0423 0,0.4714 -0.1204,0.8127 -0.3693,1.0258 -0.2455,0.2132 -0.6341,0.3983 -1.1583,0.5499 -0.2908,0.0865 -0.5782,0.1789 -0.8441,0.2705 -0.265,0.0924 -0.5037,0.2197 -0.7061,0.3767 -0.2024,0.1604 -0.3643,0.3651 -0.489,0.6168 -0.1281,0.2509 -0.1916,0.5794 -0.1916,0.985 0,0.4048 0.085,0.7484 0.2457,1.0262 0.1622,0.2767 0.3722,0.5017 0.6265,0.6715 0.2495,0.1692 0.5349,0.2954 0.8427,0.3694 0.311,0.0754 0.616,0.1153 0.9119,0.1153 0.4275,0 0.8227,-0.0408 1.1897,-0.1216 0.3663,-0.0842 0.6361,-0.1681 0.813,-0.2565 l -0.2973,-0.9505 c -0.2509,0.0862 -0.5233,0.152 -0.8195,0.1962 -0.2945,0.0431 -0.5573,0.0655 -0.79,0.0655 -0.9936,0 -1.4922,-0.3725 -1.4922,-1.1155 0,-0.2086 0.0411,-0.3798 0.1154,-0.5091 0.0754,-0.1292 0.1817,-0.2378 0.3109,-0.3197 0.1335,-0.0819 0.2875,-0.1562 0.4621,-0.2132 0.1732,-0.0592 0.3637,-0.1151 0.5564,-0.1734 0.2744,-0.0808 0.5522,-0.184 0.8303,-0.2875 0.2775,-0.102 0.5295,-0.2517 0.7546,-0.4433 0.2216,-0.1897 0.4079,-0.4317 0.5405,-0.7214 0.1344,-0.2897 0.2044,-0.6645 0.2044,-1.1248 0,-0.4244 -0.0777,-0.7906 -0.2296,-1.0908 -0.1516,-0.2993 -0.3637,-0.5468 -0.6307,-0.7384 -0.2679,-0.1908 -0.5803,-0.3305 -0.9366,-0.4187 -0.3551,-0.0887 -0.735,-0.1315 -1.1409,-0.1315 z m 6.6305,0 c -0.3778,0 -0.6965,0.0493 -0.9411,0.14 -0.2452,0.0916 -0.4402,0.2347 -0.576,0.4187 -0.1344,0.1851 -0.2313,0.4136 -0.2798,0.6814 -0.0482,0.2682 -0.072,0.5826 -0.072,0.942 v 4.892 h -1.3804 v 0.6891 l 1.3804,0.3283 0.3271,2.1004 h 0.9681 v -2.0843 h 2.0182 v -1.0335 h -2.0182 V 91.853 c 0,-0.4884 0.0697,-0.8385 0.2044,-1.0344 0.1357,-0.1947 0.3648,-0.295 0.6825,-0.295 0.1959,0 0.423,0.0153 0.6804,0.0411 0.2585,0.0269 0.4844,0.0677 0.6806,0.1236 l 0.1805,-0.9034 c -0.1947,-0.0978 -0.394,-0.1721 -0.5907,-0.2214 -0.1959,-0.0485 -0.379,-0.0865 -0.5406,-0.1058 -0.1635,-0.0224 -0.3078,-0.0354 -0.436,-0.0419 -0.1261,-0.0054 -0.2177,-0.0085 -0.2701,-0.0085 z"/>
      <path
        inkscape:connector-curvature="0"
        id="path6285"
        style="fill:#1a1a18;fill-opacity:1;fill-rule:nonzero;stroke:none"
        d="m 131.4541,72.57 c -0.5694,0 -1.055,0.1089 -1.4533,0.3218 -0.3974,0.2112 -0.7237,0.5051 -0.9754,0.8776 -0.252,0.3716 -0.4371,0.8096 -0.5502,1.3124 -0.1139,0.5026 -0.1721,1.0452 -0.1721,1.6257 0,0.5468 0.0559,1.0755 0.1636,1.5826 0.1086,0.5079 0.294,0.9578 0.5502,1.3456 0.256,0.3875 0.5908,0.6976 1.0009,0.9278 0.4102,0.2296 0.9111,0.3438 1.5021,0.3438 0.578,0 1.0755,-0.1069 1.4845,-0.32 0.409,-0.2121 0.7452,-0.5049 1.0004,-0.8773 0.2582,-0.3725 0.4444,-0.8088 0.5595,-1.3133 0.1154,-0.5029 0.1724,-1.0401 0.1724,-1.6076 0,-0.5683 -0.059,-1.1089 -0.1724,-1.6168 -0.1139,-0.5083 -0.3067,-0.9584 -0.5661,-1.3459 -0.2619,-0.3875 -0.6043,-0.6957 -1.0187,-0.9193 -0.4145,-0.224 -0.9236,-0.3371 -1.5254,-0.3371 z m 0.0658,7.2874 c -0.3725,0 -0.6772,-0.0808 -0.9119,-0.2379 -0.2324,-0.1581 -0.4209,-0.3758 -0.5579,-0.648 -0.1366,-0.2735 -0.2313,-0.5924 -0.286,-0.9595 -0.055,-0.3671 -0.0839,-0.7534 -0.0839,-1.158 0,-0.4697 0.0289,-0.9025 0.0839,-1.2965 0.0536,-0.3929 0.1517,-0.7362 0.286,-1.0247 0.137,-0.2897 0.3255,-0.5157 0.5579,-0.6741 0.2347,-0.1571 0.5394,-0.2367 0.9119,-0.2367 0.3606,0 0.6591,0.0765 0.8946,0.2293 0.2336,0.1517 0.4221,0.3702 0.5565,0.6491 0.1369,0.2778 0.2369,0.6146 0.2962,1.0078 0.0604,0.3948 0.0904,0.8257 0.0904,1.2971 0,0.4048 -0.0281,0.7903 -0.0828,1.1574 -0.0541,0.3662 -0.1542,0.6891 -0.2953,0.968 -0.1409,0.2775 -0.3314,0.5046 -0.565,0.6715 -0.2347,0.1701 -0.534,0.2552 -0.8946,0.2552 z m 8.6655,3.2998 c -0.1865,0.0431 -0.3889,0.0762 -0.6074,0.0989 -0.2175,0.0196 -0.4207,0.0323 -0.6072,0.0323 -0.3833,0 -0.6568,-0.0901 -0.8212,-0.2713 -0.1639,-0.1797 -0.2458,-0.4694 -0.2458,-0.8611 v -1.4783 h 1.9692 v -1.0001 h -1.9692 v -6.8751 h -1.2798 v 6.8751 h -1.0993 v 0.673 l 1.0993,0.3271 v 1.4437 c 0,0.7225 0.1882,1.294 0.566,1.7161 0.3771,0.4212 0.923,0.6321 1.6334,0.6321 0.2304,0 0.4799,-0.0281 0.7546,-0.0819 0.2735,-0.055 0.5513,-0.1542 0.8365,-0.2951 z m 9.8626,-10.3547 -1.9196,4.8231 h -1.8216 v -4.8231 h -1.3459 V 84.011 h 2.8562 c 0.5137,0 0.9817,-0.0581 1.4029,-0.1735 0.4221,-0.1151 0.7835,-0.296 1.0831,-0.5414 0.3002,-0.2455 0.5341,-0.5556 0.6976,-0.9258 0.1644,-0.3736 0.2464,-0.8204 0.2464,-1.3468 0,-0.8753 -0.2121,-1.5987 -0.6319,-2.1673 -0.4212,-0.5673 -1.0162,-0.9451 -1.7807,-1.1325 l 1.0335,-0.7376 1.7235,-4.1836 z m -0.18,8.2037 c 0,0.3725 -0.068,0.6792 -0.197,0.9182 -0.1304,0.2423 -0.3002,0.4317 -0.5083,0.5686 -0.2077,0.1358 -0.4501,0.2282 -0.7222,0.2789 -0.2733,0.0482 -0.548,0.072 -0.8215,0.072 h -1.3122 v -4.0371 h 1.3122 c 0.7449,0 1.3059,0.1763 1.6826,0.525 0.3779,0.349 0.5664,0.9088 0.5664,1.6744 z m 4.1859,-0.3285 v -5.0706 c 0,-0.2509 0.0136,-0.4898 0.0408,-0.7138 0.0247,-0.225 0.0871,-0.4187 0.1798,-0.5825 0.0924,-0.1636 0.227,-0.2937 0.4025,-0.3852 0.1735,-0.0939 0.405,-0.1401 0.6879,-0.1401 0.209,0 0.4179,0.0335 0.6257,0.099 0.2055,0.0649 0.4002,0.1423 0.5737,0.2293 0.1732,0.0865 0.3336,0.1831 0.4759,0.2874 0.1412,0.1035 0.2617,0.1939 0.3606,0.2705 v 6.006 h 1.2801 v -7.8752 h -0.9519 l -0.3109,0.8195 -1.2478,-0.7075 c -0.1531,-0.0848 -0.3371,-0.1636 -0.5491,-0.2305 -0.2143,-0.0621 -0.3974,-0.0967 -0.5502,-0.0967 -0.5477,0 -0.9754,0.099 -1.2799,0.296 -0.3058,0.195 -0.5374,0.4459 -0.6891,0.7461 -0.1542,0.3004 -0.2474,0.6267 -0.2797,0.9776 -0.0338,0.3478 -0.0499,0.6772 -0.0499,0.9839 v 5.0868 z m 7.9903,-8.1077 c -0.4155,0 -0.828,0.0431 -1.2382,0.1228 -0.4101,0.0819 -0.7406,0.1842 -0.9926,0.3036 l 0.3274,0.97 c 0.2959,-0.1205 0.6091,-0.2154 0.9354,-0.2789 0.3282,-0.0644 0.6469,-0.099 0.9527,-0.099 0.5264,0 0.9411,0.0958 1.2467,0.2875 0.307,0.1916 0.4606,0.5383 0.4606,1.0423 0,0.4694 -0.1224,0.8127 -0.3679,1.0258 -0.2466,0.2132 -0.6353,0.3963 -1.1585,0.5499 -0.2937,0.0854 -0.5792,0.1789 -0.8462,0.2705 -0.2659,0.0915 -0.5026,0.2194 -0.7072,0.3767 -0.2024,0.1596 -0.364,0.364 -0.4898,0.6148 -0.127,0.2529 -0.1886,0.5803 -0.1886,0.9851 0,0.4059 0.082,0.7492 0.2467,1.027 0.1624,0.2766 0.3713,0.5028 0.6222,0.6718 0.254,0.1701 0.5329,0.2939 0.8464,0.3693 0.311,0.0777 0.6134,0.1151 0.9096,0.1151 0.4272,0 0.8224,-0.0408 1.1897,-0.1227 0.3657,-0.0831 0.6384,-0.167 0.8124,-0.2551 l -0.2967,-0.9519 c -0.2509,0.0873 -0.5233,0.155 -0.8207,0.1973 -0.2939,0.0431 -0.5564,0.0655 -0.7857,0.0655 -0.9959,0 -1.4933,-0.3714 -1.4933,-1.1163 0,-0.207 0.0388,-0.3782 0.1142,-0.508 0.0765,-0.1304 0.1809,-0.2381 0.3112,-0.32 0.1324,-0.0817 0.2863,-0.1548 0.4595,-0.2132 0.1744,-0.0592 0.3617,-0.1151 0.5576,-0.1735 0.2747,-0.0816 0.5525,-0.1839 0.83,-0.286 0.2801,-0.1046 0.5332,-0.2523 0.7549,-0.4436 0.2239,-0.1908 0.4048,-0.4329 0.5403,-0.7214 0.138,-0.2886 0.2046,-0.6653 0.2046,-1.124 0,-0.4283 -0.0743,-0.7925 -0.2259,-1.0927 -0.1551,-0.3002 -0.3651,-0.5468 -0.6353,-0.7373 -0.267,-0.1916 -0.5779,-0.3317 -0.9323,-0.4198 C 162.83,72.6143 162.451,72.57 162.0442,72.57 Z m 5.7444,0 c -0.4144,0 -0.83,0.0431 -1.237,0.1228 -0.4102,0.0819 -0.743,0.1842 -0.9936,0.3036 l 0.3274,0.97 c 0.2968,-0.1205 0.6081,-0.2154 0.9366,-0.2789 0.3271,-0.0644 0.646,-0.099 0.9493,-0.099 0.5267,0 0.9434,0.0958 1.2501,0.2875 0.307,0.1916 0.4575,0.5383 0.4575,1.0423 0,0.4694 -0.1227,0.8127 -0.3682,1.0258 -0.2466,0.2132 -0.6341,0.3963 -1.1585,0.5499 -0.2937,0.0854 -0.5757,0.1789 -0.8439,0.2705 -0.267,0.0915 -0.504,0.2194 -0.7064,0.3767 -0.2035,0.1596 -0.3671,0.364 -0.4918,0.6148 -0.1261,0.2529 -0.1882,0.5803 -0.1882,0.9851 0,0.4059 0.0816,0.7492 0.246,1.027 0.1642,0.2766 0.3719,0.5028 0.6248,0.6718 0.2509,0.1701 0.5329,0.2939 0.8439,0.3693 0.3112,0.0777 0.6148,0.1151 0.9119,0.1151 0.4263,0 0.8226,-0.0408 1.1885,-0.1227 0.3671,-0.0831 0.6373,-0.167 0.8139,-0.2551 l -0.2971,-0.9519 c -0.2509,0.0873 -0.5233,0.155 -0.8204,0.1973 -0.2948,0.0431 -0.5567,0.0655 -0.7891,0.0655 -0.9958,0 -1.4922,-0.3714 -1.4922,-1.1163 0,-0.207 0.0389,-0.3782 0.1151,-0.508 0.0754,-0.1304 0.1789,-0.2381 0.3113,-0.32 0.1335,-0.0817 0.2854,-0.1548 0.4609,-0.2132 0.1735,-0.0592 0.3617,-0.1151 0.5567,-0.1735 0.2755,-0.0816 0.5499,-0.1839 0.8297,-0.286 0.2781,-0.1046 0.5309,-0.2523 0.756,-0.4436 0.2217,-0.1908 0.4025,-0.4329 0.5391,-0.7214 0.1381,-0.2886 0.2058,-0.6653 0.2058,-1.124 0,-0.4283 -0.0776,-0.7925 -0.2293,-1.0927 -0.1519,-0.3002 -0.364,-0.5468 -0.6321,-0.7373 -0.267,-0.1916 -0.578,-0.3317 -0.9354,-0.4198 -0.3552,-0.0873 -0.7365,-0.1316 -1.1413,-0.1316 z m 5.1214,10.0951 c -0.2393,0 -0.4414,0.0842 -0.6063,0.252 -0.1656,0.1712 -0.2452,0.3832 -0.2452,0.6341 0,0.2401 0.0796,0.4447 0.2452,0.6145 0.1649,0.1693 0.367,0.2552 0.6063,0.2552 0.2497,0 0.4583,-0.0882 0.6245,-0.2625 0.1635,-0.1758 0.2432,-0.3779 0.2432,-0.6072 0,-0.241 -0.0817,-0.4502 -0.2432,-0.6256 -0.1639,-0.1732 -0.3748,-0.2605 -0.6245,-0.2605 z m -0.476,-3.0048 -0.8696,0.2305 v 0.8042 h 2.1506 v -7.8925 h -1.281 z m 9.3544,-6.777 c -0.1741,-0.0669 -0.3629,-0.1247 -0.5576,-0.1721 -0.1979,-0.0485 -0.3886,-0.0731 -0.574,-0.0731 -0.2291,0 -0.4102,0.0408 -0.5326,0.1205 -0.1262,0.0816 -0.2294,0.2658 -0.3048,0.5524 l -0.0816,0.311 -0.8541,-0.5576 c -0.2625,-0.1726 -0.4864,-0.2973 -0.6726,-0.3628 -0.1851,-0.0635 -0.3617,-0.0973 -0.5264,-0.0973 -0.5137,0 -0.9185,0.0797 -1.2136,0.2467 -0.2959,0.1635 -0.5195,0.3639 -0.6726,0.5975 -0.1508,0.2339 -0.2529,0.489 -0.2962,0.756 -0.0431,0.267 -0.0658,0.5046 -0.0658,0.7138 0,0.4918 0.1091,0.9105 0.3285,1.2551 0.2197,0.3445 0.5222,0.6265 0.902,0.8451 0.3847,0.2185 0.8391,0.3801 1.3632,0.4844 0.5253,0.1032 1.0947,0.1616 1.7076,0.1712 v 0.6083 c 0,0.4694 -0.1015,0.8343 -0.305,1.0908 -0.201,0.2571 -0.5865,0.3864 -1.1571,0.3864 -0.4048,0 -0.7764,-0.0443 -1.1143,-0.1313 -0.3393,-0.0853 -0.6523,-0.1811 -0.9357,-0.2789 l -0.296,0.8858 c 0.3705,0.2078 0.773,0.3736 1.2059,0.4921 0.4317,0.1196 0.8731,0.18 1.3209,0.18 0.9409,0 1.6019,-0.2092 1.9851,-0.6321 0.3836,-0.4198 0.5738,-0.9831 0.5738,-1.6807 v -4.8909 h 0.773 z m -2.0506,3.8565 c -0.2747,0 -0.5856,-0.0204 -0.9366,-0.0584 -0.3489,-0.0374 -0.6817,-0.1205 -0.9927,-0.2452 -0.3112,-0.1239 -0.5751,-0.3016 -0.7891,-0.5255 -0.2101,-0.2228 -0.3186,-0.5287 -0.3186,-0.9108 0,-0.4156 0.0805,-0.7376 0.2389,-0.9604 0.1571,-0.2239 0.4468,-0.3359 0.8612,-0.3359 0.1301,0 0.2866,0.0304 0.4671,0.0907 0.1789,0.0579 0.3651,0.1409 0.5502,0.2367 0.1863,0.097 0.3595,0.2033 0.5264,0.3124 0.1616,0.1086 0.294,0.214 0.3932,0.3129 z"/>
      <path
        inkscape:connector-curvature="0"
        id="path6287"
        style="fill:#1a1a18;fill-opacity:1;fill-rule:nonzero;stroke:none"
        d="m 261.1568,94.3634 v -4.7262 h -1.3805 v 11.2427 h 2.823 c 0.3189,0 0.6749,-0.0258 1.0681,-0.0754 0.3926,-0.0482 0.7673,-0.1785 1.114,-0.3843 0.3501,-0.2067 0.644,-0.5199 0.8788,-0.9366 0.2332,-0.4144 0.354,-0.9893 0.354,-1.7226 0,-0.688 -0.1108,-1.2563 -0.3285,-1.6988 -0.2194,-0.4414 -0.5018,-0.7903 -0.8459,-1.042 -0.3447,-0.2509 -0.7333,-0.4241 -1.1647,-0.5157 -0.432,-0.0938 -0.8638,-0.1411 -1.2881,-0.1411 z M 314.331,89.407 c -0.3812,0 -0.6999,0.047 -0.945,0.1397 -0.2447,0.0916 -0.4374,0.2325 -0.5752,0.4176 -0.1358,0.1876 -0.2282,0.4158 -0.2789,0.6828 -0.0485,0.2679 -0.0732,0.5823 -0.0732,0.9429 v 4.892 h -1.379 v 0.6882 l 1.379,0.3283 0.3286,2.1002 h 0.9666 v -2.0832 h 2.0188 V 96.482 h -2.0188 v -4.6293 c 0,-0.4909 0.07,-0.8376 0.2078,-1.0343 0.1357,-0.1973 0.3617,-0.294 0.6806,-0.294 0.1967,0 0.424,0.0128 0.6803,0.0408 0.2585,0.0258 0.4844,0.0666 0.6814,0.1228 l 0.1809,-0.9034 c -0.197,-0.0978 -0.3952,-0.1721 -0.591,-0.2217 -0.197,-0.0482 -0.3779,-0.0862 -0.5415,-0.1066 -0.1647,-0.0215 -0.3092,-0.0346 -0.4351,-0.0408 -0.125,-0.0065 -0.2194,-0.0085 -0.2724,-0.0085 z m -53.1742,10.2747 v -4.1351 h 1.1959 c 0.2971,0 0.5834,0.0215 0.8614,0.0643 0.2798,0.0431 0.5253,0.1412 0.7308,0.2877 0.2067,0.1477 0.3759,0.3671 0.5017,0.6565 0.1251,0.2897 0.1874,0.6806 0.1874,1.1736 0,0.4493 -0.0669,0.8044 -0.197,1.0658 -0.1304,0.2616 -0.2971,0.4598 -0.4997,0.5913 -0.2022,0.1324 -0.4264,0.2129 -0.6727,0.2475 -0.2463,0.0323 -0.4878,0.0484 -0.7138,0.0484 z m 7.4681,-2.1339 0.2928,-1.0828 c 0.3725,0.3486 0.783,0.6468 1.2306,0.8858 0.4509,0.2401 0.9365,0.3824 1.4621,0.4275 l 0.229,-1.493 c -0.678,-0.0658 -1.2402,-0.137 -1.6815,-0.2058 -0.4436,-0.0712 -0.8515,-0.1627 -1.2232,-0.2705 v -6.1718 h -1.2971 v 7.9106 z m 4.9221,-4.2511 c 0,-0.3285 0.0161,-0.6602 0.0485,-0.9927 0.0331,-0.3339 0.1204,-0.6352 0.2627,-0.9023 0.1418,-0.267 0.3498,-0.4867 0.6245,-0.6568 0.2721,-0.17 0.6554,-0.2551 1.1478,-0.2551 0.341,0 0.695,0.0323 1.0666,0.0905 0.3702,0.0592 0.7665,0.172 1.1812,0.337 l 0.3614,-0.9193 c -0.3486,-0.1638 -0.7469,-0.3036 -1.1885,-0.4178 -0.4434,-0.1154 -0.9332,-0.1732 -1.4695,-0.1732 -0.701,0 -1.2725,0.1052 -1.7161,0.3129 -0.4413,0.2058 -0.7923,0.4944 -1.0497,0.8604 -0.2551,0.367 -0.4339,0.8019 -0.5255,1.3047 -0.0924,0.504 -0.1398,1.0466 -0.1398,1.6257 0,0.3498 0.0335,0.7699 0.099,1.2566 0.0646,0.4856 0.2069,0.9527 0.4189,1.3938 0.2132,0.4405 0.5244,0.8218 0.927,1.1327 0.4045,0.3121 0.9518,0.4672 1.6418,0.4672 0.7342,0 1.3079,-0.1228 1.7223,-0.3694 0.417,-0.2452 0.728,-0.5748 0.9357,-0.985 0.2078,-0.4091 0.3382,-0.8847 0.3856,-1.4284 0.0484,-0.5414 0.0762,-1.1024 0.0762,-1.6815 z m 1.7053,3.3973 c -0.2948,0 -0.5499,-0.0731 -0.7622,-0.2205 -0.2121,-0.1474 -0.3921,-0.3382 -0.5329,-0.5664 -0.1421,-0.2302 -0.2466,-0.4833 -0.311,-0.7557 -0.0658,-0.2724 -0.0992,-0.5414 -0.0992,-0.8053 h 3.4288 c 0,0.3416 -0.0235,0.6525 -0.074,0.9365 -0.0488,0.2844 -0.1403,0.531 -0.2704,0.7399 -0.1304,0.2064 -0.3082,0.3725 -0.5329,0.4918 -0.224,0.1185 -0.5069,0.1797 -0.8462,0.1797 z m 6.0245,-7.287 c -0.4167,0 -0.8291,0.0428 -1.239,0.1236 -0.4102,0.0819 -0.7407,0.1831 -0.9947,0.3036 l 0.3282,0.968 c 0.2971,-0.1208 0.6084,-0.2143 0.9366,-0.2778 0.3285,-0.066 0.6457,-0.0992 0.9527,-0.0992 0.5253,0 0.94,0.0969 1.2467,0.2863 0.3059,0.1916 0.4609,0.5383 0.4609,1.0434 0,0.4703 -0.1227,0.8116 -0.3693,1.0248 -0.2466,0.2143 -0.6341,0.3974 -1.1574,0.5502 -0.2948,0.0861 -0.5791,0.1788 -0.8462,0.2701 -0.2681,0.0935 -0.5028,0.2197 -0.7049,0.3767 -0.2024,0.1607 -0.3663,0.3651 -0.4921,0.616 -0.1282,0.252 -0.1908,0.5805 -0.1908,0.9862 0,0.4048 0.0853,0.7472 0.2489,1.0227 0.1604,0.2812 0.3713,0.506 0.6222,0.6749 0.2508,0.1693 0.5332,0.294 0.8441,0.3702 0.3099,0.0754 0.618,0.1143 0.9117,0.1143 0.4277,0 0.8246,-0.0408 1.1897,-0.1228 0.3662,-0.0816 0.6383,-0.1655 0.8118,-0.2539 l -0.2939,-0.9516 c -0.2532,0.0859 -0.5253,0.1516 -0.8227,0.1958 -0.2936,0.0443 -0.5564,0.0655 -0.7857,0.0655 -0.997,0 -1.493,-0.3722 -1.493,-1.1151 0,-0.2078 0.0374,-0.3802 0.1139,-0.5091 0.0763,-0.1304 0.1809,-0.237 0.3132,-0.3201 0.1302,-0.0816 0.2832,-0.1536 0.4576,-0.2128 0.1743,-0.0604 0.3639,-0.1134 0.5578,-0.1735 0.2741,-0.0817 0.5522,-0.1843 0.8289,-0.2875 0.2775,-0.102 0.534,-0.252 0.7557,-0.4425 0.2239,-0.1907 0.4082,-0.4317 0.5425,-0.7222 0.1355,-0.2889 0.2047,-0.6645 0.2047,-1.1251 0,-0.4263 -0.0763,-0.7903 -0.2293,-1.0896 -0.1539,-0.3025 -0.3671,-0.548 -0.6341,-0.7396 -0.2682,-0.1905 -0.5792,-0.3305 -0.9335,-0.4175 -0.3574,-0.0885 -0.7364,-0.1324 -1.1412,-0.1324 z m 5.1202,10.0936 c -0.2401,0 -0.4436,0.0853 -0.6072,0.2543 -0.1635,0.17 -0.2466,0.3801 -0.2466,0.6329 0,0.239 0.0831,0.4448 0.2466,0.6137 0.1636,0.1701 0.3671,0.2552 0.6072,0.2552 0.2517,0 0.4587,-0.0873 0.6222,-0.2628 0.165,-0.1743 0.2466,-0.3779 0.2466,-0.6061 0,-0.2409 -0.0816,-0.4501 -0.2466,-0.623 -0.1604,-0.1758 -0.3705,-0.2642 -0.6222,-0.2642 z m -0.4768,-3.0033 -0.8688,0.2304 v 0.804 h 2.1489 v -7.8945 h -1.2801 z m 8.2228,-6.8601 -0.311,0.8203 -0.8045,-0.5094 c -0.5391,-0.341 -0.9782,-0.5241 -1.3306,-0.5241 -0.536,0 -0.9722,0.1174 -1.3121,0.3529 -0.3382,0.2347 -0.6083,0.544 -0.8034,0.9272 -0.197,0.3833 -0.3325,0.8269 -0.4025,1.3298 -0.07,0.5014 -0.1054,1.0162 -0.1054,1.5426 0,0.449 0.0408,0.9195 0.1227,1.4113 0.0817,0.493 0.2259,0.9443 0.434,1.3544 0.2078,0.4102 0.4961,0.7484 0.8612,1.0163 0.3659,0.269 0.8331,0.4025 1.4037,0.4025 0.25,0 0.5533,-0.057 0.902,-0.1721 0.3489,-0.1134 0.6891,-0.3155 1.0176,-0.5989 v 4.2667 h 1.2801 V 89.6372 Z m -0.3283,6.353 c -0.2509,0.1624 -0.5233,0.3251 -0.8127,0.4833 -0.2874,0.157 -0.6151,0.2381 -0.9745,0.2381 -0.341,0 -0.6146,-0.1196 -0.8224,-0.3532 -0.2077,-0.2347 -0.3693,-0.517 -0.4824,-0.8453 -0.1162,-0.3285 -0.1939,-0.6752 -0.2313,-1.0355 -0.0366,-0.3608 -0.0559,-0.6664 -0.0559,-0.9184 0,-1.0058 0.1086,-1.7473 0.328,-2.2244 0.2166,-0.4748 0.6225,-0.7137 1.2132,-0.7137 0.1423,0 0.3016,0.028 0.4751,0.083 0.1755,0.0539 0.3478,0.127 0.5091,0.2132 0.1636,0.087 0.3209,0.1851 0.4683,0.2863 0.1465,0.1046 0.2767,0.2066 0.3855,0.3036 z m 4.201,-2.6935 c 0,-0.3285 0.017,-0.6602 0.0515,-0.9927 0.0301,-0.3339 0.1197,-0.6352 0.2594,-0.9023 0.1432,-0.267 0.3529,-0.4867 0.6256,-0.6568 0.2721,-0.17 0.6568,-0.2551 1.1486,-0.2551 0.339,0 0.6965,0.0323 1.0678,0.0905 0.3694,0.0592 0.7665,0.172 1.1824,0.337 l 0.3594,-0.9193 c -0.3509,-0.1638 -0.7484,-0.3036 -1.1897,-0.4178 -0.4411,-0.1154 -0.9335,-0.1732 -1.4684,-0.1732 -0.6998,0 -1.2747,0.1052 -1.7149,0.3129 -0.4448,0.2058 -0.7937,0.4944 -1.0517,0.8604 -0.2565,0.367 -0.432,0.8019 -0.5244,1.3047 -0.0935,0.504 -0.14,1.0466 -0.14,1.6257 0,0.3498 0.0346,0.7699 0.0992,1.2566 0.0635,0.4856 0.2052,0.9527 0.4175,1.3938 0.2121,0.4405 0.5233,0.8218 0.9292,1.1327 0.4026,0.3121 0.9494,0.4672 1.6405,0.4672 0.7321,0 1.3059,-0.1228 1.7214,-0.3694 0.4179,-0.2452 0.728,-0.5748 0.9358,-0.985 0.2077,-0.4091 0.3381,-0.8847 0.3863,-1.4284 0.0508,-0.5414 0.0746,-1.1024 0.0746,-1.6815 z m 1.7081,3.3973 c -0.2959,0 -0.5502,-0.0731 -0.7653,-0.2205 -0.2112,-0.1474 -0.3895,-0.3382 -0.5327,-0.5664 -0.14,-0.2302 -0.2457,-0.4833 -0.3112,-0.7557 -0.0635,-0.2724 -0.0989,-0.5414 -0.0989,-0.8053 h 3.431 c 0,0.3416 -0.0249,0.6525 -0.0734,0.9365 -0.0496,0.2844 -0.1386,0.531 -0.2713,0.7399 -0.1315,0.2064 -0.3098,0.3725 -0.534,0.4918 -0.2217,0.1185 -0.506,0.1797 -0.8442,0.1797 z m 9.0437,-7.0568 v 5.0717 c 0,0.252 -0.0153,0.489 -0.0389,0.7138 -0.03,0.2239 -0.0907,0.4187 -0.1842,0.5825 -0.0916,0.1647 -0.2262,0.2928 -0.4025,0.3864 -0.1747,0.0915 -0.4028,0.14 -0.688,0.14 -0.2188,0 -0.4306,-0.0357 -0.6319,-0.0989 -0.2023,-0.0658 -0.392,-0.1446 -0.5663,-0.2305 -0.1743,-0.0873 -0.3328,-0.184 -0.4779,-0.2874 -0.1404,-0.1032 -0.2608,-0.1939 -0.3598,-0.2702 v -6.0074 h -1.2801 v 7.8783 h 0.9527 l 0.3113,-0.8215 1.2467,0.7064 c 0.1539,0.0862 0.3328,0.1647 0.5363,0.2293 0.199,0.0655 0.3776,0.099 0.5295,0.099 0.5502,0 0.9796,-0.099 1.2906,-0.2948 0.3115,-0.1973 0.5448,-0.4468 0.6979,-0.7473 0.1505,-0.3004 0.2477,-0.6287 0.2863,-0.9765 0.0366,-0.3501 0.0581,-0.6803 0.0581,-0.9862 v -5.0867 z"/>
      <path
        inkscape:connector-curvature="0"
        id="path6289"
        style="fill:#1a1a18;fill-opacity:1;fill-rule:nonzero;stroke:none"
        d="m 194.5644,75.9512 c 0,-0.449 -0.0774,-0.8646 -0.2293,-1.2467 -0.1539,-0.3843 -0.3671,-0.7115 -0.6415,-0.9842 -0.2735,-0.2743 -0.5956,-0.4875 -0.9669,-0.6403 -0.3747,-0.1539 -0.773,-0.2313 -1.1993,-0.2313 h -3.7412 v 11.2275 h 3.2652 c 0.4156,0 0.8139,-0.0559 1.1897,-0.1636 0.3787,-0.1111 0.7118,-0.2747 1.0009,-0.4944 0.2897,-0.2185 0.5213,-0.4949 0.6906,-0.8373 0.1678,-0.3382 0.2528,-0.7376 0.2528,-1.1974 0,-0.6018 -0.1635,-1.1324 -0.4918,-1.5922 -0.3274,-0.4584 -0.7656,-0.7773 -1.3113,-0.9516 v -0.0485 c 0.7319,-0.1539 1.2798,-0.477 1.6396,-0.9688 0.3617,-0.4933 0.5425,-1.1155 0.5425,-1.8712 z m -1.7719,5.3172 c 0,0.3175 -0.0635,0.5814 -0.1885,0.7881 -0.1259,0.2078 -0.2852,0.3756 -0.4791,0.5006 -0.1893,0.1258 -0.3994,0.214 -0.6318,0.2647 -0.2285,0.0485 -0.4524,0.072 -0.6696,0.072 h -1.7087 v -3.5461 h 1.6095 c 0.591,0 1.0828,0.1508 1.4769,0.4524 0.3951,0.3002 0.5913,0.7911 0.5913,1.4683 z m 0.3929,-5.2021 c 0,0.3606 -0.0638,0.6749 -0.1885,0.9434 -0.1262,0.269 -0.294,0.4898 -0.5103,0.6661 -0.2109,0.1732 -0.464,0.3047 -0.7546,0.3929 -0.2885,0.0873 -0.602,0.1312 -0.9431,0.1312 h -1.6741 v -4.1845 h 1.6741 c 0.3411,0 0.6568,0.0292 0.9536,0.0896 0.294,0.0601 0.5502,0.169 0.7623,0.3291 0.2109,0.1573 0.3801,0.3694 0.5017,0.6321 0.1173,0.2617 0.1789,0.5942 0.1789,1.0001 z m 3.9909,-3.3814 c -0.2844,0 -0.5256,0.1023 -0.7237,0.3035 -0.1959,0.2036 -0.2948,0.4468 -0.2948,0.7319 0,0.2824 0.0989,0.5279 0.2948,0.7291 0.1981,0.2024 0.4393,0.3047 0.7237,0.3047 0.284,0 0.5283,-0.1023 0.7287,-0.3047 0.2024,-0.2027 0.3036,-0.4467 0.3036,-0.7291 0,-0.2851 -0.1012,-0.5283 -0.3036,-0.7319 -0.2004,-0.2012 -0.4447,-0.3035 -0.7287,-0.3035 z m 9.2531,2.6926 v 8.7148 h 1.2821 V 72.8487 h -1.4953 l -3.6584,8.0753 -0.396,0.9839 h -0.0649 v -9.0592 h -1.2648 v 11.2436 h 1.6441 l 3.4772,-7.7794 0.3932,-0.9354 z m 4.2202,-2.6926 c -0.2843,0 -0.5253,0.1023 -0.7237,0.3035 -0.1947,0.2036 -0.2939,0.4468 -0.2939,0.7319 0,0.2824 0.0992,0.5279 0.2939,0.7291 0.1984,0.2024 0.4394,0.3047 0.7237,0.3047 0.284,0 0.5284,-0.1023 0.7308,-0.3047 0.2035,-0.2027 0.3036,-0.4467 0.3036,-0.7291 0,-0.2851 -0.1001,-0.5283 -0.3036,-0.7319 -0.2024,-0.2012 -0.4468,-0.3035 -0.7308,-0.3035 z m 8.295,11.3913 h 1.5265 l -3.2491,-6.4508 v -4.7767 h -1.379 v 4.7432 l -3.1706,6.4843 h 1.5622 l 1.8536,-4.1372 0.4782,-1.05 h 0.0646 l 0.4748,1.05 z m 3.4149,-7.5663 c 0,-0.3274 0.017,-0.661 0.0485,-0.9927 0.032,-0.3336 0.1236,-0.6361 0.2625,-0.9031 0.1423,-0.267 0.3501,-0.4878 0.6236,-0.6568 0.2733,-0.1701 0.6576,-0.254 1.1497,-0.254 0.3371,0 0.6942,0.0304 1.0656,0.0905 0.3716,0.0592 0.7676,0.1723 1.1823,0.3367 l 0.3617,-0.919 c -0.352,-0.1661 -0.7483,-0.3058 -1.1917,-0.4192 -0.4416,-0.114 -0.9303,-0.1732 -1.4686,-0.1732 -0.6987,0 -1.2716,0.1046 -1.715,0.3112 -0.4413,0.2087 -0.7934,0.4964 -1.0485,0.8635 -0.2594,0.3662 -0.4348,0.801 -0.5264,1.3048 -0.0927,0.5025 -0.14,1.0442 -0.14,1.6245 0,0.3501 0.0343,0.7699 0.0992,1.2555 0.0655,0.4855 0.2055,0.9527 0.4175,1.3952 0.2143,0.4425 0.5222,0.8189 0.9281,1.1313 0.4048,0.3121 0.9527,0.4683 1.6407,0.4683 0.7322,0 1.307,-0.1239 1.7235,-0.3705 0.4158,-0.2452 0.7287,-0.5738 0.9354,-0.9839 0.2092,-0.4099 0.3359,-0.8859 0.3866,-1.4276 0.0485,-0.5414 0.072,-1.1012 0.072,-1.6815 z m 1.7054,3.3968 c -0.294,0 -0.5491,-0.0746 -0.7623,-0.222 -0.2143,-0.1474 -0.3932,-0.337 -0.5329,-0.5661 -0.1423,-0.2296 -0.2477,-0.4824 -0.3135,-0.7545 -0.0644,-0.2727 -0.0967,-0.5417 -0.0967,-0.8045 h 3.4299 c 0,0.3393 -0.0269,0.6514 -0.0742,0.9354 -0.0485,0.2855 -0.1401,0.531 -0.2704,0.7387 -0.1324,0.2087 -0.311,0.3734 -0.5338,0.4918 -0.2239,0.1205 -0.506,0.1812 -0.8461,0.1812 z m 4.5634,3.5288 -0.8537,0.2466 v 0.7872 h 2.1177 V 72.8487 h -1.264 z m 5.7113,-10.8164 c -0.3833,0 -0.6987,0.0476 -0.9428,0.1389 -0.2458,0.0935 -0.4382,0.2347 -0.574,0.4209 -0.1378,0.1843 -0.2313,0.4125 -0.2801,0.6803 -0.0504,0.2671 -0.074,0.5837 -0.074,0.9443 v 4.8897 h -1.379 v 0.6891 l 1.379,0.3283 0.3283,2.1016 h 0.9669 v -2.084 h 2.0182 v -1.035 h -2.0182 v -4.627 c 0,-0.4918 0.0697,-0.8385 0.2075,-1.0346 0.1346,-0.197 0.3605,-0.2959 0.6792,-0.2959 0.1984,0 0.4254,0.0141 0.6805,0.0408 0.2574,0.0278 0.4845,0.0689 0.6826,0.1236 l 0.1809,-0.9029 c -0.1982,-0.0992 -0.3949,-0.1723 -0.5913,-0.2219 -0.1967,-0.0493 -0.3776,-0.0851 -0.5426,-0.1066 -0.1635,-0.0204 -0.3087,-0.0357 -0.4337,-0.04 -0.1247,-0.0062 -0.2163,-0.0096 -0.2724,-0.0096 z m 4.2664,0 c -0.4144,0 -0.8288,0.0408 -1.239,0.1239 -0.4102,0.0807 -0.7407,0.1831 -0.9936,0.3024 l 0.3306,0.97 c 0.2936,-0.1204 0.608,-0.2154 0.9331,-0.2797 0.3306,-0.0647 0.646,-0.0993 0.953,-0.0993 0.5264,0 0.9409,0.0959 1.2476,0.2889 0.3058,0.1902 0.4597,0.5369 0.4597,1.0417 0,0.4697 -0.123,0.813 -0.3682,1.025 -0.2466,0.2132 -0.6349,0.3974 -1.1585,0.5514 -0.2939,0.085 -0.5791,0.1774 -0.8441,0.2701 -0.2679,0.0913 -0.5038,0.2186 -0.707,0.3767 -0.2016,0.1585 -0.3662,0.3629 -0.4924,0.616 -0.1247,0.252 -0.1882,0.5803 -0.1882,0.985 0,0.4037 0.0819,0.7461 0.2466,1.0251 0.1616,0.2786 0.3713,0.5025 0.6222,0.6726 0.2531,0.1712 0.5363,0.2937 0.8473,0.3691 0.3101,0.0768 0.6148,0.1154 0.9088,0.1154 0.4272,0 0.8246,-0.0409 1.1885,-0.1239 0.3668,-0.0817 0.6395,-0.1656 0.8139,-0.2537 l -0.294,-0.9519 c -0.252,0.0893 -0.5267,0.1528 -0.8203,0.197 -0.2963,0.044 -0.561,0.0658 -0.7881,0.0658 -0.9969,0 -1.4944,-0.3716 -1.4944,-1.1155 0,-0.2089 0.0388,-0.3789 0.1131,-0.5093 0.0785,-0.1313 0.1809,-0.239 0.3132,-0.3209 0.1336,-0.0797 0.2855,-0.1528 0.4587,-0.2129 0.1766,-0.0592 0.3651,-0.1142 0.561,-0.1712 0.2724,-0.0831 0.549,-0.1851 0.8268,-0.2875 0.2801,-0.1043 0.5329,-0.2531 0.7569,-0.4436 0.2217,-0.1905 0.4025,-0.4328 0.5403,-0.7225 0.1346,-0.2894 0.2055,-0.6639 0.2055,-1.124 0,-0.4263 -0.0783,-0.7911 -0.2291,-1.0902 -0.155,-0.3016 -0.3651,-0.5482 -0.6321,-0.7387 -0.2698,-0.1927 -0.5814,-0.3328 -0.9357,-0.4209 -0.3572,-0.0862 -0.7362,-0.1304 -1.1421,-0.1304 z m 5.1214,10.093 c -0.2413,0 -0.4434,0.0851 -0.6072,0.2551 -0.1647,0.1701 -0.2463,0.3802 -0.2463,0.6319 0,0.2412 0.0816,0.4467 0.2463,0.616 0.1638,0.1689 0.3659,0.2542 0.6072,0.2542 0.2508,0 0.4586,-0.0873 0.6222,-0.2627 0.1635,-0.1755 0.2466,-0.3771 0.2466,-0.6075 0,-0.2401 -0.0831,-0.4487 -0.2466,-0.6231 -0.1613,-0.1754 -0.3714,-0.2639 -0.6222,-0.2639 z m -0.4771,-3.0027 -0.8688,0.2296 v 0.8042 h 2.1492 v -7.8945 h -1.2804 z m 8.0099,-6.8607 v 5.0715 c 0,0.252 -0.0151,0.4909 -0.0409,0.7137 -0.026,0.224 -0.0873,0.4187 -0.1808,0.5837 -0.0927,0.1635 -0.2271,0.2936 -0.4025,0.3852 -0.1746,0.0927 -0.404,0.1389 -0.688,0.1389 -0.2197,0 -0.4317,-0.0332 -0.6321,-0.0978 -0.2021,-0.0649 -0.3929,-0.1423 -0.5672,-0.2293 -0.1732,-0.0862 -0.334,-0.1843 -0.474,-0.2875 -0.1431,-0.1034 -0.2636,-0.1938 -0.3625,-0.2712 v -6.0072 h -1.281 v 7.8795 h 0.9527 l 0.3144,-0.8215 1.2432,0.7052 c 0.1548,0.0868 0.3337,0.1644 0.533,0.2302 0.2032,0.0658 0.3821,0.0989 0.5337,0.0989 0.5471,0 0.98,-0.1 1.2909,-0.2959 0.3113,-0.1959 0.5448,-0.4467 0.6968,-0.7472 0.1516,-0.2993 0.2486,-0.6268 0.2874,-0.9765 0.0354,-0.3479 0.0581,-0.6792 0.0581,-0.9837 v -5.089 z"/>
      <path
        inkscape:connector-curvature="0"
        id="path6291"
        style="fill:#1a1a18;fill-opacity:1;fill-rule:nonzero;stroke:none"
        d="m 146.2663,183.9481 h -4.5607 V 163.351 c 0,-2.2921 -2.4091,-3.329 -4.3676,-3.329 -1.9281,0 -4.4969,1.0457 -4.4969,3.329 v 20.641 l -4.6885,-0.0439 v -21.1623 c 0,-4.5077 5.1049,-6.6147 9.0573,-6.6147 3.9509,0 9.0564,2.1047 9.0564,6.6147 z"/>
      <path
        inkscape:connector-curvature="0"
        id="path6293"
        style="fill:#1a1a18;fill-opacity:1;fill-rule:nonzero;stroke:none"
        d="m 161.5853,176.8657 c -0.9261,0.6837 -2.4826,1.0239 -3.6108,1.0239 -1.8292,9e-4 -3.1093,-0.9981 -4.0901,-2.4117 -0.1494,0.7191 -0.8807,1.9046 -1.6631,2.1058 l -3.022,-1.5706 c 0.7535,-0.4921 1.154,-1.8508 1.1529,-2.6881 l -0.044,-16.8551 h 4.2781 v 14.1236 c 0,1.7612 1.1296,3.0013 2.8672,3.2287 1.0313,0.1355 2.1036,-0.0947 2.9787,-0.6684 z"/>
      <path
        inkscape:connector-curvature="0"
        id="path6295"
        style="fill:#1a1a18;fill-opacity:1;fill-rule:nonzero;stroke:none"
        d="m 190.6418,157.4935 -1.2325,3.0674 c -0.9765,-0.8 -2.7519,-1.2025 -2.7519,0.801 v 22.6296 h -4.276 v -22.9128 c 0,-2.4516 1.2855,-4.9181 4.0779,-4.9081 1.5857,0.008 2.8596,0.5252 4.1825,1.3229"/>
      <path
        inkscape:connector-curvature="0"
        id="path6297"
        style="fill:#1a1a18;fill-opacity:1;fill-rule:nonzero;stroke:none"
        d="m 179.996,159.6172 c -0.9839,0.2367 -1.7246,1.097 -1.7246,2.266 v 8.8767 c 0,4.3549 -2.3139,7.1291 -7.2218,7.1291 -3.331,0 -5.9352,-1.4085 -7.3443,-2.8604 l 2.3057,-2.8315 c 1.4525,1.4091 3.543,1.9649 4.6123,1.9649 1.4499,0 3.2802,-0.6429 3.2802,-2.6056 v -2.2413 h -3.5798 c -5.1231,0 -7.2644,-3.2533 -7.2644,-6.6682 0,-3.2857 1.7989,-6.4962 6.9653,-6.4962 1.5806,0 3.6164,0.7977 4.8674,2.0231 1.3186,-1.1951 2.1498,-1.7702 3.56,-2.0123 z m -6.0925,1.6999 c -1.0423,-1.3498 -2.9435,-1.7345 -4.3923,-1.4748 -1.1196,0.2012 -2.0531,1.3328 -2.0746,2.5426 -0.0312,1.556 0.9527,3.2409 3.2351,3.2437 l 3.2318,0.006 v -4.3172 z"/>
      <path
        inkscape:connector-curvature="0"
        id="path6299"
        style="fill:#1a1a18;fill-opacity:1;fill-rule:nonzero;stroke:none"
        d="m 219.5456,183.9917 h -16.1844 v -27.5215 h 4.5603 v 12.219 h 10.217 v 3.9793 h -10.217 v 7.3012 h 10.685 z"/>
      <path
        inkscape:connector-curvature="0"
        id="path6301"
        style="fill:#1a1a18;fill-opacity:1;fill-rule:nonzero;stroke:none"
        d="m 256.6295,159.6172 c -0.661,0.2767 -1.7257,0.3767 -1.7257,2.5719 v 21.8029 h -4.2749 v -7.4681 c -1.1415,0.8492 -2.5214,1.3651 -3.9416,1.3651 -4.2233,0 -7.4939,-3.2901 -7.4939,-7.4942 v -7.2411 c 0,-4.1661 3.1016,-6.9698 7.1934,-6.9826 1.9282,-0.006 3.9405,0.7138 5.1407,2.0027 0.5694,-0.6406 2.3374,-1.9381 3.5606,-2.0123 z m -6.0006,1.603 c -1.0327,-1.0432 -2.2663,-1.4199 -3.6142,-1.4222 -2.2887,-0.01 -3.4591,1.4437 -3.4591,3.6539 v 6.9429 c 0,1.9916 0.9431,3.7003 3.0478,3.7981 1.6954,0.0786 2.9798,-0.4263 4.0255,-1.7481 z"/>
      <path
        inkscape:connector-curvature="0"
        id="path6303"
        style="fill:#1a1a18;fill-opacity:1;fill-rule:nonzero;stroke:none"
        d="m 274.3597,158.9528 -1.84,3.3009 c -2.0939,-1.7076 -4.1374,-2.2618 -5.845,-2.2618 -2.0906,0 -3.7066,1.1509 -3.7066,3.4149 v 1.9528 h 10.9287 v 5.1214 c 0,5.3365 -3.3798,7.3862 -7.4361,7.3862 -4.6531,0 -7.9044,-2.391 -7.9044,-7.6413 v -7.0022 c 0,-4.6973 3.0801,-7.0526 7.7785,-7.0526 3.4588,0 5.5497,1.1172 8.0249,2.7817 z m -4.8719,12.6252 v -2.6184 h -6.5197 v 2.319 c 0,1.8786 1.616,2.9455 3.4926,2.9455 1.1551,0 3.0271,-0.7707 3.0271,-2.6461"/>
      <path
        inkscape:connector-curvature="0"
        id="path6305"
        style="fill:#1a1a18;fill-opacity:1;fill-rule:nonzero;stroke:none"
        d="m 288.9564,176.8657 c -0.9227,0.6837 -2.4814,1.0239 -3.611,1.0239 -1.8278,9e-4 -3.1077,-0.9981 -4.0876,-2.4117 -0.1497,0.7191 -0.8804,1.9046 -1.6645,2.1058 l -3.0217,-1.5706 c 0.7545,-0.4921 1.1551,-1.8508 1.152,-2.6881 l -0.0434,-16.8551 h 4.2795 v 14.1236 c 0,1.7612 1.1293,3.0013 2.8658,3.2287 1.0315,0.1355 2.1047,-0.0947 2.9792,-0.6684 z"/>
      <path
        inkscape:connector-curvature="0"
        id="path6307"
        style="fill:#1a1a18;fill-opacity:1;fill-rule:nonzero;stroke:none"
        d="m 306.885,159.6172 c -0.9819,0.2367 -1.7246,1.097 -1.7246,2.266 v 8.8767 c 0,4.3549 -2.3128,7.1291 -7.2216,7.1291 -3.3301,0 -5.9354,-1.4085 -7.3445,-2.8604 l 2.306,-2.8315 c 1.4524,1.4091 3.5441,1.9649 4.6122,1.9649 1.4522,0 3.2803,-0.6429 3.2803,-2.6056 v -2.2413 h -3.5799 c -5.12,0 -7.2646,-3.2533 -7.2646,-6.6682 0,-3.2857 1.7988,-6.4962 6.9652,-6.4962 1.5806,0 3.6165,0.7977 4.8685,2.0231 1.3187,-1.1951 2.151,-1.7702 3.5592,-2.0123 z m -6.0922,1.6999 c -1.0423,-1.3498 -2.9435,-1.7345 -4.3895,-1.4748 -1.1217,0.2012 -2.054,1.3328 -2.0778,2.5426 -0.0312,1.556 0.9539,3.2409 3.2352,3.2437 l 3.2321,0.006 v -4.3172 z"/>
      <path
        inkscape:connector-curvature="0"
        id="path6309"
        style="fill:#1a1a18;fill-opacity:1;fill-rule:nonzero;stroke:none"
        d="m 317.1115,157.4935 -1.2328,3.0674 c -0.9765,-0.8 -2.7516,-1.2025 -2.7516,0.801 v 22.6296 h -4.2763 v -22.9128 c 0,-2.4516 1.2852,-4.9181 4.0779,-4.9081 1.586,0.008 2.8596,0.5252 4.1828,1.3229"/>
      <path
        inkscape:connector-curvature="0"
        id="path6311"
        style="fill:#1a1a18;fill-opacity:1;fill-rule:nonzero;stroke:none"
        d="m 236.5183,158.9528 -1.8408,3.3009 c -2.0928,-1.7076 -4.1363,-2.2618 -5.8451,-2.2618 -2.0905,0 -3.7065,1.1509 -3.7065,3.4149 v 1.9528 h 10.9287 v 5.1214 c 0,5.3365 -3.3787,7.3862 -7.4362,7.3862 -4.6519,0 -7.9044,-2.391 -7.9044,-7.6413 v -7.0022 c 0,-4.6973 3.0813,-7.0526 7.7794,-7.0526 3.4591,0 5.55,1.1172 8.0249,2.7817 z m -4.8728,12.6252 v -2.6184 h -6.5196 v 2.319 c 0,1.8786 1.616,2.9455 3.4925,2.9455 1.1554,0 3.0271,-0.7707 3.0271,-2.6461"/>
      <path
        inkscape:connector-curvature="0"
        id="path6313"
        style="fill:#1a1a18;fill-opacity:1;fill-rule:nonzero;stroke:none"
        d="m 280.8283,141.692 h -4.7508 l -4.3064,-16.3491 c 0,0 0.0439,1.2382 -0.4706,2.9886 l -3.6635,13.3605 -4.8381,-0.0431 c 0,0 5.6335,-17.8197 6.959,-20.9349 -0.6468,-2.7587 -2.1543,-4.5919 -5.3407,-4.8946 l 0.4152,-3.193 c 4.8405,0.0108 7.5847,2.6087 8.5814,5.8221 z"/>
      <path
        inkscape:connector-curvature="0"
        id="path6315"
        style="fill:#1a1a18;fill-opacity:1;fill-rule:nonzero;stroke:none"
        d="m 166.2931,135.5051 c 0,3.947 -2.812,6.5781 -6.8964,6.5705 -2.1456,-0.004 -4.0663,-0.6095 -5.819,-1.8766 -0.3682,0.646 -0.8158,1.1682 -1.4071,1.6206 l -3.2114,-1.5355 c 0.8065,-0.8405 1.0239,-1.6362 1.0239,-2.7732 v -16.8117 h 4.3214 v 15.8029 c 1.1733,1.1228 2.5999,2.01 4.2114,2.0046 2.2374,-0.007 3.3707,-1.476 3.3707,-3.6272 v -14.1803 h 4.4065 z"/>
      <path
        inkscape:connector-curvature="0"
        id="path6317"
        style="fill:#1a1a18;fill-opacity:1;fill-rule:nonzero;stroke:none"
        d="m 175.2545,147.9662 c 0,1.4729 -1.1724,2.6419 -2.6444,2.6419 -1.463,0 -2.6892,-1.1605 -2.6892,-2.6419 0,-1.4899 1.2016,-2.6892 2.6892,-2.6892 1.4967,0 2.6444,1.2079 2.6444,2.6892 z m -0.5289,-6.2742 h -4.2792 v -20.9931 h 4.2792 z"/>
      <path
        inkscape:connector-curvature="0"
        id="path6319"
        style="fill:#1a1a18;fill-opacity:1;fill-rule:nonzero;stroke:none"
        d="m 194.5959,141.692 h -4.4076 L 186.12,127.565 c -0.0505,-0.1777 -0.1012,-0.3983 -0.1451,-0.661 -0.0411,-0.2693 -0.0766,-0.5406 -0.1035,-0.8031 -0.0289,-0.2701 -0.057,-0.4972 -0.072,-0.6749 -0.0153,-0.1851 -0.0218,-0.2789 -0.0218,-0.2855 0,0.007 -0.008,0.1004 -0.0289,0.2855 -0.0196,0.1754 -0.0485,0.4048 -0.0851,0.6749 -0.0334,0.2625 -0.0742,0.5329 -0.1196,0.8031 -0.0462,0.2619 -0.1043,0.4813 -0.1505,0.661 l -3.7284,14.127 h -4.4915 l 6.2302,-20.9934 h 4.6197 z"/>
      <path
        inkscape:connector-curvature="0"
        id="path6321"
        style="fill:#1a1a18;fill-opacity:1;fill-rule:nonzero;stroke:none"
        d="m 241.202,139.3668 c -1.5222,1.8569 -3.979,2.7365 -6.3162,2.7518 -3.3094,0.0224 -6.8675,-1.6934 -7.2649,-5.2633 -0.1063,-0.9485 0.006,-1.7734 0.2832,-2.4945 0.9269,-2.3944 3.276,-3.2825 5.4592,-4.1213 1.9993,-0.7662 4.1837,-1.2101 4.1729,-3.6581 -0.007,-1.7 -1.9658,-2.4429 -3.5019,-2.4429 -1.6892,0 -3.3052,0.8033 -4.3226,1.995 l -2.4633,-2.812 c 1.6665,-1.8666 4.1687,-2.9165 6.6555,-2.9219 4.1675,-0.01 8.1734,2.0565 8.0368,6.5778 -0.1142,3.7142 -3.0198,5.1021 -6.323,6.2583 -1.5891,0.5556 -3.8194,1.0335 -3.7066,3.0952 0.084,1.5168 1.5656,2.2093 2.9336,2.2186 1.5988,0.0119 3.0124,-0.6596 3.8211,-1.6438 z"/>
      <path
        inkscape:connector-curvature="0"
        id="path6323"
        style="fill:#1a1a18;fill-opacity:1;fill-rule:nonzero;stroke:none"
        d="m 266.4893,141.692 h -7.3565 v 6.2723 l -4.3203,-1.5784 v -4.6939 h -2.8173 v -3.4409 h 2.8173 v -13.1225 c 0,-2.3414 1.376,-4.6927 4.1395,-4.7131 1.7872,-0.01 2.783,0.6213 4.136,1.3617 l -1.2132,3.0586 c -0.9323,-0.7288 -2.742,-1.2078 -2.742,0.7472 v 12.6681 h 6.7575 z"/>
      <path
        inkscape:connector-curvature="0"
        id="path6325"
        style="fill:#1a1a18;fill-opacity:1;fill-rule:nonzero;stroke:none"
        d="m 211.6888,123.1302 -1.8422,3.2987 c -2.0937,-1.7062 -4.1352,-2.2609 -5.8425,-2.2609 -2.0909,0 -3.7066,1.152 -3.7066,3.4149 v 1.9511 h 10.9284 v 5.123 c 0,5.3379 -3.3786,7.3865 -7.4361,7.3865 -4.6517,0 -7.9042,-2.391 -7.9042,-7.6425 v -7.0021 c 0,-4.695 3.0813,-7.0515 7.7794,-7.0515 3.4558,0 5.55,1.1175 8.0238,2.7828 z m -4.8739,12.6232 v -2.6152 h -6.5174 v 2.3156 c 0,1.8797 1.6157,2.9466 3.4923,2.9466 1.1554,0 3.0251,-0.771 3.0251,-2.647"/>
      <path
        inkscape:connector-curvature="0"
        id="path6327"
        style="fill:#1a1a18;fill-opacity:1;fill-rule:nonzero;stroke:none"
        d="m 226.4822,141.0948 c -0.9235,0.6826 -2.4825,1.0238 -3.611,1.0238 -1.8286,0 -3.1091,-0.9992 -4.0876,-2.4128 -0.1508,0.7203 -0.8818,1.9057 -1.6645,2.107 l -3.0231,-1.5718 c 0.7526,-0.4921 1.1534,-1.8493 1.1534,-2.6881 l -0.0442,-16.854 h 4.2794 v 14.1237 c 0,1.7614 1.1291,3.0004 2.8659,3.2286 1.0323,0.1347 2.1055,-0.0958 2.9786,-0.6695 z"/>
      <path
        inkscape:connector-curvature="0"
        id="path6329"
        style="fill:#1a1a18;fill-opacity:1;fill-rule:nonzero;stroke:none"
        d="m 249.5665,147.9662 c 0,1.4729 -1.1722,2.6419 -2.6428,2.6419 -1.4641,0 -2.6895,-1.1605 -2.6895,-2.6419 0,-1.4899 1.2005,-2.6892 2.6895,-2.6892 1.4953,0 2.6428,1.2079 2.6428,2.6892 z m -0.5273,-6.2742 h -4.2772 v -20.9931 h 4.2772 z"/>
      <path
        inkscape:connector-curvature="0"
        id="path6331"
        style="fill:#1a1a18;fill-opacity:1;fill-rule:nonzero;stroke:none"
        d="m 146.2663,148.1255 h -4.5607 v -20.5982 c 0,-2.2929 -2.4091,-3.3287 -4.3676,-3.3287 -1.9281,0 -4.4969,1.0465 -4.4969,3.3287 v 20.6402 l -4.6885,-0.042 v -21.1646 c 0,-4.5076 5.1049,-6.612 9.0573,-6.612 3.9509,0 9.0564,2.1044 9.0564,6.612 z"/>
    </g>
  </g>
</svg>
