<?xml version="1.0" encoding="utf-8"?>
<!-- Generator: Adobe Illustrator 21.0.2, SVG Export Plug-In . SVG Version: 6.00 Build 0)  -->
<svg version="1.1" xmlns="http://www.w3.org/2000/svg" xmlns:xlink="http://www.w3.org/1999/xlink" x="0px" y="0px"
	 viewBox="0 0 48 48" style="enable-background:new 0 0 48 48;" xml:space="preserve">
<style type="text/css">
	.st0{fill:#FFFFFF;stroke:#4D4D4D;stroke-miterlimit:10;}
</style>
<g id="Слой_1">
	<g>
		<path class="st0" d="M40.2,15.1H7.8c-2.6,0-4.7-2.1-4.7-4.7v0c0-2.6,2.1-4.7,4.7-4.7h32.4c2.6,0,4.7,2.1,4.7,4.7v0
			C44.9,13,42.8,15.1,40.2,15.1z"/>
		<path class="st0" d="M40.2,28.8H7.8c-2.6,0-4.7-2.1-4.7-4.7v0c0-2.6,2.1-4.7,4.7-4.7h32.4c2.6,0,4.7,2.1,4.7,4.7v0
			C44.9,26.6,42.8,28.8,40.2,28.8z"/>
		<path class="st0" d="M40.2,42.4H7.8c-2.6,0-4.7-2.1-4.7-4.7v0c0-2.6,2.1-4.7,4.7-4.7h32.4c2.6,0,4.7,2.1,4.7,4.7v0
			C44.9,40.2,42.8,42.4,40.2,42.4z"/>
	</g>
</g>
<g id="Слой_2">
</g>
</svg>
